<?xml version="1.0" encoding="UTF-8" standalone="no"?>
<!-- Created with Inkscape (http://www.inkscape.org/) -->

<svg
   xmlns:dc="http://purl.org/dc/elements/1.1/"
   xmlns:cc="http://creativecommons.org/ns#"
   xmlns:rdf="http://www.w3.org/1999/02/22-rdf-syntax-ns#"
   xmlns:svg="http://www.w3.org/2000/svg"
   xmlns="http://www.w3.org/2000/svg"
   xmlns:sodipodi="http://sodipodi.sourceforge.net/DTD/sodipodi-0.dtd"
   xmlns:inkscape="http://www.inkscape.org/namespaces/inkscape"
   width="744.09448819"
   height="1052.3622047"
   id="svg2"
   version="1.1"
   inkscape:version="0.47 r22583"
   sodipodi:docname="pI.svg"
   inkscape:export-filename="/home/joshua/workspace/HurryUpHedgeHog2/src/images/pI6.png"
   inkscape:export-xdpi="93.177147"
   inkscape:export-ydpi="93.177147">
  <defs
     id="defs4">
    <inkscape:perspective
       sodipodi:type="inkscape:persp3d"
       inkscape:vp_x="0 : 526.18109 : 1"
       inkscape:vp_y="0 : 1000 : 0"
       inkscape:vp_z="744.09448 : 526.18109 : 1"
       inkscape:persp3d-origin="372.04724 : 350.78739 : 1"
       id="perspective10" />
  </defs>
  <sodipodi:namedview
     id="base"
     pagecolor="#ffffff"
     bordercolor="#666666"
     borderopacity="1.0"
     inkscape:pageopacity="0.0"
     inkscape:pageshadow="2"
     inkscape:zoom="8"
     inkscape:cx="46.947197"
     inkscape:cy="862.09004"
     inkscape:document-units="px"
     inkscape:current-layer="layer1"
     showgrid="false"
     showguides="true"
     inkscape:guide-bbox="true"
     inkscape:window-width="1600"
     inkscape:window-height="850"
     inkscape:window-x="0"
     inkscape:window-y="25"
     inkscape:window-maximized="1" />
  <metadata
     id="metadata7">
    <rdf:RDF>
      <cc:Work
         rdf:about="">
        <dc:format>image/svg+xml</dc:format>
        <dc:type
           rdf:resource="http://purl.org/dc/dcmitype/StillImage" />
        <dc:title></dc:title>
      </cc:Work>
    </rdf:RDF>
  </metadata>
  <g
     inkscape:label="Layer 1"
     inkscape:groupmode="layer"
     id="layer1">
    <g
       id="g3621">
      <path
         id="path2820"
         d="m 41.625,206.86218 c -0.875,1.375 -1.875,1.5 -4,3.75 -2.125,2.25 -3.875,5.625 -4.375,6.75 -0.5,1.125 2.375,-1.25 3.5,-2.375 1.125,-1.125 5,-7 8.25,-4.75 3.25,2.25 0.75,1.375 7.5,2.25 6.75,0.875 9.375,-0.125 11.375,-0.75 2,-0.625 0,-4 -0.875,-4.625 -0.875,-0.625 0.125,3.375 -1,3.875 -1.125,0.5 -15.125,-0.125 -5.375,-2 9.75,-1.875 -1.375,-19.25 0.5,-18.75 1.875,0.5 4.875,-1 4.875,-1 0,0 12.5,-5.75 7.125,-5.125 -5.375,0.625 -7.875,-1.125 -7.875,-1.125 1.625,-3.125 0.875,-2.875 -0.375,-3.75 -1.25,-0.875 0.375,-2.625 2.375,-2.125 2,0.5 3.75,4 3.75,4 0,0 -0.375,-4.25 -1.625,-5.5 -1.25,-1.25 -3.375,-3 -5.375,-1.625 -2,1.375 -3.125,2.5 -3.125,2.5 0,0 0.25,-4.5 1.875,-5.25 1.625,-0.75 1.125,-0.875 1.125,-0.875 0,0 -3.625,0.125 -6,3.625 -2.375,3.5 -2.625,3.5 -2.625,3.5 0,0 -0.625,-3.25 1.125,-5.125 1.75,-1.875 1.875,-2 1.875,-2 0,0 -6.125,0.875 -7.125,3.875 -1,3 -0.75,4.5 -0.75,4.5 0,0 0,-5.75 -3,-6.75 -3,-1 -6.875,-0.75 -6.875,-0.75 0,0 5.75,0.5 6.125,3.625 0.375,3.125 -0.375,5.375 -0.375,5.375 0,0 -2.375,-8.75 -9.25,-7.125 -6.875,1.625 -5.625,3.625 -5.625,3.625 0,0 5.25,-1.875 7,0.375 1.75,2.25 4.75,2.125 4.75,5.75 0,3.625 0,1.5 0,1.5 0,0 -4.625,-6 -8.625,-4 -4,2 -3.625,3.875 -3.625,3.875 0,0 3.75,-3.625 8.625,1 4.875,4.625 4.125,3.25 4.125,3.25 0,0 -6.375,-4.375 -9.375,-2.5 -3,1.875 -3.125,3.375 -3.125,3.375 0,0 6.125,-2.375 8.875,0.125 2.75,2.5 3.375,3.125 3.375,3.125 0,0 0.75,1.25 -0.875,0.125 -1.625,-1.125 -5.75,-3.625 -8.5,-1.25 -2.75,2.375 -3,4.5 -3,4.5 0,0 4.75,-4.375 11.375,1 6.625,5.375 1.875,1.375 1.875,1.375 0,0 -3.625,-2 -7.375,0.625 -3.75,2.625 -5,7.875 -5,8.25 0,0.375 4,-6.75 7.875,-4.625 3.875,2.125 4.375,2.375 4.375,2.375 0,0 -6.375,-1.5 -9.125,2.875 -2.75,4.375 -2.25,3.875 -2.25,3.875 0,0 3.75,-5.125 8.5,-4.25 4.75,0.875 3.5,0.125 3.5,0.125"
         style="fill:none;stroke:#000000;stroke-width:1px;stroke-linecap:butt;stroke-linejoin:miter;stroke-opacity:1" />
      <path
         d="m 72.75,183.54968 a 1.25,1.3125 0 1 1 -2.5,0 1.25,1.3125 0 1 1 2.5,0 z"
         sodipodi:ry="1.3125"
         sodipodi:rx="1.25"
         sodipodi:cy="183.54968"
         sodipodi:cx="71.5"
         id="path3596"
         style="fill:#000000"
         sodipodi:type="arc" />
      <path
         transform="translate(6.125,-4.875)"
         d="m 55.25,186.17468 a 2.25,1.1875 0 1 1 -4.5,0 2.25,1.1875 0 1 1 4.5,0 z"
         sodipodi:ry="1.1875"
         sodipodi:rx="2.25"
         sodipodi:cy="186.17468"
         sodipodi:cx="53"
         id="path3600"
         style="fill:#ffffff;stroke:#000000;stroke-opacity:1"
         sodipodi:type="arc" />
      <path
         transform="translate(0.875,0.75)"
         d="m 59.5,180.48718 a 0.625,0.625 0 1 1 -1.25,0 0.625,0.625 0 1 1 1.25,0 z"
         sodipodi:ry="0.625"
         sodipodi:rx="0.625"
         sodipodi:cy="180.48718"
         sodipodi:cx="58.875"
         id="path3598"
         style="fill:#000000"
         sodipodi:type="arc" />
      <path
         id="path3602"
         d="m 62.25,188.48718 c -0.402369,0 0.213388,0.0295 -0.25,-0.125 -0.07906,-0.0264 -0.170943,0.0264 -0.25,0 -0.0559,-0.0186 -0.0691,-0.10636 -0.125,-0.125 -0.07906,-0.0264 -0.169155,0.0202 -0.25,0 -0.09039,-0.0226 -0.15864,-0.10673 -0.25,-0.125 -0.114531,-0.0229 -0.752624,0 -0.875,0 -0.08333,0 -0.169155,0.0202 -0.25,0 -0.649071,-0.16227 0.133443,-0.125 -0.5,-0.125 -0.166667,0 -0.333333,0 -0.5,0 -0.08333,0 -0.166667,0 -0.25,0 -0.04167,0 -0.08547,0.0132 -0.125,0 -0.08839,-0.0295 -0.161612,-0.0955 -0.25,-0.125 -0.132826,-0.0443 -0.367173,0.0443 -0.5,0 -0.0559,-0.0186 -0.0691,-0.10636 -0.125,-0.125 -0.07906,-0.0264 -0.169155,0.0202 -0.25,0 -0.52297,0.22636 -0.144591,-0.19729 -0.25,-0.25 -0.07454,-0.0373 -0.170943,0.0264 -0.25,0 -0.111803,-0.0373 -0.144591,-0.19729 -0.25,-0.25 -0.03727,-0.0186 -0.09554,0.0295 -0.125,0 -0.02946,-0.0295 0.03727,-0.10636 0,-0.125 -0.07454,-0.0373 -0.170943,0.0264 -0.25,0 -0.0559,-0.0186 -0.07229,-0.0986 -0.125,-0.125 -0.03727,-0.0186 -0.08773,0.0186 -0.125,0 -0.105409,-0.0527 -0.144591,-0.19729 -0.25,-0.25 -0.03727,-0.0186 -0.08773,0.0186 -0.125,0 -0.05271,-0.0264 -0.07229,-0.0986 -0.125,-0.125 -0.03727,-0.0186 -0.08773,0.0186 -0.125,0 -0.05271,-0.0264 -0.08333,-0.0833 -0.125,-0.125 -0.04167,-0.0417 -0.08333,-0.0833 -0.125,-0.125"
         style="fill:none;stroke:#000000;stroke-width:1px;stroke-linecap:butt;stroke-linejoin:miter;stroke-opacity:1" />
      <path
         id="path3604"
         d="m 58.150443,190.26602 c 0,0 -3.84648,-0.62364 -5.929992,2.86876 -2.083509,3.4924 1.121891,16.71363 1.121891,16.71363"
         style="fill:none;stroke:#000000;stroke-width:1.13109505px;stroke-linecap:butt;stroke-linejoin:miter;stroke-opacity:1" />
      <path
         sodipodi:nodetypes="ccccccccc"
         id="path3606"
         d="m 54.358345,196.71154 c 4.485862,3.9944 6.438849,3.08788 6.438849,3.08788 l -0.10074,0.074 -2.230553,0.55304 2.795918,0.42758 -3.353037,0.29197 1.862605,1.2684 -2.392984,-0.54684 -3.478527,-4.73449"
         style="fill:none;stroke:#000000;stroke-width:1px;stroke-linecap:butt;stroke-linejoin:miter;stroke-opacity:1" />
      <path
         sodipodi:nodetypes="cscc"
         id="path3608"
         d="m 55.036611,209.27379 c 6.25,0 5.631282,1.36872 5.756282,0.49372 0.125,-0.875 0,-4.25 0,-4.25 l 1.75,1.875"
         style="fill:none;stroke:#000000;stroke-width:1px;stroke-linecap:butt;stroke-linejoin:miter;stroke-opacity:1" />
    </g>
    <g
       id="g3641"
       style="fill:#ffff00;fill-opacity:1">
      <path
         id="path3631"
         d="m 34.330389,216.32128 c 0,-0.11393 1.006514,-1.83807 1.578021,-2.70312 0.810916,-1.22743 1.573932,-2.1742 2.48271,-3.08062 0.657228,-0.65552 2.121346,-1.89668 2.721327,-2.30692 0.221736,-0.15161 0.81934,-0.90496 0.81934,-1.03287 0,-0.0854 -0.560843,-0.54613 -0.664758,-0.54613 -0.03181,0 -0.226209,0.18598 -0.432002,0.41328 l -0.374169,0.41329 -1.098594,-0.15033 c -0.604226,-0.0827 -1.496341,-0.21275 -1.982477,-0.28905 -1.969207,-0.30906 -3.958336,0.16352 -5.744466,1.3648 -0.291254,0.19589 -0.544018,0.34169 -0.561698,0.32401 -0.07166,-0.0717 0.829938,-1.30125 1.225357,-1.67112 0.828302,-0.77478 1.704568,-1.23535 2.977671,-1.56506 0.646217,-0.16736 1.015818,-0.20203 2.191524,-0.20557 0.777817,-0.002 1.675674,0.028 1.995237,0.0674 l 0.581023,0.0717 0.12268,-0.38101 c 0.06747,-0.20956 0.124212,-0.41081 0.126083,-0.44723 0.0049,-0.0953 -4.466564,-2.50604 -4.967849,-2.67835 -0.84241,-0.28956 -2.13045,-0.14148 -3.116768,0.35833 -0.669391,0.3392 -1.773295,1.20809 -2.410004,1.89693 -0.329192,0.35614 -0.616123,0.62994 -0.637625,0.60844 -0.06781,-0.0678 0.921639,-1.94378 1.426545,-2.70468 1.006638,-1.51702 2.690526,-2.98469 3.977558,-3.46683 1.409564,-0.52804 2.742112,-0.61608 4.156583,-0.27464 0.76876,0.18558 0.854925,0.23116 1.635185,0.86501 1.26271,1.02578 1.175348,0.98933 1.535185,0.64056 0.167719,-0.16256 0.304944,-0.32535 0.304944,-0.36175 0,-0.0915 -1.726164,-1.57851 -1.832377,-1.57851 -0.04723,0 -0.556482,-0.37813 -1.13167,-0.84028 -1.350408,-1.08503 -2.174637,-1.63228 -3.267332,-2.16939 -2.488459,-1.22318 -4.876864,-1.37192 -7.243169,-0.45105 -0.386338,0.15034 -0.715801,0.25999 -0.73214,0.24365 -0.01634,-0.0163 0.179303,-0.34328 0.434762,-0.72652 0.663109,-0.9948 1.959914,-2.24965 2.702841,-2.61539 0.574005,-0.28258 0.623807,-0.29108 1.698061,-0.28977 1.024704,0.001 1.168935,0.0231 1.946402,0.29532 0.91358,0.31984 2.36675,1.05049 3.164606,1.59115 1.162879,0.78801 1.718631,0.91733 1.987342,0.46245 0.148622,-0.2516 0.14468,-0.32039 -0.04778,-0.83365 -0.104946,-0.27988 -3.382695,-3.3496 -4.087703,-3.82827 -0.243068,-0.16503 -0.760139,-0.40505 -1.149048,-0.53337 -0.604809,-0.19955 -0.902349,-0.23897 -2.056667,-0.27252 -1.423568,-0.0414 -2.422567,0.0725 -3.799257,0.43311 -0.364122,0.0954 -0.679736,0.15571 -0.701365,0.13408 -0.02163,-0.0216 0.233693,-0.31181 0.567384,-0.64484 0.680534,-0.67919 1.72256,-1.42467 2.321788,-1.66104 0.560431,-0.22107 1.695185,-0.21034 2.671256,0.0253 1.592844,0.38448 3.635975,1.32447 4.576589,2.10557 0.315988,0.26241 0.768907,0.5741 1.006486,0.69266 l 0.431963,0.21556 0.253047,-0.18019 c 0.139176,-0.0991 0.253048,-0.25444 0.253048,-0.34519 0,-0.39729 -0.184744,-0.58976 -1.07863,-1.12371 -0.689721,-0.41199 -1.283461,-0.88362 -2.373378,-1.88525 -1.665675,-1.53075 -2.400447,-2.08633 -3.398089,-2.56938 -1.563185,-0.75687 -3.265443,-0.90056 -4.724247,-0.39877 -0.36211,0.12455 -0.677464,0.20738 -0.700785,0.18406 -0.08407,-0.0841 0.849481,-0.89716 1.627869,-1.41782 1.133605,-0.75825 1.850548,-1.02772 2.720188,-1.02239 0.379936,0.002 0.914816,0.0694 1.188622,0.14895 1.581864,0.45986 3.404156,1.81928 5.15156,3.84303 l 1.012365,1.17247 0.02696,-1.27179 c 0.06925,-3.26611 -0.395494,-4.29231 -2.590227,-5.71948 -1.132028,-0.73612 -1.527983,-1.05421 -2.342291,-1.88166 -0.713881,-0.7254 -1.206678,-0.98111 -2.209709,-1.14662 -0.972479,-0.16046 -2.503517,-0.0527 -3.866885,0.27208 -0.376391,0.0897 -0.704408,0.14239 -0.728925,0.11715 -0.02452,-0.0252 0.150552,-0.22311 0.389044,-0.43969 0.770412,-0.69964 2.505987,-1.41701 4.692902,-1.93971 1.288828,-0.30805 2.585285,-0.27705 3.523991,0.0843 0.919637,0.35398 1.616198,0.81675 2.409368,1.60071 1.250061,1.23554 2.171042,2.87649 2.948418,5.25332 0.228966,0.70006 0.440273,1.23406 0.469569,1.18666 0.111901,-0.18106 0.670375,-2.49114 0.761752,-3.15092 0.12931,-0.93368 0.115537,-3.23879 -0.02365,-3.95738 -0.187722,-0.96918 -0.751508,-1.74824 -1.718712,-2.37496 -0.252887,-0.16387 -0.446076,-0.31166 -0.429308,-0.32843 0.0504,-0.0504 1.330309,0.21358 1.994191,0.41129 0.341188,0.10161 0.790834,0.31356 0.999214,0.47101 1.021263,0.77162 1.739445,2.68369 1.973626,5.25454 l 0.05837,0.64081 0.458074,0 0.458073,0 0.01955,-0.7292 c 0.0349,-1.30167 0.476901,-3.1649 0.962396,-4.05691 0.279926,-0.51432 0.902247,-1.07837 1.665252,-1.50934 0.916394,-0.51761 3.068391,-1.31485 3.198356,-1.18489 0.02696,0.027 -0.215213,0.33441 -0.538165,0.68323 -0.62276,0.67264 -1.00654,1.36601 -1.242672,2.24511 -0.206844,0.77007 -0.269516,2.23644 -0.140573,3.28905 l 0.10976,0.896 0.430855,-0.30954 c 0.466345,-0.33504 1.129051,-1.15071 2.286956,-2.81485 1.074657,-1.54449 1.637828,-2.20817 2.339841,-2.75746 0.561738,-0.43953 1.818394,-1.16004 1.818394,-1.04259 0,0.0259 -0.09491,0.19741 -0.210912,0.38117 -0.525241,0.83203 -0.950546,2.55606 -1.142927,4.63299 l -0.110968,1.198 0.318845,-0.27798 c 0.175365,-0.15288 0.671964,-0.58896 1.103555,-0.96905 0.898888,-0.79163 2.297125,-1.85518 2.832099,-2.15418 0.554659,-0.31 1.065492,-0.34717 1.776681,-0.12927 1.12731,0.34539 2.658746,1.56789 3.127594,2.49668 0.228731,0.45311 0.702926,1.8925 0.702926,2.13368 0,0.0491 -0.260371,-0.19196 -0.578603,-0.53568 -1.109242,-1.19809 -1.912802,-1.6264 -3.046026,-1.62361 -1.067667,0.003 -1.888327,0.42917 -2.35375,1.22335 -0.18736,0.31971 -0.222239,0.46975 -0.185326,0.79724 0.05983,0.53077 0.259843,0.78309 1.022762,1.29021 0.365933,0.24324 0.633137,0.48336 0.633137,0.56896 0,0.11803 -0.04936,0.10084 -0.243068,-0.0847 -1.070398,-1.02504 -3.737684,-0.94515 -4.66633,0.13976 -0.69428,0.81111 -0.229481,1.79856 1.056129,2.2437 0.605858,0.20978 2.143046,0.2088 2.69132,-0.002 0.364212,-0.13984 0.381447,-0.13951 0.321429,0.006 -0.165098,0.40091 -0.148047,0.43729 0.331938,0.70818 1.819518,1.02687 5.063081,1.4763 8.072344,1.11851 l 0.435384,-0.0518 -0.220971,0.18523 c -0.432213,0.36232 -2.361969,1.46074 -4.400203,2.50462 l -2.068407,1.05933 -0.455909,-0.19815 c -0.250749,-0.10899 -0.524974,-0.2334 -0.609389,-0.27647 -0.08441,-0.0431 -0.225614,-0.0783 -0.313778,-0.0783 -0.08816,0 -0.200047,-0.0398 -0.248627,-0.0883 -0.04858,-0.0486 -0.782425,-0.12459 -1.630765,-0.16891 -1.49755,-0.0782 -2.028573,-0.17229 -2.028573,-0.3593 0,-0.0498 -0.116644,-0.0906 -0.259208,-0.0906 -0.181582,0 -0.276012,-0.0529 -0.315316,-0.17678 -0.03245,-0.10225 -0.137436,-0.1795 -0.249024,-0.18323 -0.106104,-0.004 -0.312242,-0.0831 -0.458083,-0.17685 -0.14584,-0.0937 -0.384489,-0.22729 -0.53033,-0.29684 -0.256214,-0.12217 -0.276329,-0.11562 -0.595867,0.19406 l -0.330703,0.32049 0.190003,0.20225 c 0.104502,0.11124 0.273206,0.22813 0.374897,0.25976 0.101692,0.0316 0.329829,0.17153 0.506972,0.31088 0.177143,0.13935 0.371732,0.25337 0.43242,0.25337 0.06069,0 0.23395,0.12379 0.385028,0.27508 0.218816,0.21914 0.364577,0.28181 0.716629,0.30811 0.243068,0.0182 0.859577,0.0765 1.370019,0.12971 0.510443,0.0532 1.166727,0.1146 1.458408,0.13649 0.708778,0.0532 0.946036,0.1107 0.882282,0.21386 -0.02916,0.0472 -0.003,0.0858 0.05826,0.0858 0.234724,0 -0.07812,0.17392 -0.772309,0.42935 -0.963121,0.35438 -2.219861,0.60378 -2.356079,0.46756 -0.223493,-0.22349 -1.737866,-0.0895 -2.867022,0.25361 -1.493142,0.45375 -2.861543,1.56103 -3.595339,2.90925 -0.571643,1.0503 -0.834187,3.22378 -0.681476,5.64164 0.174358,2.76062 0.711198,6.45041 1.389768,9.55213 0.177303,0.81044 0.3172,1.64648 0.310882,1.85786 -0.01539,0.51502 0.10106,0.70059 0.564227,0.89913 0.963048,0.41281 3.582383,0.70435 6.333255,0.70492 2.022645,4.4e-4 2.566289,-0.0853 2.91631,-0.46004 0.34147,-0.36554 0.432408,-0.74504 0.488023,-2.03657 0.02669,-0.61982 0.07462,-1.12695 0.10651,-1.12695 0.03189,0 0.189871,0.21761 0.351069,0.48359 0.711108,1.17332 0.942983,2.30126 0.54014,2.62746 -0.236059,0.19115 -1.702548,0.65251 -2.784614,0.87604 -2.343763,0.48417 -5.186583,0.45878 -9.987884,-0.0892 -1.750089,-0.19974 -3.359106,-0.40537 -3.575593,-0.45695 -0.264535,-0.063 -0.726839,-0.34069 -1.409761,-0.84673 -1.565812,-1.16026 -1.716286,-1.22419 -2.881209,-1.22419 -0.941574,0 -0.994424,0.0105 -1.673897,0.33338 -0.385894,0.18336 -0.922853,0.49859 -1.193243,0.70052 -0.687372,0.51333 -1.916853,1.72214 -2.814113,2.7668 -1.04606,1.21789 -1.800721,1.99075 -2.59601,2.6586 -0.646522,0.54293 -0.782542,0.63236 -0.782542,0.51451 z"
         style="fill:#ffff00;fill-opacity:1;stroke:none" />
      <path
         id="path3633"
         d="m 56.515864,210.53107 c -1.203234,-0.11938 -2.167732,-0.26334 -2.296196,-0.34274 -0.08034,-0.0497 0.07964,-0.13571 0.491952,-0.26464 0.540218,-0.16893 0.733877,-0.18455 1.671661,-0.13487 2.018004,0.10692 3.27032,0.31449 4.059284,0.67283 l 0.360134,0.16357 -1.767767,-0.01 c -0.972272,-0.005 -2.105853,-0.0433 -2.519068,-0.0843 l 0,0 z"
         style="fill:#ffff00;fill-opacity:1;stroke:none" />
      <path
         id="path3635"
         d="m 61.111886,210.29895 c 0.158226,-0.29522 0.176949,-0.4985 0.176949,-1.92128 l 0,-1.59114 0.40758,0.40758 0.407581,0.40758 -0.01329,1.09386 c -0.02014,1.65678 -0.140436,1.93355 -0.840422,1.93355 l -0.315342,0 0.176948,-0.33015 0,0 z"
         style="fill:#ffff00;fill-opacity:1;stroke:none" />
      <path
         id="path3637"
         d="m 56.548074,199.92237 c -1.080392,-1.46502 -1.285613,-1.75603 -1.238351,-1.75603 0.02549,0 0.34593,0.21494 0.712083,0.47764 0.366152,0.2627 1.044558,0.6704 1.507568,0.90598 0.837466,0.42612 0.841839,0.43006 0.842241,0.7598 3.54e-4,0.28951 -0.026,0.33145 -0.20823,0.33145 -0.114749,0 -0.387755,0.0246 -0.606681,0.0546 l -0.398047,0.0546 -0.610583,-0.82796 0,0 z"
         style="fill:#ffff00;fill-opacity:1;stroke:none" />
    </g>
    <path
       style="fill:#ffff00;fill-opacity:0.78431373999999998;stroke:none"
       d="m 53.729592,209.09949 c -0.230214,-0.65835 -1.08465,-5.52977 -1.38279,-7.88375 -0.269149,-2.12507 -0.294291,-5.63508 -0.04788,-6.6845 0.358917,-1.52858 1.617192,-2.87698 3.177209,-3.40477 0.894272,-0.30255 1.011971,-0.28578 1.132376,0.16137 0.0547,0.20314 0.498314,1.38644 0.98581,2.62955 0.897091,2.28759 1.835795,4.96381 1.837457,5.23856 8.45e-4,0.13964 -0.03105,0.13892 -0.465118,-0.0104 -0.972029,-0.33443 -2.172707,-1.0588 -3.365724,-2.03056 -0.996971,-0.81207 -0.902346,-0.77616 -1.178961,-0.44742 -0.133132,0.15822 -0.39034,0.39508 -0.571573,0.52637 l -0.329515,0.2387 1.784754,2.43041 1.784753,2.43042 1.237437,0.27925 c 0.68059,0.15359 1.263978,0.27902 1.296418,0.27874 0.03244,-2.7e-4 0.128041,-0.18135 0.212449,-0.40237 0.09953,-0.26061 0.183711,-0.3716 0.239515,-0.3158 0.129721,0.12972 0.118227,2.44627 -0.01518,3.05994 -0.174709,0.80365 -0.598691,1.61706 -1.108716,2.12709 -0.683401,0.6834 -1.486741,1.01537 -3.408716,1.40861 -0.315988,0.0647 -0.845099,0.19824 -1.175803,0.29686 -0.441886,0.13177 -0.611065,0.15131 -0.638197,0.0737 l 0,0 z"
       id="path3639"
       inkscape:export-filename="/home/joshua/workspace/HurryUpHedgeHog2/src/images/pI5.png"
       inkscape:export-xdpi="93.177147"
       inkscape:export-ydpi="93.177147" />
  </g>
</svg>
