<?xml version="1.0" encoding="UTF-8" standalone="no"?>
<!-- Created with Inkscape (http://www.inkscape.org/) -->

<svg
   xmlns:dc="http://purl.org/dc/elements/1.1/"
   xmlns:cc="http://creativecommons.org/ns#"
   xmlns:rdf="http://www.w3.org/1999/02/22-rdf-syntax-ns#"
   xmlns:svg="http://www.w3.org/2000/svg"
   xmlns="http://www.w3.org/2000/svg"
   xmlns:sodipodi="http://sodipodi.sourceforge.net/DTD/sodipodi-0.dtd"
   xmlns:inkscape="http://www.inkscape.org/namespaces/inkscape"
   width="744.09448819"
   height="1052.3622047"
   id="svg2888"
   version="1.1"
   inkscape:version="0.47 r22583"
   sodipodi:docname="standardEnabledCell.svg">
  <defs
     id="defs2890">
    <inkscape:perspective
       sodipodi:type="inkscape:persp3d"
       inkscape:vp_x="0 : 526.18109 : 1"
       inkscape:vp_y="0 : 1000 : 0"
       inkscape:vp_z="744.09448 : 526.18109 : 1"
       inkscape:persp3d-origin="372.04724 : 350.78739 : 1"
       id="perspective2896" />
  </defs>
  <sodipodi:namedview
     id="base"
     pagecolor="#ffffff"
     bordercolor="#666666"
     borderopacity="1.0"
     inkscape:pageopacity="0.0"
     inkscape:pageshadow="2"
     inkscape:zoom="1"
     inkscape:cx="225"
     inkscape:cy="857.77467"
     inkscape:document-units="px"
     inkscape:current-layer="layer1"
     showgrid="false"
     inkscape:window-width="1600"
     inkscape:window-height="850"
     inkscape:window-x="0"
     inkscape:window-y="25"
     inkscape:window-maximized="1" />
  <metadata
     id="metadata2893">
    <rdf:RDF>
      <cc:Work
         rdf:about="">
        <dc:format>image/svg+xml</dc:format>
        <dc:type
           rdf:resource="http://purl.org/dc/dcmitype/StillImage" />
        <dc:title></dc:title>
      </cc:Work>
    </rdf:RDF>
  </metadata>
  <g
     inkscape:label="Layer 1"
     inkscape:groupmode="layer"
     id="layer1">
    <rect
       style="fill:#008000;fill-opacity:0;stroke:#007800;stroke-opacity:1;opacity:0.79039300999999984;stroke-width:8.5;stroke-miterlimit:4;stroke-dasharray:none"
       id="rect2898"
       width="100"
       height="100"
       x="174.28572"
       y="126.6479" />
    <path
       style="opacity:1;fill:#552200;fill-opacity:0;stroke:#552200;stroke-width:3.70000000000000018;stroke-miterlimit:4;stroke-opacity:1;stroke-dasharray:none"
       id="path3849"
       d="m 179.06052,130.77656 c 0.37905,0.44023 0.72796,0.90245 1.05525,1.382 0.31713,0.38502 0.46279,0.85111 0.60334,1.31907 0.13306,0.41667 0.18194,0.85289 0.20702,1.28762 0.0217,0.49434 -0.14283,0.95201 -0.31326,1.40697 -0.21173,0.4382 -0.4199,0.87689 -0.67242,1.29329 -0.32067,0.51174 -0.643,1.02369 -0.88055,1.58016 -0.21038,0.53502 -0.14934,1.10756 -0.0763,1.66299 0.1682,0.61445 0.34868,1.22706 0.53976,1.83508 0.2006,0.60852 0.28113,1.24398 0.32461,1.8803 0.0345,0.66568 -0.11921,1.29666 -0.3527,1.91358 -0.22879,0.55322 -0.46947,1.10091 -0.69395,1.65588 -0.1565,0.37432 -0.26813,0.76583 -0.37764,1.156 -0.1159,0.34905 -0.0313,0.65772 0.10601,0.98208 0.20053,0.34742 0.33961,0.71353 0.40942,1.10768 0.0723,0.40363 0.0943,0.80816 0.0889,1.21738 -0.0146,0.36463 -0.005,0.73037 -0.0361,1.09401 -0.0858,0.52622 -0.32344,0.99543 -0.60411,1.44157 -0.38209,0.51517 -0.79415,1.00099 -1.02777,1.60383 -0.18082,0.62215 0.1206,1.10037 0.43496,1.61234 0.38672,0.63254 0.70347,1.30114 1.00512,1.97689 0.24185,0.54867 0.31335,1.1392 0.34998,1.73111 0.0421,0.54554 0.0492,1.07848 -0.10537,1.60614 -0.23953,0.54533 -0.53259,1.06829 -0.86519,1.56229 -0.33992,0.44742 -0.58619,0.94917 -0.77595,1.47556 -0.16815,0.4005 -0.0314,0.72187 0.13398,1.09117 0.25814,0.44646 0.56168,0.87112 0.8765,1.28069 0.27436,0.37439 0.53017,0.76244 0.77597,1.15608 0.20149,0.35573 0.30608,0.75568 0.39551,1.1518 0.1212,0.47884 0.0657,0.96126 -0.0284,1.43846 -0.0995,0.47851 -0.36498,0.88582 -0.63603,1.28268 -0.24851,0.30149 -0.44898,0.61891 -0.55486,0.99578 -0.10693,0.37267 -0.0375,0.66562 0.16176,0.98645 0.32944,0.41653 0.66184,0.83192 1.01004,1.23325 0.35397,0.41935 0.64371,0.88105 0.84293,1.39186 0.14104,0.46874 0.20949,0.95863 0.19569,1.44765 -0.027,0.45168 -0.21202,0.86308 -0.44642,1.24256 -0.2561,0.32061 -0.50926,0.63241 -0.71013,0.99165 -0.17383,0.30502 -0.18125,0.62183 -0.12081,0.95827 0.13344,0.44586 0.33837,0.87787 0.54755,1.29413 0.20816,0.45401 0.45813,0.88067 0.72316,1.30271 0.28828,0.41486 0.52138,0.86149 0.68778,1.33793 0.16164,0.48462 0.19134,0.9915 0.20959,1.49741 0.0522,0.56555 -0.0401,1.10036 -0.2337,1.62961 -0.1858,0.45541 -0.38521,0.904 -0.54043,1.37095 -0.13397,0.47975 -0.29203,0.95492 -0.34889,1.45106 -0.003,0.60876 0.32574,1.14466 0.61336,1.66129 0.19853,0.4223 0.44442,0.84414 0.56918,1.29777 0.0701,0.25483 0.0859,0.48073 0.11567,0.74137 0.0528,0.76822 -0.17905,1.4735 -0.51971,2.14861 -0.23708,0.47312 -0.52308,0.91816 -0.71706,1.41174 -0.10534,0.36489 -0.19465,0.73644 -0.26607,1.10977 -0.0576,0.39166 0.0962,0.73136 0.28748,1.06194 0.26432,0.3829 0.54232,0.75261 0.70625,1.1908 0.17251,0.48944 0.0384,0.97604 -0.12304,1.44807 -0.23126,0.58698 -0.55727,1.11969 -0.95702,1.60501 -0.48301,0.50108 -0.88721,1.05728 -1.21529,1.66909 -0.22198,0.40195 -0.34577,0.82277 -0.29738,1.28095 0.0992,0.51138 0.2489,1.00827 0.335,1.52243 0.14935,0.63009 0.21367,1.27147 0.25083,1.91634 0.0634,0.69136 -0.007,1.3801 -0.0597,2.06902 -0.0555,0.61762 -0.0744,1.23465 -0.0281,1.85291 0.0471,0.54154 0.32146,0.98217 0.61324,1.42222 0.36344,0.52173 0.42449,1.08749 0.38719,1.70384 -0.0918,0.53324 -0.21671,1.0571 -0.28041,1.59528 -0.0506,0.59248 -0.0743,1.18903 -0.0464,1.78318 0.0648,0.61315 0.41484,0.78288 0.96407,0.92499 1.25924,0.18246 2.54492,0.14274 3.80164,-0.0357 0.73374,-0.0706 1.41374,-0.34216 2.10465,-0.57319 0.18038,-0.10634 0.39234,-0.13989 0.58252,-0.21923 0.12388,-0.0517 0.27146,-0.15115 0.3833,-0.2213 -0.65844,0.37738 -1.31688,0.75475 -1.97532,1.13213 0.75229,-0.52998 1.50536,-1.05877 2.27699,-1.56039 1.08281,-0.6329 2.29626,-1.67591 3.67816,-1.61819 0.28937,0.0121 0.64361,0.0918 0.92321,0.14534 1.04369,0.3073 2.03528,0.7606 2.99992,1.25832 0.73613,0.39287 1.46643,0.79383 2.21229,1.16768 0.84859,0.41669 1.75347,0.37189 2.65137,0.16587 0.15444,-0.0583 0.31101,-0.11117 0.46332,-0.17482 0.14924,-0.0624 0.29616,-0.13048 0.44075,-0.20299 0.13509,-0.0678 0.52897,-0.29262 0.39779,-0.21757 -3.37837,1.93284 -1.9147,1.12641 -1.19075,0.60142 0.99053,-0.79949 2.08882,-1.34653 3.22805,-1.96191 0.16657,-0.09 0.36304,-0.10769 0.54324,-0.16573 0.75158,-0.20054 1.52552,-0.27722 2.28992,-0.41189 1.19371,-0.25373 2.38257,-0.52554 3.58946,-0.70983 0.82774,-0.13817 1.54422,0.1551 2.24524,0.55453 0.57238,0.34659 1.1493,0.67437 1.76419,0.94091 0.78859,0.29446 1.60009,0.51839 2.42693,0.67351 1.41363,0.15772 2.8185,-0.0811 4.1981,-0.37038 0.89405,-0.22544 1.807,-0.38719 2.69796,-0.6248 0.30994,-0.0827 0.61307,-0.18924 0.92187,-0.27609 0.76887,-0.1894 1.54647,-0.34871 2.33216,-0.44922 0.65998,-0.0793 1.31979,-0.0792 1.98009,-0.0171 0.65359,0.0467 1.26227,0.31518 1.89395,0.47068 0.77596,0.2623 1.40414,0.30822 2.21724,0.23195 0.19429,-0.0319 0.38885,-0.0621 0.58286,-0.0956 0.1956,-0.0338 0.39246,-0.0618 0.58592,-0.10625 0.62677,-0.14391 1.12836,-0.3718 1.77981,-0.44747 0.84065,0.007 1.57827,0.47049 2.30953,0.83401 1.06177,0.55892 2.12249,1.12264 3.2749,1.47599 0.2889,0.0886 0.58423,0.15465 0.87634,0.23197 1.36724,0.27752 2.76207,0.46318 4.15942,0.47395 0.90362,0.007 1.34574,-0.0486 2.23892,-0.12138 2.03474,-0.28623 3.85882,-1.26952 5.65442,-2.20925 0.7862,-0.25532 1.42515,-0.98535 2.27412,-1.06013 0.10685,-0.009 0.21445,0.006 0.32167,0.009 0.61763,0.0778 1.13536,0.39344 1.66596,0.69178 0.57168,0.21643 1.06649,0.0153 1.60478,-0.17458 0.38408,-0.082 0.72782,-0.45519 1.11918,-0.50252 0.0766,-0.009 0.15388,0.0116 0.23082,0.0175 0.38899,0.12088 0.74243,0.3296 1.12813,0.45805 0.1213,0.0404 0.81038,0.22889 0.91618,0.25812 0.44466,0.0918 0.88883,0.24411 1.34824,0.24706 0.36769,0.002 0.74826,-0.0947 1.10705,-0.16408 0.44204,-0.0585 0.89859,-0.20127 1.34949,-0.145 0.38501,0.048 0.56173,0.15506 0.93067,0.30799 1.06708,0.41162 2.14071,0.79392 3.1817,1.26928 0.26739,0.0901 0.55266,0.26381 0.84834,0.19179 0.0747,-0.0182 0.27542,-0.13692 0.20824,-0.0995 -2.16657,1.20809 -2.5872,1.62439 -1.79005,0.89879 0.49678,-0.53532 0.95111,-1.16348 1.04595,-1.90387 -0.01,-0.0605 -0.008,-0.12401 -0.03,-0.18138 -0.10661,-0.28396 -0.71187,-0.50294 -0.96978,-0.59798 -0.67824,-0.18864 -1.2569,-0.51593 -1.73283,-1.03375 -0.41688,-0.6117 -0.52507,-1.12045 -0.31194,-1.83099 0.25372,-0.58764 0.64382,-1.10524 1.0092,-1.6274 0.29808,-0.41706 0.43045,-0.89232 0.49291,-1.39313 0.0483,-0.55931 -0.0371,-1.12341 -0.0981,-1.67953 -0.18996,-0.95313 -0.58683,-1.84276 -0.89367,-2.76002 -0.28241,-0.80806 -0.53983,-1.62121 -0.75865,-2.44861 -0.29835,-0.92734 -0.25108,-1.85823 -0.12326,-2.80935 0.42806,-1.92056 1.00712,-3.80272 1.47495,-5.71346 0.30335,-1.39954 0.56006,-2.85009 0.2579,-4.26881 -0.15447,-0.5553 -0.37419,-1.08915 -0.47567,-1.65797 -0.0695,-0.53527 -0.13191,-1.07166 -0.20225,-1.6069 -0.14662,-0.59361 -0.439,-1.13521 -0.77253,-1.6428 -0.35154,-0.46895 -0.6849,-0.94094 -0.93762,-1.47197 -0.20076,-0.43432 -0.25003,-0.90232 -0.27003,-1.37379 -0.009,-0.65663 0.27629,-1.24129 0.56315,-1.81394 0.34808,-0.57056 0.66242,-1.15376 0.91141,-1.77376 0.19304,-0.40974 0.36975,-0.82464 0.49101,-1.26148 0.11207,-0.43816 0.13575,-0.89004 0.14873,-1.33994 0.0167,-0.37539 0.0146,-0.74515 -0.0816,-1.10981 -0.18356,-0.38493 -0.32191,-0.78641 -0.46446,-1.18745 -0.18946,-0.5147 -0.26465,-1.05184 -0.3015,-1.59562 -0.0497,-0.56957 -0.005,-1.13582 0.0864,-1.69815 0.0938,-0.64246 0.32458,-1.25081 0.54167,-1.85893 0.25604,-0.72259 0.53729,-1.43567 0.84613,-2.13718 0.26809,-0.59282 0.36949,-1.22992 0.4224,-1.87241 -0.0126,-0.60818 -0.0585,-1.21791 -0.12989,-1.82217 -0.094,-0.6141 -0.14609,-1.23224 -0.17893,-1.85218 -0.0193,-0.6399 -0.0359,-1.281 -0.003,-1.92056 0.0656,-0.73752 0.10988,-1.47624 0.18867,-2.2125 0.0629,-0.56367 0.10698,-1.12916 0.12786,-1.69591 0.0427,-0.49345 -0.0615,-0.96162 -0.23939,-1.4176 -0.26129,-0.601 -0.74031,-1.05864 -1.22004,-1.48896 -0.53941,-0.45503 -1.08446,-0.90055 -1.54512,-1.43696 -0.50415,-0.55887 -0.68202,-1.03873 -0.67748,-1.78301 0.047,-0.61007 0.266,-1.17819 0.55516,-1.71071 0.41113,-0.60828 0.96048,-1.10328 1.42891,-1.6682 0.46666,-0.56146 0.912,-1.14142 1.42702,-1.65999 0.37559,-0.35437 0.74827,-0.70022 0.97694,-1.16853 0.13179,-0.37839 -4e-4,-0.76678 -0.11095,-1.13423 -0.1685,-0.50697 -0.25926,-1.03272 -0.37555,-1.55291 -0.13915,-0.63981 -0.253,-1.28134 -0.30984,-1.93382 -0.0472,-0.65119 -0.0661,-1.30381 -0.0715,-1.95653 -0.007,-0.62498 0.0851,-1.24528 0.13007,-1.8677 0.0557,-0.63581 0.18899,-1.26366 0.12808,-1.90271 -0.0779,-0.48974 -0.3545,-0.84994 -0.72447,-1.15846 -0.38874,-0.26387 -0.67608,-0.59542 -0.84521,-1.03221 -0.12954,-0.43485 0.0215,-0.8683 0.16949,-1.27796 0.12144,-0.35994 0.28563,-0.7035 0.34064,-1.08151 -0.0362,-0.4827 -0.40472,-0.8153 -0.67604,-1.18187 -0.2617,-0.3847 -0.42545,-0.83137 -0.71554,-1.19647 -0.25965,-0.30372 -0.63643,-0.46374 -0.99571,-0.61883 -0.58121,-0.20724 -1.15577,0.0142 -1.70248,0.22103 -0.80102,0.37172 -1.54701,0.84666 -2.33361,1.24579 -0.68708,0.27709 -1.41718,0.19537 -2.13135,0.10276 -0.73571,-0.15047 -1.48066,-0.24037 -2.21963,-0.37151 -0.58769,-0.16583 -1.19408,-0.23434 -1.7837,-0.38965 -0.63027,-0.22873 -1.27246,-0.38739 -1.94372,-0.39993 -0.74381,-0.0397 -1.42393,0.23148 -2.1083,0.47687 -0.59109,0.32643 -1.21334,0.59136 -1.85726,0.79351 -0.29704,0.0662 -0.59945,0.19088 -0.91071,0.16629 -0.37938,-0.03 -0.76119,-0.18027 -1.11728,-0.3015 -0.72587,-0.26423 -1.42598,-0.5907 -2.1204,-0.92721 -0.65708,-0.30974 -1.37322,-0.39088 -2.08841,-0.43953 -0.83063,0.0311 -1.65988,0.13615 -2.48329,0.25027 -0.90828,0.10492 -1.77932,0.39733 -2.66995,0.59162 -0.80041,0.15967 -1.61949,0.1836 -2.43316,0.18904 -1.10095,0.001 -2.20188,-0.004 -3.30285,0.003 -0.63635,0.0338 -1.26142,-0.0444 -1.86316,-0.24932 -0.64542,-0.21704 -1.33918,-0.22909 -2.01344,-0.2581 -0.70347,-0.067 -1.3866,0.0855 -2.07214,0.21058 -0.45438,0.11223 -0.88011,-0.004 -1.32255,-0.099 -0.49351,-0.10591 -0.6979,-0.13034 -1.20878,-0.21074 -1.16239,-0.18844 -2.33199,-0.22624 -3.50551,-0.17771 -0.7414,0.0875 -1.47738,0.21104 -2.22559,0.19599 -0.74736,-0.0673 -1.46556,-0.29978 -2.18637,-0.49546 -0.93331,-0.27814 -1.87981,-0.21095 -2.82249,-0.0344 -0.88671,0.17395 -1.76271,0.40965 -2.63257,0.65419 -0.61002,0.19821 -1.20642,0.23615 -1.82564,0.0782 -0.46657,-0.0935 -0.94439,-0.23082 -1.42561,-0.20722 -0.19988,0.01 -0.55383,0.0869 -0.75052,0.12569 -0.5886,0.13202 -1.13369,0.39318 -1.71332,0.55316 -0.58707,0.0712 -1.0416,-0.30219 -1.48596,-0.62896 -0.54115,-0.37998 -0.97404,-0.56514 -1.6154,-0.34146 0.12795,-0.11035 -0.6204,0.33425 -0.4672,0.24722 0.66479,-0.37765 1.3259,-0.76178 1.9922,-1.13676 0.0898,-0.0505 -0.1734,0.11162 -0.26254,0.16337 -2.51534,1.46022 -1.5815,1.1232 -2.74991,1.52057 -0.65343,0.0346 -1.19185,-0.36803 -1.75403,-0.64309 -0.5856,-0.29997 -1.16057,-0.32862 -1.79965,-0.27474 -0.38525,-0.002 -0.74956,0.14489 -1.12757,0.19137 -0.13464,0.0166 -0.33129,0.01 -0.46797,0.008 -0.42262,-0.10065 -0.84617,-0.17123 -1.27915,-0.20571 -0.88832,0.14572 -1.71977,0.53547 -2.55927,0.85068 -0.57205,0.22361 -1.24718,0.54025 -1.85493,0.23676 -0.0847,-0.0423 -0.15687,-0.1059 -0.2353,-0.15885 -0.26932,-0.2063 -0.53934,-0.6267 -0.93248,-0.56598 -0.0745,0.0115 -0.14329,0.0468 -0.21493,0.0703 -0.5289,0.14317 -0.9516,0.53072 -1.45423,0.72637 -0.0933,0.0363 -0.19422,0.0491 -0.29133,0.0736 -0.0928,-0.009 -0.1881,-0.004 -0.27851,-0.0275 -0.41746,-0.10618 -0.93148,-0.42922 -1.33683,-0.61151 -0.0863,-0.0293 -0.16946,-0.0698 -0.25874,-0.0879 -0.81026,-0.16396 -1.96267,0.14766 -2.73226,0.38191 -0.68721,0.15736 -1.89503,0.9803 -2.59436,0.76885 -0.0908,-0.0274 -0.1638,-0.0957 -0.24571,-0.14358 -0.12872,-0.11216 -0.49458,-0.78017 -0.70405,-0.68231 -0.0434,0.0203 -0.0687,0.0667 -0.10303,0.10013 -0.38876,0.31349 -0.58046,0.10645 -0.72167,-0.29921 -0.0283,-0.0243 -0.0239,-0.35544 -0.11709,-0.3533 -0.0251,5.8e-4 -0.0369,0.0344 -0.0581,0.0477 -0.0396,0.0248 -0.0788,0.0529 -0.12363,0.066 -0.06,0.0176 -0.12407,0.0165 -0.1861,0.0247 -0.33753,0.0222 -0.6652,0.0696 -0.99534,0.13983 0,0 2.08244,-1.57543 2.08244,-1.57543 l 0,0 c 0.33293,-0.0597 0.66986,-0.0806 1.00424,-0.13081 0.4572,-0.0731 0.63642,0.0587 0.69046,0.51883 0.0148,0.0515 0.009,0.13361 0.0601,0.14923 0.12821,0.039 0.30627,-0.23983 0.44426,-0.18194 0.0642,0.007 0.13109,0.002 0.19256,0.0222 0.339,0.10978 0.45286,0.51182 0.70913,0.72109 0.0575,0.0203 0.11198,0.054 0.17258,0.061 0.70595,0.0819 1.77581,-0.6565 2.47682,-0.78152 1.00451,-0.27799 2.15784,-0.59103 3.17126,-0.19846 0.46463,0.22142 0.97261,0.57481 1.50063,0.48307 0.59943,-0.24156 1.1327,-0.64544 1.77763,-0.77165 0.0912,-0.001 0.18306,-0.0156 0.27348,-0.004 0.40778,0.0526 0.66383,0.42685 0.97618,0.64814 0.66527,0.34362 1.25829,0.007 1.90702,-0.23165 0.86531,-0.32368 1.73816,-0.76679 2.67495,-0.79398 0.4276,0.0411 0.84381,0.13893 1.27028,0.17894 0.5305,-0.0246 1.04251,-0.18407 1.57485,-0.19868 0.65531,-0.0253 1.27797,0.0778 1.86366,0.39123 0.51856,0.24828 1.0454,0.63201 1.64355,0.45775 0.91608,-0.42769 0.40452,-0.19775 -1.70451,1.01841 -0.0872,0.0503 0.17086,-0.10636 0.25767,-0.15721 0.90885,-0.53234 1.89523,-1.2868 2.96138,-1.6292 0.68556,-0.0997 1.17497,0.13872 1.72711,0.53391 0.41761,0.28848 0.84161,0.58356 1.36985,0.42322 0.56661,-0.17921 1.11871,-0.40929 1.70776,-0.51048 0.30249,-0.0439 0.47322,-0.0805 0.78366,-0.0761 0.49567,0.007 0.98171,0.13969 1.46658,0.22565 0.5927,0.10188 1.16356,0.0122 1.73629,-0.1647 0.87122,-0.22328 1.73785,-0.47248 2.62637,-0.61876 0.9744,-0.14642 1.95006,-0.17832 2.90572,0.1085 0.70841,0.18168 1.41281,0.42037 2.15064,0.43809 0.74112,-0.0216 1.47132,-0.14568 2.21071,-0.19299 1.17143,-0.019 2.33643,0.0691 3.49589,0.24102 0.83889,0.12445 1.69574,0.36793 2.54304,0.19623 0.68912,-0.12567 1.38373,-0.20643 2.08592,-0.14759 0.6987,0.0367 1.41363,0.0589 2.08035,0.29244 0.57923,0.16689 1.17194,0.23528 1.77598,0.21506 1.10156,0.0102 2.20325,0.0131 3.30467,-0.0111 0.80762,-0.0283 1.61971,-0.055 2.41097,-0.23629 0.88645,-0.20435 1.76271,-0.46966 2.67081,-0.56403 0.83989,-0.10761 1.6835,-0.25093 2.53266,-0.2197 0.74058,0.0645 1.47375,0.1796 2.14713,0.51528 0.68494,0.32806 1.36961,0.66426 2.09221,0.90302 0.73751,0.22082 1.20915,0.26998 1.94012,-0.003 0.63566,-0.22741 1.24095,-0.51966 1.85508,-0.79775 0.70112,-0.2477 1.41367,-0.45045 2.16727,-0.39574 0.68192,0.0504 1.33041,0.2227 1.97868,0.43642 0.58968,0.1337 1.18867,0.22269 1.77395,0.37751 0.73231,0.13719 1.47123,0.23522 2.2054,0.36194 0.69283,0.0748 1.39001,0.10385 2.03102,-0.22004 0.77825,-0.41616 1.5351,-0.87889 2.35289,-1.21536 0.61243,-0.20335 1.23359,-0.36204 1.85229,-0.0847 0.39264,0.18612 0.7947,0.37369 1.06767,0.72599 0.27688,0.37722 0.44725,0.81565 0.70718,1.20421 0.31407,0.41624 0.68547,0.80245 0.77418,1.3394 -0.004,0.41069 -0.17176,0.76813 -0.30956,1.14888 -0.13197,0.34932 -0.32586,0.73382 -0.24853,1.11163 0.13778,0.40395 0.42013,0.68064 0.76645,0.92382 0.40941,0.35921 0.71127,0.78635 0.81329,1.3331 0.0796,0.65592 -0.0358,1.29597 -0.11715,1.94731 -0.0347,0.61663 -0.12076,1.22937 -0.12817,1.84647 0.002,0.64826 0.001,1.29732 0.0486,1.94425 0.0581,0.64079 0.1664,1.27058 0.30609,1.8985 0.11081,0.51354 0.21544,1.02787 0.38024,1.52734 0.12763,0.41856 0.28216,0.85601 0.18586,1.29643 -0.18409,0.52822 -0.53326,0.90593 -0.94792,1.27378 -0.54414,0.49265 -0.9874,1.07576 -1.45588,1.6384 -0.041,0.0503 -0.47869,0.58872 -0.5212,0.63798 -0.29191,0.33827 -0.65051,0.61184 -0.90552,0.98272 -0.29894,0.48913 -0.52807,1.02241 -0.60824,1.59407 -0.0376,0.74255 0.0829,1.04865 0.57703,1.61914 0.45942,0.52286 0.99742,0.9607 1.52421,1.41354 0.50419,0.4609 1.01213,0.94622 1.29599,1.57954 0.20164,0.48312 0.33209,0.9822 0.29609,1.51133 -0.0213,0.57736 -0.0703,1.15235 -0.14513,1.72542 -0.0817,0.73141 -0.12194,1.46457 -0.18617,2.19765 -0.0456,0.6295 -0.0139,1.26136 -0.002,1.8919 0.0238,0.6141 0.0708,1.22719 0.1676,1.83459 0.0837,0.61886 0.11455,1.24598 0.15086,1.86907 -0.0415,0.66822 -0.13006,1.33299 -0.39194,1.95583 -0.30667,0.69801 -0.60983,1.39674 -0.85639,2.11961 -0.20331,0.59637 -0.44382,1.18728 -0.54192,1.81278 -0.10287,0.54149 -0.16391,1.09222 -0.11676,1.64356 0.0338,0.51869 0.0924,1.03617 0.27375,1.52751 0.14957,0.40414 0.29374,0.80978 0.48453,1.19726 0.11788,0.38757 0.13963,0.7796 0.11345,1.18328 -0.0126,0.46681 -0.0266,0.93669 -0.12823,1.39441 -0.10583,0.45042 -0.25143,0.88876 -0.47688,1.29517 -0.26401,0.62562 -0.54454,1.23864 -0.92842,1.80355 -0.27074,0.53049 -0.56619,1.07373 -0.59244,1.68201 0.0167,0.43777 0.0428,0.87744 0.21569,1.2869 0.23641,0.52616 0.5779,0.97641 0.91119,1.44336 0.35305,0.54012 0.65376,1.11613 0.82898,1.74019 0.0853,0.52932 0.13596,1.06473 0.21408,1.59502 0.0872,0.57116 0.2834,1.11385 0.42703,1.67211 0.0872,0.42965 0.13442,0.56473 0.13878,1.01937 0.011,1.14734 -0.24009,2.28511 -0.45702,3.40377 -0.45164,1.88835 -1.01758,3.74889 -1.41023,5.65195 -0.11277,0.912 -0.14427,1.80769 0.124,2.69885 0.21376,0.82503 0.46287,1.63582 0.7383,2.44262 0.29601,0.93609 0.69217,1.83732 0.94034,2.78913 0.0848,0.56912 0.15867,1.14919 0.14639,1.72476 -0.0533,0.53597 -0.15699,1.05431 -0.45187,1.51683 -0.35813,0.51329 -0.74429,1.01292 -1.03253,1.56966 -0.0405,0.0816 -0.0935,0.15819 -0.12138,0.24492 -0.14759,0.45839 0.0319,0.95748 0.29243,1.33271 0.46265,0.48814 1.03555,0.74538 1.67529,0.93444 0.50576,0.21382 1.08717,0.45962 1.16945,1.06654 -0.007,0.10343 -3.8e-4,0.20865 -0.0207,0.31029 -0.13178,0.65847 -0.54849,1.24441 -0.96035,1.75459 -0.79549,0.95151 -0.29027,0.40443 -2.66106,1.68128 -0.12105,0.0652 -0.41408,0.0122 -0.52867,-0.0182 -0.20155,-0.0535 -0.41411,-0.15952 -0.60184,-0.24417 -1.02428,-0.48692 -2.07756,-0.89423 -3.14991,-1.26396 -0.17021,-0.0534 -0.33667,-0.12076 -0.51063,-0.16032 -0.57301,-0.1303 -1.15832,0.0483 -1.72379,0.12915 -0.37817,0.0595 -0.75601,0.12409 -1.14097,0.0936 -0.46185,-0.0366 -0.90616,-0.18678 -1.35569,-0.28585 -0.21067,-0.0569 -0.73687,-0.19607 -0.94953,-0.26472 -0.29603,-0.0956 -0.57936,-0.25405 -0.88403,-0.32222 -0.0687,-0.0154 -0.13978,-0.0162 -0.20966,-0.0243 -0.45787,0.11347 -0.84549,0.40206 -1.29945,0.53254 -0.58385,0.19412 -1.14461,0.26487 -1.72399,-0.007 -0.50021,-0.27526 -0.99736,-0.56314 -1.58596,-0.5753 -0.91012,0.10223 -1.60735,0.73986 -2.44375,1.07524 -1.79714,0.92116 -3.63569,1.8627 -5.67041,2.0964 -0.94376,0.063 -1.29019,0.10446 -2.24704,0.0923 -1.42198,-0.0181 -2.83679,-0.19989 -4.22773,-0.48983 -0.81907,-0.21402 -1.60274,-0.44792 -2.37785,-0.79254 -0.66606,-0.29614 -0.6072,-0.30191 -1.23317,-0.62022 -0.20381,-0.10364 -0.41079,-0.20094 -0.61618,-0.3014 -0.71244,-0.33081 -1.45993,-0.73332 -2.26757,-0.67928 -0.98212,0.17065 -1.92171,0.55562 -2.92737,0.61421 -0.18886,0.0136 -0.37726,0.0377 -0.56658,0.0409 -0.59306,0.01 -1.17204,-0.1583 -1.7368,-0.31657 -0.61838,-0.16609 -1.22406,-0.40852 -1.87119,-0.43356 -0.64842,-0.048 -1.29757,-0.0254 -1.94266,0.0599 -0.77098,0.11103 -1.53639,0.26261 -2.28955,0.46204 -1.17849,0.33369 -2.37917,0.5778 -3.57458,0.84315 -1.41991,0.2837 -2.87338,0.50936 -4.32322,0.33696 -0.83702,-0.17603 -1.66269,-0.40455 -2.46013,-0.71656 -0.62461,-0.26893 -1.2091,-0.60281 -1.79025,-0.95463 -0.69287,-0.37619 -1.30834,-0.57925 -2.11326,-0.44048 -1.20896,0.18628 -2.39823,0.46349 -3.59362,0.7196 -0.77178,0.13394 -1.55307,0.23117 -2.30254,0.46855 -0.91785,0.30914 -1.89659,0.99087 1.44888,-0.96133 0.0845,-0.0493 -0.169,0.0988 -0.25051,0.15292 -0.17966,0.11924 -0.35689,0.26034 -0.52751,0.39146 -0.2746,0.21881 -0.32514,0.27412 -0.63341,0.45663 -1.26512,0.74904 -2.47736,1.62264 -3.90182,2.02844 -0.94923,0.15982 -1.89393,0.16866 -2.76748,-0.29228 -0.74091,-0.38057 -1.47317,-0.77664 -2.2039,-1.17648 -0.9396,-0.49429 -1.90744,-0.95824 -2.94825,-1.19557 -0.43615,-0.0603 -0.83473,-0.10993 -1.27265,-0.0382 -0.89881,0.1472 -2.23055,1.06948 1.14401,-0.88246 -0.76857,0.48574 -1.52666,0.99303 -2.24581,1.54962 -1.17304,0.68654 -2.19565,1.4334 -3.46152,1.84481 -0.67628,0.22952 -1.36294,0.42348 -2.07821,0.48739 -1.29466,0.13125 -2.61887,0.17761 -3.90878,-0.0166 -0.63328,-0.20971 -1.03975,-0.4897 -1.12629,-1.19543 -0.0466,-0.60509 -0.0149,-1.21277 0.019,-1.81809 0.0506,-0.53872 0.14699,-1.06759 0.28696,-1.59045 0.0541,-0.56183 0.0344,-1.07235 -0.30765,-1.55 -0.3196,-0.47274 -0.61046,-0.95944 -0.67061,-1.54101 -0.056,-0.63087 -0.0478,-1.25987 0.0106,-1.89122 0.0583,-0.67897 0.14051,-1.35878 0.0837,-2.04103 -0.037,-0.63435 -0.10037,-1.26633 -0.25057,-1.88542 -0.0847,-0.51605 -0.23991,-1.01197 -0.34785,-1.52302 -0.0855,-0.5045 -0.0107,-0.97686 0.233,-1.43188 0.33432,-0.6255 0.70478,-1.22351 1.21058,-1.7295 0.40896,-0.44919 0.72927,-0.95502 0.97312,-1.51258 0.16693,-0.40054 0.32199,-0.84704 0.19799,-1.27878 -0.15049,-0.42625 -0.42802,-0.78048 -0.67923,-1.15226 -0.22411,-0.37945 -0.40766,-0.76596 -0.38385,-1.21829 0.0625,-0.39025 0.17059,-0.76984 0.25467,-1.1554 0.17591,-0.51776 0.46007,-0.97638 0.72303,-1.4532 0.37113,-0.67189 0.6093,-1.22484 0.58965,-2.01397 -0.0214,-0.23838 -0.0302,-0.45015 -0.0911,-0.68303 -0.11558,-0.4421 -0.3481,-0.8557 -0.54018,-1.26611 -0.31352,-0.56255 -0.68301,-1.12083 -0.70263,-1.78479 0.0217,-0.51936 0.18193,-1.00484 0.31769,-1.50376 0.14834,-0.47709 0.32853,-0.93663 0.53944,-1.3904 0.216,-0.49364 0.32593,-0.98836 0.2744,-1.53055 -0.0125,-0.48067 -0.0339,-0.96501 -0.17147,-1.42932 -0.15574,-0.46068 -0.38776,-0.88446 -0.66546,-1.2835 -0.26447,-0.43108 -0.51738,-0.86431 -0.72294,-1.32773 -0.22484,-0.43285 -0.44475,-0.88232 -0.60022,-1.34322 -0.0901,-0.37452 -0.11641,-0.7585 0.0433,-1.11907 0.17753,-0.37811 0.39397,-0.73295 0.71002,-1.01294 0.0753,-0.1248 0.17421,-0.23472 0.24497,-0.36212 0.12784,-0.2302 0.20462,-0.50918 0.25,-0.76599 0.0548,-0.45182 -0.0208,-0.91483 -0.1336,-1.35288 -0.17806,-0.48692 -0.46302,-0.91545 -0.79125,-1.3154 -0.3583,-0.41005 -0.7008,-0.83336 -1.03884,-1.26005 -0.24188,-0.36601 -0.36896,-0.72434 -0.27001,-1.16585 0.0797,-0.40938 0.23324,-0.78015 0.52088,-1.09089 0.27156,-0.36957 0.55083,-0.74303 0.68421,-1.18844 0.1019,-0.44256 0.18335,-0.88549 0.0729,-1.33638 -0.0787,-0.36808 -0.17875,-0.73967 -0.35211,-1.07501 -0.23839,-0.38798 -0.48923,-0.76891 -0.75292,-1.14016 -0.32384,-0.42666 -0.63933,-0.86563 -0.91348,-1.32473 -0.19603,-0.40869 -0.38375,-0.81242 -0.22212,-1.26945 0.17834,-0.55067 0.41746,-1.08456 0.76548,-1.5502 0.33948,-0.47121 0.60271,-0.97892 0.87711,-1.48908 0.19828,-0.49187 0.19497,-0.99541 0.16017,-1.52003 -0.0318,-0.56219 -0.085,-1.1267 -0.30648,-1.65148 -0.28298,-0.6704 -0.57895,-1.33408 -0.97412,-1.94848 -0.38398,-0.58837 -0.69171,-1.07908 -0.54792,-1.81201 0.0324,-0.11139 0.0552,-0.22601 0.0971,-0.33417 0.19487,-0.50263 0.58252,-0.89961 0.89552,-1.32749 0.28375,-0.4087 0.52661,-0.83387 0.63295,-1.32453 0.0638,-0.35166 0.0235,-0.71368 0.0507,-1.06949 0.0111,-0.3953 0.0113,-0.78559 -0.0644,-1.17524 -0.0589,-0.37608 -0.18395,-0.72446 -0.38117,-1.05207 -0.15828,-0.36564 -0.29394,-0.73194 -0.18668,-1.13517 0.10018,-0.40509 0.22812,-0.8055 0.37545,-1.19548 0.24104,-0.5507 0.4652,-1.10871 0.70858,-1.65858 0.24913,-0.57707 0.4134,-1.17315 0.40033,-1.80779 -0.037,-0.61728 -0.0996,-1.23554 -0.29379,-1.82651 -0.19423,-0.62166 -0.37339,-1.24813 -0.56256,-1.87137 -0.0865,-0.58909 -0.16682,-1.2011 0.011,-1.78166 0.21936,-0.57454 0.53524,-1.10033 0.86713,-1.61694 0.0871,-0.15122 0.19041,-0.29293 0.27429,-0.44598 0.14442,-0.26351 0.22444,-0.56413 0.40522,-0.80967 0.1861,-0.41153 0.33796,-0.84551 0.35959,-1.30025 -0.0223,-0.41525 -0.0537,-0.83323 -0.17995,-1.23227 -0.13355,-0.44453 -0.24494,-0.89186 -0.55456,-1.25645 -0.31346,-0.47002 -0.63955,-0.93458 -1.05026,-1.32663 0,0 2.23487,-1.36953 2.23487,-1.36953 z" />
  </g>
</svg>
