<?xml version="1.0" encoding="UTF-8" standalone="no"?>
<!-- Created with Inkscape (http://www.inkscape.org/) -->

<svg
   xmlns:dc="http://purl.org/dc/elements/1.1/"
   xmlns:cc="http://creativecommons.org/ns#"
   xmlns:rdf="http://www.w3.org/1999/02/22-rdf-syntax-ns#"
   xmlns:svg="http://www.w3.org/2000/svg"
   xmlns="http://www.w3.org/2000/svg"
   xmlns:xlink="http://www.w3.org/1999/xlink"
   xmlns:sodipodi="http://sodipodi.sourceforge.net/DTD/sodipodi-0.dtd"
   xmlns:inkscape="http://www.inkscape.org/namespaces/inkscape"
   width="744.09448819"
   height="1052.3622047"
   id="svg2888"
   version="1.1"
   inkscape:version="0.47 r22583"
   sodipodi:docname="standardBlackHole.svg">
  <defs
     id="defs2890">
    <linearGradient
       inkscape:collect="always"
       id="linearGradient3986">
      <stop
         style="stop-color:#ffffff;stop-opacity:1;"
         offset="0"
         id="stop3988" />
      <stop
         style="stop-color:#ffffff;stop-opacity:0;"
         offset="1"
         id="stop3990" />
    </linearGradient>
    <linearGradient
       id="linearGradient3897">
      <stop
         id="stop3900"
         offset="0"
         style="stop-color:#ffffff;stop-opacity:1;" />
      <stop
         id="stop3902"
         offset="1"
         style="stop-color:#ffffff;stop-opacity:0;" />
    </linearGradient>
    <linearGradient
       id="linearGradient3873">
      <stop
         style="stop-color:#ffffff;stop-opacity:1;"
         offset="0"
         id="stop3875" />
      <stop
         style="stop-color:#ffffff;stop-opacity:0;"
         offset="1"
         id="stop3877" />
    </linearGradient>
    <inkscape:perspective
       sodipodi:type="inkscape:persp3d"
       inkscape:vp_x="0 : 526.18109 : 1"
       inkscape:vp_y="0 : 1000 : 0"
       inkscape:vp_z="744.09448 : 526.18109 : 1"
       inkscape:persp3d-origin="372.04724 : 350.78739 : 1"
       id="perspective2896" />
    <filter
       inkscape:collect="always"
       id="filter3962"
       x="-0.17021502"
       width="1.34043"
       y="-0.14704698"
       height="1.294094">
      <feGaussianBlur
         inkscape:collect="always"
         stdDeviation="3.1275701"
         id="feGaussianBlur3964" />
    </filter>
    <filter
       inkscape:collect="always"
       id="filter3966"
       x="-0.13268177"
       width="1.2653635"
       y="-0.17429165"
       height="1.3485833">
      <feGaussianBlur
         inkscape:collect="always"
         stdDeviation="3.12757"
         id="feGaussianBlur3968" />
    </filter>
    <filter
       inkscape:collect="always"
       id="filter3970"
       x="-0.1702772"
       width="1.3405544"
       y="-0.18024812"
       height="1.3604962">
      <feGaussianBlur
         inkscape:collect="always"
         stdDeviation="3.1275701"
         id="feGaussianBlur3972" />
    </filter>
    <radialGradient
       inkscape:collect="always"
       xlink:href="#linearGradient3986"
       id="radialGradient3992"
       cx="138.875"
       cy="180.98718"
       fx="138.875"
       fy="180.98718"
       r="13.375"
       gradientUnits="userSpaceOnUse" />
  </defs>
  <sodipodi:namedview
     id="base"
     pagecolor="#ffffff"
     bordercolor="#666666"
     borderopacity="1.0"
     inkscape:pageopacity="0.0"
     inkscape:pageshadow="2"
     inkscape:zoom="1"
     inkscape:cx="185.53143"
     inkscape:cy="859.06945"
     inkscape:document-units="px"
     inkscape:current-layer="layer1"
     showgrid="false"
     inkscape:window-width="1600"
     inkscape:window-height="850"
     inkscape:window-x="0"
     inkscape:window-y="25"
     inkscape:window-maximized="1" />
  <metadata
     id="metadata2893">
    <rdf:RDF>
      <cc:Work
         rdf:about="">
        <dc:format>image/svg+xml</dc:format>
        <dc:type
           rdf:resource="http://purl.org/dc/dcmitype/StillImage" />
        <dc:title></dc:title>
      </cc:Work>
    </rdf:RDF>
  </metadata>
  <g
     inkscape:label="Layer 1"
     inkscape:groupmode="layer"
     id="layer1">
    <rect
       style="fill:#000000;fill-opacity:1;stroke:none"
       id="rect2829"
       width="100"
       height="100"
       x="170.25"
       y="130.61218" />
    <rect
       style="opacity:0.79039301;fill:#008000;fill-opacity:0;stroke:#007800;stroke-width:7.83410168;stroke-miterlimit:4;stroke-opacity:1;stroke-dasharray:none"
       id="rect2898"
       width="92.165901"
       height="92.165901"
       x="173.95277"
       y="134.81496"
       inkscape:export-filename="/home/joshua/workspace/HurryUpHedgeHog2/src/images/blackHole.png"
       inkscape:export-xdpi="93.177147"
       inkscape:export-ydpi="93.177147" />
    <path
       style="fill:#000000;fill-opacity:0;stroke:#552200;stroke-width:3.4238584;stroke-miterlimit:4;stroke-opacity:1;stroke-dasharray:none"
       id="path3849"
       d="m 178.61829,138.02885 c 0.35076,0.40738 0.67363,0.8351 0.97649,1.27886 0.29346,0.35629 0.42825,0.78759 0.55831,1.22063 0.12313,0.38557 0.16836,0.78923 0.19157,1.19152 0.0201,0.45744 -0.13217,0.88096 -0.28988,1.30196 -0.19593,0.4055 -0.38856,0.81145 -0.62224,1.19677 -0.29673,0.47355 -0.59501,0.94729 -0.81483,1.46223 -0.19468,0.49509 -0.13819,1.0249 -0.0706,1.53887 0.15564,0.56859 0.32265,1.13548 0.49947,1.69813 0.18563,0.5631 0.26015,1.15113 0.30039,1.73996 0.0319,0.616 -0.11032,1.19989 -0.32638,1.77077 -0.21172,0.51193 -0.43443,1.01874 -0.64216,1.53229 -0.14482,0.34639 -0.24812,0.70868 -0.34946,1.06973 -0.10725,0.323 -0.029,0.60863 0.0981,0.90878 0.18557,0.32149 0.31427,0.66028 0.37887,1.02501 0.0669,0.37351 0.0873,0.74785 0.0823,1.12653 -0.0135,0.33741 -0.005,0.67586 -0.0334,1.01236 -0.0794,0.48694 -0.2993,0.92114 -0.55903,1.33398 -0.35357,0.47672 -0.73488,0.92628 -0.95106,1.48413 -0.16733,0.57572 0.1116,1.01825 0.4025,1.49201 0.35785,0.58533 0.65096,1.20403 0.9301,1.82935 0.2238,0.50772 0.28996,1.05417 0.32386,1.60191 0.039,0.50482 0.0455,0.99799 -0.0975,1.48627 -0.22165,0.50463 -0.49284,0.98856 -0.80061,1.44569 -0.31455,0.41403 -0.54244,0.87833 -0.71804,1.36543 -0.1556,0.37061 -0.0291,0.668 0.12398,1.00974 0.23887,0.41314 0.51976,0.8061 0.81108,1.1851 0.25389,0.34645 0.4906,0.70554 0.71806,1.0698 0.18645,0.32918 0.28324,0.69928 0.36599,1.06584 0.11216,0.4431 0.0608,0.88952 -0.0263,1.3311 -0.0921,0.4428 -0.33774,0.81971 -0.58856,1.18695 -0.22996,0.27899 -0.41547,0.57272 -0.51345,0.92147 -0.099,0.34485 -0.0347,0.61594 0.14969,0.91283 0.30485,0.38544 0.61244,0.76983 0.93466,1.1412 0.32755,0.38806 0.59566,0.8153 0.78002,1.28799 0.13051,0.43375 0.19385,0.88708 0.18108,1.3396 -0.025,0.41797 -0.1962,0.79867 -0.4131,1.14983 -0.23699,0.29668 -0.47125,0.58521 -0.65713,0.91764 -0.16086,0.28225 -0.16773,0.57542 -0.1118,0.88675 0.12348,0.41258 0.31312,0.81235 0.50669,1.19754 0.19262,0.42013 0.42394,0.81495 0.66919,1.20549 0.26676,0.3839 0.48247,0.79719 0.63645,1.23808 0.14957,0.44845 0.17706,0.9175 0.19394,1.38565 0.0483,0.52334 -0.0371,1.01824 -0.21625,1.50799 -0.17194,0.42142 -0.35647,0.83653 -0.5001,1.26863 -0.12397,0.44394 -0.27024,0.88365 -0.32285,1.34276 -0.003,0.56333 0.30143,1.05923 0.56758,1.53731 0.18371,0.39078 0.41125,0.78113 0.5267,1.20091 0.0649,0.23581 0.0795,0.44485 0.10704,0.68604 0.0489,0.71088 -0.16569,1.36353 -0.48092,1.98825 -0.21939,0.43781 -0.48404,0.84964 -0.66355,1.30638 -0.0975,0.33766 -0.18012,0.68148 -0.24621,1.02694 -0.0533,0.36243 0.089,0.67678 0.26602,0.98269 0.2446,0.35432 0.50185,0.69644 0.65355,1.10193 0.15963,0.45291 0.0355,0.90319 -0.11386,1.33999 -0.214,0.54317 -0.51568,1.03613 -0.8856,1.48523 -0.44696,0.46368 -0.82099,0.97837 -1.12459,1.54452 -0.20541,0.37195 -0.31996,0.76136 -0.27518,1.18535 0.0918,0.47321 0.23032,0.93302 0.31,1.4088 0.1382,0.58307 0.19772,1.17658 0.23211,1.77332 0.0587,0.63976 -0.006,1.2771 -0.0553,1.9146 -0.0514,0.57153 -0.0688,1.14251 -0.026,1.71462 0.0436,0.50113 0.29747,0.90887 0.56747,1.31608 0.33632,0.48279 0.39281,1.00633 0.35829,1.57668 -0.0849,0.49344 -0.20053,0.9782 -0.25948,1.47622 -0.0468,0.54826 -0.0687,1.10029 -0.0429,1.65009 0.06,0.56739 0.38388,0.72445 0.89212,0.85596 1.16526,0.16884 2.35499,0.13209 3.51792,-0.033 0.67897,-0.0653 1.30822,-0.31662 1.94757,-0.53041 0.16692,-0.0984 0.36306,-0.12945 0.53904,-0.20287 0.11464,-0.0478 0.2512,-0.13987 0.3547,-0.20478 -0.6093,0.34922 -1.2186,0.69842 -1.8279,1.04764 0.69615,-0.49043 1.39301,-0.97975 2.10705,-1.44394 1.002,-0.58566 2.12489,-1.55083 3.40365,-1.49742 0.26777,0.0112 0.59558,0.0849 0.85431,0.1345 0.9658,0.28436 1.88338,0.70383 2.77603,1.1644 0.68119,0.36355 1.35698,0.73459 2.04718,1.08054 0.78525,0.38559 1.6226,0.34413 2.45349,0.15349 0.14291,-0.054 0.2878,-0.10288 0.42874,-0.16178 0.1381,-0.0577 0.27406,-0.12074 0.40785,-0.18784 0.12501,-0.0627 0.4895,-0.27078 0.36811,-0.20133 -3.12624,1.78859 -1.7718,1.04234 -1.10188,0.55654 0.9166,-0.73983 1.93292,-1.24604 2.98713,-1.81549 0.15414,-0.0833 0.33594,-0.0996 0.50269,-0.15336 0.69549,-0.18558 1.41167,-0.25653 2.11902,-0.38115 1.10462,-0.23479 2.20475,-0.48632 3.32157,-0.65685 0.76596,-0.12786 1.42897,0.14352 2.07767,0.51314 0.52966,0.32072 1.06352,0.62404 1.63252,0.87069 0.72974,0.27248 1.48067,0.4797 2.2458,0.62324 1.30813,0.14595 2.60815,-0.0751 3.88479,-0.34274 0.82732,-0.20861 1.67214,-0.35829 2.4966,-0.57817 0.28681,-0.0765 0.56732,-0.17511 0.85307,-0.25548 0.71149,-0.17527 1.43105,-0.32269 2.1581,-0.41569 0.61073,-0.0734 1.22129,-0.0733 1.83231,-0.0158 0.60481,0.0432 1.16807,0.29166 1.7526,0.43555 0.71805,0.24273 1.29935,0.28522 2.05176,0.21464 0.17979,-0.0295 0.35983,-0.0575 0.53936,-0.0885 0.181,-0.0313 0.36317,-0.0572 0.54219,-0.0983 0.58,-0.13317 1.04415,-0.34405 1.64698,-0.41408 0.77791,0.006 1.46048,0.43538 2.13716,0.77177 0.98253,0.5172 1.96409,1.03885 3.03049,1.36583 0.26734,0.082 0.54063,0.14311 0.81094,0.21466 1.26519,0.25681 2.55592,0.42861 3.84899,0.43858 0.83618,0.006 1.2453,-0.045 2.07182,-0.11233 1.88288,-0.26486 3.57082,-1.17477 5.23241,-2.04436 0.72753,-0.23627 1.31879,-0.91181 2.1044,-0.98101 0.0989,-0.008 0.19844,0.006 0.29766,0.008 0.57154,0.072 1.05063,0.36407 1.54163,0.64015 0.52901,0.20027 0.98689,0.0142 1.48501,-0.16155 0.35541,-0.0759 0.6735,-0.42122 1.03565,-0.46502 0.0709,-0.008 0.14239,0.0107 0.21359,0.0162 0.35996,0.11186 0.68702,0.30501 1.04394,0.42387 0.11224,0.0374 0.7499,0.21181 0.8478,0.23885 0.41147,0.0849 0.82249,0.2259 1.24762,0.22863 0.34024,0.002 0.69241,-0.0876 1.02442,-0.15184 0.40905,-0.0541 0.83153,-0.18625 1.24878,-0.13418 0.35627,0.0444 0.5198,0.14349 0.86121,0.28501 0.98744,0.3809 1.98094,0.73466 2.94424,1.17455 0.24743,0.0834 0.51141,0.24412 0.78503,0.17747 0.0691,-0.0168 0.25486,-0.1267 0.19269,-0.0921 -2.00487,1.11793 -2.39411,1.50316 -1.65645,0.83171 0.4597,-0.49537 0.88013,-1.07665 0.96789,-1.76178 -0.009,-0.056 -0.007,-0.11475 -0.0278,-0.16784 -0.0987,-0.26277 -0.65874,-0.46541 -0.89741,-0.55335 -0.62762,-0.17456 -1.16309,-0.47743 -1.6035,-0.9566 -0.38577,-0.56605 -0.48588,-1.03683 -0.28866,-1.69434 0.23479,-0.54378 0.59577,-1.02275 0.93388,-1.50594 0.27584,-0.38593 0.39833,-0.82572 0.45613,-1.28916 0.0447,-0.51756 -0.0343,-1.03956 -0.0908,-1.55418 -0.17579,-0.88199 -0.54304,-1.70523 -0.82698,-2.55403 -0.26133,-0.74775 -0.49954,-1.50022 -0.70203,-2.26586 -0.27608,-0.85813 -0.23234,-1.71955 -0.11406,-2.59968 0.39612,-1.77723 0.93196,-3.51892 1.36487,-5.28705 0.28071,-1.29509 0.51826,-2.63738 0.23866,-3.95022 -0.14295,-0.51385 -0.34627,-1.00786 -0.44017,-1.53423 -0.0643,-0.49532 -0.12207,-0.99168 -0.18716,-1.48697 -0.13568,-0.54931 -0.40624,-1.05049 -0.71487,-1.52019 -0.32531,-0.43396 -0.63379,-0.87072 -0.86765,-1.36212 -0.18577,-0.4019 -0.23137,-0.83497 -0.24987,-1.27126 -0.008,-0.60762 0.25567,-1.14865 0.52112,-1.67856 0.3221,-0.52798 0.61298,-1.06765 0.84339,-1.64138 0.17863,-0.37916 0.34215,-0.76309 0.45436,-1.16733 0.10371,-0.40546 0.12562,-0.82361 0.13763,-1.23994 0.0155,-0.34737 0.0135,-0.68953 -0.0755,-1.02698 -0.16986,-0.3562 -0.29788,-0.72772 -0.4298,-1.09882 -0.17532,-0.47629 -0.24489,-0.97334 -0.27899,-1.47654 -0.046,-0.52706 -0.005,-1.05105 0.0799,-1.57141 0.0868,-0.59451 0.30035,-1.15746 0.50124,-1.72019 0.23693,-0.66866 0.49719,-1.32853 0.78298,-1.97768 0.24808,-0.54858 0.34192,-1.13813 0.39088,-1.73267 -0.0117,-0.56279 -0.0541,-1.12701 -0.1202,-1.68617 -0.087,-0.56827 -0.13518,-1.14028 -0.16557,-1.71395 -0.0179,-0.59214 -0.0332,-1.18539 -0.003,-1.77722 0.0607,-0.68248 0.10168,-1.36607 0.17459,-2.04738 0.0582,-0.5216 0.099,-1.04488 0.11832,-1.56934 0.0395,-0.45662 -0.0569,-0.88985 -0.22153,-1.3118 -0.24179,-0.55614 -0.68506,-0.97963 -1.12898,-1.37783 -0.49915,-0.42107 -1.00353,-0.83334 -1.42981,-1.32972 -0.46652,-0.51716 -0.63111,-0.9612 -0.62691,-1.64994 0.0435,-0.56453 0.24614,-1.09025 0.51372,-1.58303 0.38045,-0.56288 0.8888,-1.02094 1.32227,-1.5437 0.43183,-0.51955 0.84393,-1.05623 1.32052,-1.5361 0.34756,-0.32792 0.69242,-0.64796 0.90403,-1.08132 0.12195,-0.35015 -3.7e-4,-0.70955 -0.10267,-1.04958 -0.15593,-0.46913 -0.23991,-0.95564 -0.34753,-1.43701 -0.12876,-0.59206 -0.23411,-1.18571 -0.28671,-1.78949 -0.0437,-0.60259 -0.0612,-1.2065 -0.0662,-1.81051 -0.006,-0.57834 0.0787,-1.15234 0.12036,-1.72831 0.0515,-0.58836 0.17488,-1.16935 0.11852,-1.7607 -0.0721,-0.45319 -0.32804,-0.78651 -0.6704,-1.072 -0.35973,-0.24418 -0.62562,-0.55099 -0.78213,-0.95518 -0.11987,-0.40239 0.0199,-0.80349 0.15684,-1.18258 0.11238,-0.33308 0.26431,-0.65099 0.31522,-1.00079 -0.0335,-0.44668 -0.37452,-0.75445 -0.62559,-1.09367 -0.24217,-0.35598 -0.3937,-0.76932 -0.66214,-1.10717 -0.24027,-0.28105 -0.58893,-0.42913 -0.92139,-0.57265 -0.53784,-0.19177 -1.06952,0.0131 -1.57542,0.20454 -0.74124,0.34398 -1.43155,0.78347 -2.15945,1.15281 -0.6358,0.25641 -1.31141,0.18079 -1.97228,0.0951 -0.6808,-0.13924 -1.37015,-0.22243 -2.05397,-0.34378 -0.54383,-0.15345 -1.10496,-0.21685 -1.65058,-0.36057 -0.58323,-0.21166 -1.17749,-0.35848 -1.79865,-0.37008 -0.6883,-0.0367 -1.31766,0.2142 -1.95096,0.44128 -0.54697,0.30207 -1.12278,0.54722 -1.71864,0.73429 -0.27487,0.0613 -0.55471,0.17663 -0.84274,0.15388 -0.35107,-0.0278 -0.70438,-0.16682 -1.0339,-0.279 -0.67169,-0.24451 -1.31955,-0.54662 -1.96215,-0.85801 -0.60804,-0.28663 -1.27073,-0.36171 -1.93254,-0.40673 -0.76864,0.0288 -1.536,0.12599 -2.29796,0.23159 -0.84049,0.0971 -1.64652,0.36768 -2.47068,0.54747 -0.74067,0.14775 -1.49862,0.1699 -2.25157,0.17493 -1.01878,9.2e-4 -2.03754,-0.004 -3.05635,0.003 -0.58885,0.0313 -1.16727,-0.0411 -1.7241,-0.23072 -0.59725,-0.20084 -1.23924,-0.21199 -1.86317,-0.23883 -0.65097,-0.062 -1.28312,0.0791 -1.91749,0.19486 -0.42047,0.10385 -0.81443,-0.004 -1.22385,-0.0916 -0.45668,-0.098 -0.64581,-0.12061 -1.11856,-0.19501 -1.07564,-0.17438 -2.15795,-0.20936 -3.24389,-0.16445 -0.68606,0.081 -1.36712,0.19529 -2.05949,0.18136 -0.69158,-0.0623 -1.35618,-0.2774 -2.02319,-0.45848 -0.86365,-0.25738 -1.73951,-0.19521 -2.61184,-0.0318 -0.82053,0.16096 -1.63115,0.37907 -2.43609,0.60536 -0.5645,0.18342 -1.11638,0.21853 -1.68939,0.0724 -0.43175,-0.0865 -0.87391,-0.2136 -1.31921,-0.19176 -0.18497,0.009 -0.5125,0.0804 -0.69451,0.11631 -0.54467,0.12217 -1.04908,0.36384 -1.58545,0.51188 -0.54325,0.0659 -0.96386,-0.27964 -1.37506,-0.58202 -0.50076,-0.35162 -0.90134,-0.52296 -1.49484,-0.31598 0.1184,-0.10211 -0.57409,0.30931 -0.43233,0.22877 0.61518,-0.34946 1.22695,-0.70492 1.84352,-1.05192 0.0831,-0.0467 -0.16046,0.10329 -0.24295,0.15118 -2.32761,1.35124 -1.46347,1.03937 -2.54467,1.40708 -0.60467,0.032 -1.1029,-0.34056 -1.62312,-0.59509 -0.5419,-0.27758 -1.07396,-0.30409 -1.66534,-0.25424 -0.3565,-0.002 -0.69362,0.13408 -1.04342,0.17709 -0.12459,0.0154 -0.30656,0.009 -0.43304,0.007 -0.39108,-0.0931 -0.78302,-0.15846 -1.18369,-0.19036 -0.82202,0.13484 -1.59141,0.4955 -2.36826,0.78719 -0.52936,0.20692 -1.1541,0.49993 -1.71649,0.21909 -0.0784,-0.0391 -0.14516,-0.098 -0.21774,-0.147 -0.24922,-0.1909 -0.49909,-0.57992 -0.86289,-0.52373 -0.0689,0.0106 -0.13259,0.0433 -0.19889,0.0651 -0.48942,0.13248 -0.88057,0.49111 -1.34569,0.67216 -0.0863,0.0336 -0.17973,0.0454 -0.26959,0.0681 -0.0859,-0.008 -0.17406,-0.004 -0.25772,-0.0254 -0.38631,-0.0983 -0.86196,-0.39719 -1.23706,-0.56587 -0.0799,-0.0271 -0.15681,-0.0646 -0.23943,-0.0813 -0.74979,-0.15173 -1.81619,0.13664 -2.52834,0.3534 -0.63593,0.14562 -1.7536,0.90714 -2.40074,0.71147 -0.084,-0.0254 -0.15157,-0.0886 -0.22737,-0.13286 -0.11911,-0.10379 -0.45767,-0.72195 -0.65151,-0.63139 -0.0402,0.0188 -0.0636,0.0617 -0.0953,0.0927 -0.35974,0.29009 -0.53714,0.0985 -0.66781,-0.27688 -0.0262,-0.0225 -0.0221,-0.32891 -0.10835,-0.32693 -0.0232,5.3e-4 -0.0341,0.0318 -0.0538,0.0441 -0.0366,0.0229 -0.0729,0.0489 -0.1144,0.0611 -0.0555,0.0163 -0.11482,0.0153 -0.17222,0.0229 -0.31233,0.0205 -0.61555,0.0644 -0.92105,0.12939 0,0 1.92702,-1.45785 1.92702,-1.45785 l 0,0 c 0.30808,-0.0552 0.61987,-0.0746 0.92929,-0.12105 0.42308,-0.0676 0.58892,0.0543 0.63893,0.48011 0.0137,0.0477 0.008,0.12364 0.0556,0.13809 0.11864,0.0361 0.28341,-0.22193 0.4111,-0.16836 0.0594,0.006 0.12131,0.002 0.17819,0.0205 0.3137,0.10159 0.41906,0.47363 0.6562,0.66728 0.0532,0.0188 0.10363,0.05 0.1597,0.0565 0.65327,0.0758 1.64328,-0.60751 2.29197,-0.7232 0.92954,-0.25724 1.99679,-0.54692 2.93458,-0.18365 0.42995,0.2049 0.90002,0.53191 1.38863,0.44702 0.5547,-0.22353 1.04817,-0.59727 1.64496,-0.71406 0.0844,-9.2e-4 0.1694,-0.0144 0.25307,-0.004 0.37735,0.0487 0.61429,0.39499 0.90333,0.59977 0.61562,0.31797 1.16438,0.006 1.76469,-0.21436 0.80073,-0.29953 1.60844,-0.70957 2.47531,-0.73473 0.39569,0.038 0.78084,0.12856 1.17548,0.16559 0.49091,-0.0228 0.9647,-0.17033 1.45731,-0.18385 0.6064,-0.0234 1.18259,0.072 1.72457,0.36203 0.47986,0.22975 0.96738,0.58484 1.52089,0.42358 0.84771,-0.39577 0.37433,-0.18299 -1.5773,0.94241 -0.0807,0.0465 0.15811,-0.0984 0.23844,-0.14548 0.84102,-0.49261 1.75378,-1.19076 2.74036,-1.50761 0.6344,-0.0923 1.08728,0.12837 1.59822,0.49407 0.38644,0.26695 0.77879,0.54 1.26761,0.39163 0.52432,-0.16584 1.03522,-0.37874 1.5803,-0.47238 0.27992,-0.0406 0.43791,-0.0745 0.72518,-0.0704 0.45867,0.006 0.90844,0.12926 1.35712,0.20881 0.54847,0.0943 1.07672,0.0113 1.60671,-0.15241 0.8062,-0.20662 1.60815,-0.43722 2.43035,-0.57258 0.90168,-0.13549 1.80453,-0.16501 2.68886,0.1004 0.65554,0.16812 1.30737,0.389 1.99013,0.40539 0.68581,-0.02 1.36151,-0.1348 2.04572,-0.17858 1.084,-0.0176 2.16206,0.0639 3.23498,0.22303 0.77628,0.11516 1.56919,0.34047 2.35325,0.18159 0.63769,-0.1163 1.28046,-0.19103 1.93024,-0.13658 0.64655,0.034 1.30813,0.0545 1.92509,0.27061 0.536,0.15444 1.08447,0.21772 1.64343,0.19901 1.01935,0.009 2.03882,0.0121 3.05803,-0.0103 0.74735,-0.0262 1.49883,-0.0509 2.23104,-0.21865 0.82029,-0.1891 1.63115,-0.43461 2.47148,-0.52194 0.7772,-0.0996 1.55785,-0.2322 2.34364,-0.2033 0.68531,0.0597 1.36376,0.1662 1.98688,0.47682 0.63382,0.30358 1.26739,0.61469 1.93606,0.83563 0.68247,0.20434 1.11891,0.24983 1.79533,-0.003 0.58821,-0.21044 1.14833,-0.48087 1.71663,-0.73821 0.64879,-0.22921 1.30816,-0.41683 2.00552,-0.3662 0.63102,0.0466 1.23111,0.20607 1.831,0.40384 0.54567,0.12373 1.09996,0.20607 1.64156,0.34934 0.67765,0.12695 1.36142,0.21766 2.0408,0.33493 0.64112,0.0692 1.28627,0.0961 1.87944,-0.20362 0.72017,-0.3851 1.42053,-0.8133 2.17729,-1.12466 0.56672,-0.18817 1.14152,-0.33502 1.71405,-0.0784 0.36333,0.17223 0.73538,0.3458 0.98798,0.6718 0.25622,0.34907 0.41387,0.75478 0.6544,1.11434 0.29063,0.38517 0.63431,0.74256 0.7164,1.23944 -0.004,0.38004 -0.15894,0.7108 -0.28645,1.06313 -0.12212,0.32325 -0.30154,0.67905 -0.22998,1.02867 0.12749,0.3738 0.38877,0.62984 0.70924,0.85487 0.37886,0.3324 0.65819,0.72766 0.7526,1.23361 0.0736,0.60696 -0.0331,1.19925 -0.10841,1.80197 -0.0321,0.57061 -0.11175,1.13762 -0.11861,1.70867 0.002,0.59987 9.3e-4,1.20049 0.045,1.79914 0.0538,0.59297 0.15398,1.17575 0.28324,1.75681 0.10254,0.47521 0.19936,0.95116 0.35186,1.41335 0.11811,0.38732 0.26111,0.79212 0.17199,1.19967 -0.17035,0.4888 -0.49346,0.83832 -0.87717,1.17872 -0.50353,0.45588 -0.91371,0.99547 -1.34722,1.51612 -0.0379,0.0465 -0.44297,0.54478 -0.48231,0.59037 -0.27012,0.31302 -0.60196,0.56617 -0.83793,0.90937 -0.27663,0.45263 -0.48866,0.94611 -0.56285,1.4751 -0.0348,0.68713 0.0767,0.97039 0.53397,1.4983 0.42513,0.48384 0.92297,0.889 1.41045,1.30804 0.46656,0.42651 0.93659,0.87561 1.19927,1.46166 0.18659,0.44706 0.3073,0.90889 0.27399,1.39853 -0.0197,0.53427 -0.0651,1.06635 -0.1343,1.59665 -0.0756,0.67682 -0.11284,1.35527 -0.17228,2.03363 -0.0422,0.58252 -0.0129,1.16723 -0.002,1.75071 0.022,0.56826 0.0655,1.1356 0.15509,1.69767 0.0775,0.57267 0.106,1.15298 0.1396,1.72957 -0.0384,0.61835 -0.12035,1.23351 -0.36268,1.80986 -0.28379,0.64592 -0.56432,1.2925 -0.79248,1.96142 -0.18814,0.55186 -0.4107,1.09867 -0.50147,1.67749 -0.0952,0.50107 -0.15168,1.0107 -0.10805,1.52089 0.0313,0.47998 0.0855,0.95884 0.25332,1.41351 0.13841,0.37398 0.27182,0.74934 0.44837,1.10791 0.10908,0.35864 0.12921,0.72141 0.10498,1.09496 -0.0117,0.43197 -0.0246,0.86679 -0.11866,1.29034 -0.0979,0.41681 -0.23266,0.82243 -0.44129,1.19851 -0.2443,0.57893 -0.5039,1.1462 -0.85913,1.66895 -0.25053,0.4909 -0.52393,0.99359 -0.54822,1.55648 0.0154,0.40509 0.0396,0.81195 0.19959,1.19085 0.21877,0.48689 0.53477,0.90354 0.84319,1.33564 0.3267,0.49981 0.60496,1.03283 0.76711,1.61031 0.0789,0.48982 0.12581,0.98527 0.1981,1.47598 0.0807,0.52853 0.26225,1.03072 0.39516,1.54732 0.0807,0.39758 0.12439,0.52258 0.12842,0.94329 0.0102,1.06171 -0.22217,2.11456 -0.42291,3.14974 -0.41793,1.74741 -0.94164,3.46909 -1.30498,5.23012 -0.10435,0.84394 -0.1335,1.67278 0.11474,2.49743 0.19781,0.76346 0.42833,1.51373 0.6832,2.26032 0.27392,0.86623 0.64051,1.7002 0.87016,2.58097 0.0785,0.52665 0.14683,1.06342 0.13547,1.59604 -0.0493,0.49597 -0.14528,0.97562 -0.41815,1.40362 -0.3314,0.47498 -0.68874,0.93732 -0.95547,1.45251 -0.0375,0.0755 -0.0865,0.14639 -0.11232,0.22664 -0.13657,0.42418 0.0295,0.88602 0.27061,1.23325 0.42812,0.45171 0.95826,0.68975 1.55026,0.8647 0.46801,0.19786 1.00603,0.42532 1.08217,0.98694 -0.006,0.0957 -3.6e-4,0.19308 -0.0192,0.28713 -0.12194,0.60933 -0.50755,1.15154 -0.88868,1.62364 -0.73612,0.8805 -0.2686,0.37425 -2.46245,1.5558 -0.11202,0.0603 -0.38318,0.0113 -0.48922,-0.0168 -0.1865,-0.0495 -0.3832,-0.14761 -0.55692,-0.22594 -0.94783,-0.45058 -1.92251,-0.8275 -2.91482,-1.16963 -0.15751,-0.0494 -0.31155,-0.11175 -0.47252,-0.14836 -0.53025,-0.12057 -1.07187,0.0447 -1.59514,0.11951 -0.34995,0.0551 -0.69959,0.11483 -1.05582,0.0866 -0.42738,-0.0339 -0.83853,-0.17284 -1.25451,-0.26452 -0.19495,-0.0526 -0.68187,-0.18143 -0.87866,-0.24496 -0.27394,-0.0885 -0.53612,-0.23509 -0.81805,-0.29817 -0.0636,-0.0143 -0.12935,-0.015 -0.19402,-0.0225 -0.4237,0.105 -0.78239,0.37205 -1.20247,0.4928 -0.54027,0.17963 -1.05918,0.2451 -1.59532,-0.006 -0.46288,-0.25472 -0.92292,-0.52111 -1.46759,-0.53236 -0.8422,0.0946 -1.48739,0.68464 -2.26137,0.99499 -1.66301,0.85241 -3.36435,1.72368 -5.24721,1.93994 -0.87333,0.0583 -1.1939,0.0967 -2.07934,0.0854 -1.31585,-0.0168 -2.62507,-0.18497 -3.9122,-0.45327 -0.75794,-0.19805 -1.48312,-0.4145 -2.20038,-0.7334 -0.61635,-0.27403 -0.56189,-0.27937 -1.14114,-0.57393 -0.1886,-0.0959 -0.38013,-0.18594 -0.57019,-0.2789 -0.65927,-0.30612 -1.35097,-0.67859 -2.09834,-0.62859 -0.90882,0.15792 -1.77828,0.51416 -2.70889,0.56837 -0.17476,0.0126 -0.3491,0.0349 -0.52429,0.0379 -0.5488,0.009 -1.08457,-0.14648 -1.60718,-0.29294 -0.57223,-0.1537 -1.13271,-0.37803 -1.73154,-0.4012 -0.60002,-0.0444 -1.20073,-0.0235 -1.79767,0.0554 -0.71344,0.10274 -1.42173,0.24301 -2.11868,0.42755 -1.09053,0.30879 -2.2016,0.53468 -3.30779,0.78023 -1.31394,0.26252 -2.65894,0.47134 -4.00057,0.31181 -0.77455,-0.1629 -1.5386,-0.37436 -2.27652,-0.66308 -0.578,-0.24886 -1.11887,-0.55782 -1.65664,-0.88339 -0.64116,-0.34811 -1.2107,-0.53602 -1.95554,-0.4076 -1.11874,0.17237 -2.21925,0.4289 -3.32542,0.66589 -0.71418,0.12395 -1.43716,0.21392 -2.1307,0.43358 -0.84934,0.28607 -1.75504,0.91692 1.34075,-0.88958 0.0782,-0.0456 -0.15639,0.0914 -0.23181,0.14151 -0.16626,0.11034 -0.33026,0.24091 -0.48814,0.36224 -0.25411,0.20248 -0.30088,0.25366 -0.58614,0.42255 -1.1707,0.69314 -2.29247,1.50154 -3.61062,1.87705 -0.87838,0.14789 -1.75258,0.15607 -2.56093,-0.27046 -0.68562,-0.35217 -1.36322,-0.71868 -2.03942,-1.08868 -0.86947,-0.4574 -1.76508,-0.88672 -2.72821,-1.10634 -0.4036,-0.0558 -0.77243,-0.10173 -1.17767,-0.0354 -0.83173,0.13621 -2.06408,0.98966 1.05863,-0.8166 -0.71121,0.44949 -1.41272,0.91892 -2.0782,1.43397 -1.08549,0.6353 -2.03178,1.32642 -3.20318,1.70712 -0.6258,0.21239 -1.26122,0.39188 -1.9231,0.45102 -1.19804,0.12145 -2.42342,0.16435 -3.61706,-0.0154 -0.58602,-0.19406 -0.96215,-0.45315 -1.04223,-1.10621 -0.0431,-0.55993 -0.0138,-1.12226 0.0176,-1.6824 0.0468,-0.49852 0.13602,-0.98792 0.26554,-1.47175 0.0501,-0.5199 0.0318,-0.99232 -0.28469,-1.43432 -0.29574,-0.43746 -0.5649,-0.88784 -0.62056,-1.426 -0.0518,-0.58379 -0.0442,-1.16585 0.01,-1.75008 0.0539,-0.62829 0.13003,-1.25737 0.0775,-1.8887 -0.0342,-0.587 -0.0929,-1.17182 -0.23187,-1.7447 -0.0784,-0.47754 -0.22201,-0.93645 -0.32189,-1.40936 -0.0791,-0.46684 -0.01,-0.90395 0.21561,-1.32501 0.30937,-0.57882 0.65218,-1.1322 1.12023,-1.60042 0.37844,-0.41567 0.67484,-0.88375 0.90049,-1.3997 0.15447,-0.37064 0.29796,-0.78382 0.18322,-1.18334 -0.13926,-0.39443 -0.39608,-0.72223 -0.62854,-1.06626 -0.20739,-0.35113 -0.37724,-0.70879 -0.3552,-1.12737 0.0578,-0.36112 0.15786,-0.71238 0.23566,-1.06916 0.16278,-0.47912 0.42573,-0.90351 0.66907,-1.34475 0.34343,-0.62174 0.56382,-1.13342 0.54564,-1.86366 -0.0198,-0.22059 -0.028,-0.41655 -0.0843,-0.63205 -0.10695,-0.40911 -0.32212,-0.79184 -0.49986,-1.17162 -0.29013,-0.52056 -0.63204,-1.03718 -0.6502,-1.65159 0.0201,-0.48059 0.16836,-0.92984 0.29398,-1.39153 0.13727,-0.44148 0.30402,-0.86672 0.49918,-1.28663 0.19988,-0.45679 0.30161,-0.91459 0.25392,-1.41632 -0.0116,-0.44479 -0.0314,-0.89298 -0.15867,-1.32264 -0.14411,-0.4263 -0.35882,-0.81845 -0.61579,-1.18771 -0.24473,-0.39891 -0.47877,-0.7998 -0.66899,-1.22864 -0.20806,-0.40054 -0.41155,-0.81647 -0.55542,-1.24297 -0.0834,-0.34657 -0.10772,-0.70189 0.0401,-1.03555 0.16428,-0.34989 0.36456,-0.67825 0.65703,-0.93734 0.0697,-0.11549 0.1612,-0.2172 0.22668,-0.3351 0.1183,-0.21302 0.18935,-0.47117 0.23135,-0.70882 0.0507,-0.4181 -0.0192,-0.84655 -0.12363,-1.25191 -0.16477,-0.45058 -0.42847,-0.84713 -0.7322,-1.21723 -0.33156,-0.37944 -0.6485,-0.77116 -0.96131,-1.166 -0.22383,-0.3387 -0.34142,-0.67029 -0.24986,-1.07884 0.0737,-0.37883 0.21584,-0.72193 0.48201,-1.00948 0.25129,-0.34199 0.50972,-0.68757 0.63314,-1.09974 0.0943,-0.40953 0.16967,-0.8194 0.0675,-1.23664 -0.0728,-0.34061 -0.16541,-0.68447 -0.32583,-0.99478 -0.2206,-0.35903 -0.45272,-0.71153 -0.69673,-1.05507 -0.29967,-0.39482 -0.59161,-0.80102 -0.8453,-1.22586 -0.1814,-0.37819 -0.35511,-0.75179 -0.20554,-1.17471 0.16503,-0.50957 0.3863,-1.00361 0.70835,-1.4345 0.31414,-0.43604 0.55773,-0.90586 0.81165,-1.37795 0.18348,-0.45516 0.18041,-0.92112 0.14821,-1.40658 -0.0294,-0.52024 -0.0787,-1.04261 -0.2836,-1.52823 -0.26186,-0.62036 -0.53575,-1.23451 -0.90142,-1.80306 -0.35533,-0.54446 -0.64009,-0.99854 -0.50703,-1.67677 0.03,-0.10308 0.0511,-0.20914 0.0899,-0.30923 0.18033,-0.46512 0.53905,-0.83247 0.82869,-1.22842 0.26257,-0.37819 0.48731,-0.77163 0.58571,-1.22567 0.059,-0.32542 0.0217,-0.66042 0.0469,-0.98967 0.0103,-0.3658 0.0104,-0.72696 -0.0596,-1.08753 -0.0545,-0.34802 -0.17022,-0.67039 -0.35272,-0.97355 -0.14647,-0.33836 -0.272,-0.67732 -0.17275,-1.05045 0.0927,-0.37486 0.2111,-0.74539 0.34743,-1.10626 0.22305,-0.5096 0.43048,-1.02596 0.6557,-1.5348 0.23053,-0.534 0.38254,-1.08559 0.37045,-1.67287 -0.0342,-0.57121 -0.0922,-1.14332 -0.27186,-1.69019 -0.17974,-0.57526 -0.34553,-1.15498 -0.52058,-1.7317 -0.08,-0.54513 -0.15437,-1.11146 0.0102,-1.64869 0.20299,-0.53166 0.49529,-1.01821 0.80241,-1.49626 0.0806,-0.13994 0.1762,-0.27107 0.25382,-0.4127 0.13364,-0.24384 0.20769,-0.52203 0.37498,-0.74924 0.17221,-0.38082 0.31274,-0.78241 0.33275,-1.20321 -0.0206,-0.38426 -0.0497,-0.77104 -0.16652,-1.1403 -0.12358,-0.41136 -0.22666,-0.8253 -0.51317,-1.16268 -0.29006,-0.43494 -0.59182,-0.86483 -0.97187,-1.22762 0,0 2.06807,-1.26732 2.06807,-1.26732 z"
       inkscape:export-filename="/home/joshua/workspace/HurryUpHedgeHog2/src/images/blackHole.png"
       inkscape:export-xdpi="93.177147"
       inkscape:export-ydpi="93.177147" />
    <path
       sodipodi:type="spiral"
       style="fill:#ff6600;stroke:#00a6ff;stroke-width:8.99954203000000064;stroke-linecap:round;stroke-linejoin:miter;stroke-miterlimit:4;stroke-opacity:1;stroke-dasharray:none;filter:url(#filter3970);fill-opacity:1"
       id="path3603"
       sodipodi:cx="220.5"
       sodipodi:cy="179.86218"
       sodipodi:expansion="1"
       sodipodi:revolution="1"
       sodipodi:radius="35.22517"
       sodipodi:argument="-8.4321423"
       sodipodi:t0="0"
       d="m 220.5,179.86218 c -2.89549,-4.43725 4.55279,-6.09225 7.375,-4.8125 7.64802,3.46804 6.77713,14.01507 2.25,19.5625 -8.09796,9.92305 -23.32206,8.08404 -31.75,-0.31249 -12.36834,-12.32225 -9.45891,-32.76587 2.87499,-43.9375"
       transform="matrix(0.81101265,-0.65795052,0.47634874,0.587164,-44.077003,220.39364)"
       inkscape:export-filename="/home/joshua/workspace/HurryUpHedgeHog2/src/images/blackHole.png"
       inkscape:export-xdpi="93.177147"
       inkscape:export-ydpi="93.177147" />
    <path
       d="m 220.5,179.86218 c -2.89549,-4.43725 4.55279,-6.09225 7.375,-4.8125 7.64802,3.46804 6.77713,14.01507 2.25,19.5625 -8.09796,9.92305 -23.32206,8.08404 -31.75,-0.31249 -12.36834,-12.32225 -9.45891,-32.76587 2.87499,-43.9375"
       sodipodi:t0="0"
       sodipodi:argument="-8.4321423"
       sodipodi:radius="35.22517"
       sodipodi:revolution="1"
       sodipodi:expansion="1"
       sodipodi:cy="179.86218"
       sodipodi:cx="220.5"
       id="path3605"
       style="fill:#ff6600;stroke:#00bfff;stroke-width:8.99954188000000066;stroke-linecap:round;stroke-linejoin:miter;stroke-miterlimit:4;stroke-opacity:1;stroke-dasharray:none;filter:url(#filter3966);fill-opacity:0.48372093"
       sodipodi:type="spiral"
       transform="matrix(0.25021204,0.737447,-0.90666621,0.48356219,327.4737,-68.774229)"
       inkscape:export-filename="/home/joshua/workspace/HurryUpHedgeHog2/src/images/blackHole.png"
       inkscape:export-xdpi="93.177147"
       inkscape:export-ydpi="93.177147" />
    <path
       transform="matrix(-0.91264623,0.0589457,0.22743459,-0.87987831,380.18643,325.45527)"
       sodipodi:type="spiral"
       style="fill:#ff6600;stroke:#5fbfff;stroke-width:8.99954203999999791;stroke-linecap:round;stroke-linejoin:miter;stroke-miterlimit:4;stroke-opacity:1;stroke-dasharray:none;filter:url(#filter3962);fill-opacity:0.33023256"
       id="path3607"
       sodipodi:cx="220.5"
       sodipodi:cy="179.86218"
       sodipodi:expansion="1"
       sodipodi:revolution="1"
       sodipodi:radius="35.22517"
       sodipodi:argument="-8.4321423"
       sodipodi:t0="0"
       d="m 220.5,179.86218 c -2.89549,-4.43725 4.55279,-6.09225 7.375,-4.8125 7.64802,3.46804 6.77713,14.01507 2.25,19.5625 -8.09796,9.92305 -23.32206,8.08404 -31.75,-0.31249 -12.36834,-12.32225 -9.45891,-32.76587 2.87499,-43.9375"
       inkscape:export-filename="/home/joshua/workspace/HurryUpHedgeHog2/src/images/blackHole.png"
       inkscape:export-xdpi="93.177147"
       inkscape:export-ydpi="93.177147" />
    <path
       sodipodi:type="arc"
       style="fill:url(#radialGradient3992);fill-opacity:1;stroke:none"
       id="path3906"
       sodipodi:cx="138.875"
       sodipodi:cy="180.98718"
       sodipodi:rx="13.375"
       sodipodi:ry="13.375"
       d="m 152.25,180.98718 a 13.375,13.375 0 1 1 -26.75,0 13.375,13.375 0 1 1 26.75,0 z"
       transform="matrix(0.15251197,0.11752653,-0.19578787,0.25407023,234.005,119.03203)"
       inkscape:export-filename="/home/joshua/workspace/HurryUpHedgeHog2/src/images/blackHole.png"
       inkscape:export-xdpi="93.177147"
       inkscape:export-ydpi="93.177147" />
  </g>
</svg>
