<?xml version="1.0" encoding="UTF-8" standalone="no"?>
<!-- Created with Inkscape (http://www.inkscape.org/) -->

<svg
   xmlns:dc="http://purl.org/dc/elements/1.1/"
   xmlns:cc="http://creativecommons.org/ns#"
   xmlns:rdf="http://www.w3.org/1999/02/22-rdf-syntax-ns#"
   xmlns:svg="http://www.w3.org/2000/svg"
   xmlns="http://www.w3.org/2000/svg"
   xmlns:xlink="http://www.w3.org/1999/xlink"
   xmlns:sodipodi="http://sodipodi.sourceforge.net/DTD/sodipodi-0.dtd"
   xmlns:inkscape="http://www.inkscape.org/namespaces/inkscape"
   width="744.09448819"
   height="1052.3622047"
   id="svg2888"
   version="1.1"
   inkscape:version="0.47 r22583"
   sodipodi:docname="standardEnabledCell.svg">
  <defs
     id="defs2890">
    <linearGradient
       id="linearGradient3704">
      <stop
         style="stop-color:#ffffff;stop-opacity:1;"
         offset="0"
         id="stop3706" />
      <stop
         style="stop-color:#000000;stop-opacity:0;"
         offset="1"
         id="stop3708" />
    </linearGradient>
    <inkscape:perspective
       sodipodi:type="inkscape:persp3d"
       inkscape:vp_x="0 : 526.18109 : 1"
       inkscape:vp_y="0 : 1000 : 0"
       inkscape:vp_z="744.09448 : 526.18109 : 1"
       inkscape:persp3d-origin="372.04724 : 350.78739 : 1"
       id="perspective2896" />
    <radialGradient
       inkscape:collect="always"
       xlink:href="#linearGradient3704"
       id="radialGradient3710"
       cx="177.83736"
       cy="149.74037"
       fx="177.83736"
       fy="149.74037"
       r="37.416"
       gradientTransform="matrix(1,0,0,0.37162439,0,94.093197)"
       gradientUnits="userSpaceOnUse" />
  </defs>
  <sodipodi:namedview
     id="base"
     pagecolor="#ffffff"
     bordercolor="#666666"
     borderopacity="1.0"
     inkscape:pageopacity="0.0"
     inkscape:pageshadow="2"
     inkscape:zoom="1"
     inkscape:cx="197.06928"
     inkscape:cy="875.7657"
     inkscape:document-units="px"
     inkscape:current-layer="layer1"
     showgrid="false"
     inkscape:window-width="1600"
     inkscape:window-height="850"
     inkscape:window-x="0"
     inkscape:window-y="25"
     inkscape:window-maximized="1" />
  <metadata
     id="metadata2893">
    <rdf:RDF>
      <cc:Work
         rdf:about="">
        <dc:format>image/svg+xml</dc:format>
        <dc:type
           rdf:resource="http://purl.org/dc/dcmitype/StillImage" />
        <dc:title></dc:title>
      </cc:Work>
    </rdf:RDF>
  </metadata>
  <g
     inkscape:label="Layer 1"
     inkscape:groupmode="layer"
     id="layer1">
    <rect
       style="fill:#008000;fill-opacity:0.73953485;stroke:none"
       id="rect2898"
       width="100"
       height="100"
       x="174.28572"
       y="126.6479"
       inkscape:export-filename="/home/joshua/workspace/HurryUpHedgeHog2/src/images/standardEnabledCell.png"
       inkscape:export-xdpi="93.177147"
       inkscape:export-ydpi="93.177147" />
    <path
       style="fill:#008000;fill-opacity:0.73488375;stroke:none"
       id="path3708"
       d="m 189.68899,141.86401 c 0.70269,0.4643 1.36856,1.00736 1.91761,1.64972 0.158,0.18485 0.29786,0.38445 0.44679,0.57668 0.78256,1.11587 1.28242,2.40173 1.7415,3.67736 0.26583,0.7247 0.36273,1.46928 0.33064,2.23518 -0.006,0.0836 -0.0114,0.16728 -0.0171,0.25093 0,0 -2.32682,1.16117 -2.32682,1.16117 l 0,0 c 0.008,-0.0829 0.0165,-0.16569 0.0248,-0.24854 0.0615,-0.74082 0.006,-1.46163 -0.23395,-2.1729 -0.4066,-1.26665 -0.90455,-2.52251 -1.67007,-3.61899 -0.68425,-0.84433 -1.42541,-1.59058 -2.40743,-2.08441 0,0 2.19403,-1.4262 2.19403,-1.4262 z"
       inkscape:export-filename="/home/joshua/workspace/HurryUpHedgeHog2/src/images/standardEnabledCell.png"
       inkscape:export-xdpi="93.177147"
       inkscape:export-ydpi="93.177147" />
    <path
       style="fill:#008000;fill-opacity:0.73488375;stroke:none"
       id="path3710"
       d="m 192.47538,138.78857 c 0.45314,0.79528 0.95584,1.56125 1.4424,2.33652 0.48838,0.6816 0.92204,1.3869 1.18033,2.18699 0.13399,0.44839 0.16745,0.91407 0.17746,1.37905 0.003,0.35672 -0.003,0.71344 -0.006,1.07016 0.002,0.35528 -0.0146,0.711 0.009,1.06565 0.0548,0.39562 0.0953,0.79255 0.17981,1.18314 0.073,0.30243 0.11135,0.61068 0.13721,0.92016 0,0 -2.32132,1.20453 -2.32132,1.20453 l 0,0 c -0.0193,-0.29866 -0.0487,-0.59688 -0.11723,-0.88893 -0.0885,-0.3999 -0.13237,-0.80379 -0.19224,-1.20891 -0.0509,-0.36109 -0.023,-0.72581 -0.0272,-1.08984 0.002,-0.35575 0.007,-0.71147 0.0108,-1.0672 3e-5,-0.44477 -0.0105,-0.89206 -0.11992,-1.32606 -0.2233,-0.78945 -0.64161,-1.47846 -1.10834,-2.14914 -0.49261,-0.78311 -0.98673,-1.56483 -1.52421,-2.31842 0,0 2.27912,-1.2977 2.27912,-1.2977 z"
       inkscape:export-filename="/home/joshua/workspace/HurryUpHedgeHog2/src/images/standardEnabledCell.png"
       inkscape:export-xdpi="93.177147"
       inkscape:export-ydpi="93.177147" />
    <path
       style="fill:#008000;fill-opacity:0.73488375;stroke:none"
       id="path3712"
       d="m 200.19168,136.24486 c -0.24565,0.64109 -0.34805,1.32626 -0.54235,1.98161 -0.0696,0.23471 -0.15767,0.46353 -0.2365,0.6953 -0.1022,0.27221 -0.19079,0.54992 -0.30658,0.81664 -0.54742,1.26099 -1.20889,2.47316 -1.77868,3.72382 -0.556,1.22041 -0.58891,1.38085 -1.04115,2.61498 -0.11889,0.37906 -0.23778,0.75811 -0.35667,1.13716 0,0 -2.17597,1.02466 -2.17597,1.02466 l 0,0 c 0.12766,-0.3868 0.25532,-0.77359 0.38298,-1.16038 0.42658,-1.15336 0.53479,-1.50336 1.04407,-2.641 0.66192,-1.47861 1.4651,-2.90254 1.96361,-4.4501 0.0705,-0.21861 0.15043,-0.43438 0.21141,-0.65582 0.17827,-0.64739 0.27184,-1.3201 0.46901,-1.96275 0,0 2.36682,-1.12412 2.36682,-1.12412 z"
       inkscape:export-filename="/home/joshua/workspace/HurryUpHedgeHog2/src/images/standardEnabledCell.png"
       inkscape:export-xdpi="93.177147"
       inkscape:export-ydpi="93.177147" />
    <path
       style="fill:#008000;fill-opacity:0.73488375;stroke:none"
       id="path3714"
       d="m 193.19649,150.29064 c 1.13952,-1.13916 2.37776,-2.1735 3.55265,-3.27471 0.44973,-0.42152 0.88529,-0.85792 1.32793,-1.28688 1.92869,-1.92944 3.64134,-4.06266 5.12649,-6.34901 0,0 2.26833,-0.99354 2.26833,-0.99354 l 0,0 c -1.55684,2.31701 -3.3418,4.47473 -5.2903,6.47336 -0.43097,0.42689 -0.85576,0.86011 -1.29291,1.28067 -1.09135,1.04991 -2.23591,2.04741 -3.27625,3.14939 0,0 -2.41594,1.00072 -2.41594,1.00072 z"
       inkscape:export-filename="/home/joshua/workspace/HurryUpHedgeHog2/src/images/standardEnabledCell.png"
       inkscape:export-xdpi="93.177147"
       inkscape:export-ydpi="93.177147" />
    <path
       style="fill:#008000;fill-opacity:0.73488375;stroke:none"
       id="path3716"
       d="m 193.74154,148.48116 c 0.86555,-1.4281 1.67466,-2.89106 2.45414,-4.36771 0,0 2.1744,-0.98034 2.1744,-0.98034 l 0,0 c -0.72934,1.44441 -1.48614,2.87349 -2.24204,4.30388 0,0 -2.3865,1.04417 -2.3865,1.04417 z"
       inkscape:export-filename="/home/joshua/workspace/HurryUpHedgeHog2/src/images/standardEnabledCell.png"
       inkscape:export-xdpi="93.177147"
       inkscape:export-ydpi="93.177147" />
    <path
       style="fill:#008000;fill-opacity:0.73488375;stroke:none"
       id="path3718"
       d="m 239.53839,148.6659 c -0.18511,-0.2548 -0.45681,-0.63585 -0.6447,-0.85049 -0.38599,-0.44094 -1.03978,-1.06413 -1.44668,-1.45743 -0.87327,-0.8441 -0.99762,-0.95672 -1.89013,-1.80003 -0.30651,-0.2932 -0.61302,-0.58639 -0.91953,-0.87959 0,0 2.03763,-1.25363 2.03763,-1.25363 l 0,0 c 0.30234,0.29445 0.60468,0.5889 0.90703,0.88335 1.41986,1.32326 2.91211,2.58095 4.20786,4.02875 0,0 -2.25148,1.32907 -2.25148,1.32907 z"
       inkscape:export-filename="/home/joshua/workspace/HurryUpHedgeHog2/src/images/standardEnabledCell.png"
       inkscape:export-xdpi="93.177147"
       inkscape:export-ydpi="93.177147" />
    <path
       style="fill:#008000;fill-opacity:0.73488375;stroke:none"
       id="path3720"
       d="m 239.21331,147.78748 c -0.27373,-0.60124 -0.45048,-1.23315 -0.59702,-1.87511 -0.19091,-0.91168 -0.39469,-1.81809 -0.66115,-2.71115 -0.45276,-1.39611 -1.11126,-2.73512 -1.93992,-3.94777 -0.18084,-0.26463 -0.38326,-0.51384 -0.57489,-0.77076 -0.19383,-0.21577 -0.38765,-0.43154 -0.58148,-0.6473 0,0 2.11635,-1.27771 2.11635,-1.27771 l 0,0 c 0.19217,0.22503 0.38433,0.45005 0.5765,0.67508 1.05928,1.46881 2.02717,3.03126 2.62283,4.75103 0.29371,0.8879 0.51529,1.79356 0.71032,2.70776 0.14118,0.61756 0.29919,1.23958 0.60758,1.79823 0,0 -2.27912,1.2977 -2.27912,1.2977 z"
       inkscape:export-filename="/home/joshua/workspace/HurryUpHedgeHog2/src/images/standardEnabledCell.png"
       inkscape:export-xdpi="93.177147"
       inkscape:export-ydpi="93.177147" />
    <path
       style="fill:#008000;fill-opacity:0.73488375;stroke:none"
       id="path3722"
       d="m 239.26435,146.9687 c 0.25655,-1.21006 0.50222,-2.41839 0.85359,-3.60535 0.61284,-1.79216 1.34163,-3.54085 2.00894,-5.31279 0.66243,-1.87077 1.39735,-3.72078 2.37048,-5.45452 0.43781,-0.78001 0.88668,-1.45711 1.36759,-2.20637 0,0 2.19898,-0.96411 2.19898,-0.96411 l 0,0 c -0.51871,0.77472 -0.94928,1.39256 -1.4204,2.20616 -0.98474,1.70063 -1.74529,3.52081 -2.32593,5.39652 -0.61042,1.77166 -1.34576,3.49462 -1.94947,5.26877 -0.33935,1.15362 -0.58787,2.32222 -0.75758,3.51276 0,0 -2.3462,1.15893 -2.3462,1.15893 z"
       inkscape:export-filename="/home/joshua/workspace/HurryUpHedgeHog2/src/images/standardEnabledCell.png"
       inkscape:export-xdpi="93.177147"
       inkscape:export-ydpi="93.177147" />
    <path
       style="fill:#008000;fill-opacity:0.73488375;stroke:none"
       id="path3724"
       d="m 241.25578,145.18643 c 0.48247,-0.45516 0.96121,-0.91411 1.43737,-1.37594 0.94873,-0.98142 2.10405,-1.71027 3.23049,-2.46574 0.37088,-0.22579 0.73956,-0.45525 1.11264,-0.67739 1.74229,-1.03739 0.77235,-0.42414 2.57295,-1.51403 1.39254,-0.84289 2.7621,-1.72218 4.12927,-2.60529 1.49465,-0.99894 0.7888,-0.51264 2.12119,-1.4536 0,0 2.2417,-0.8834 2.2417,-0.8834 l 0,0 c -1.38697,0.96905 -0.65612,0.46997 -2.19566,1.4927 -2.54052,1.63948 -5.1058,3.23687 -7.72099,4.75488 -1.07982,0.7328 -2.19132,1.42807 -3.10927,2.36685 -0.45825,0.46056 -0.93532,0.90249 -1.3981,1.3579 0,0 -2.42159,1.00306 -2.42159,1.00306 z"
       inkscape:export-filename="/home/joshua/workspace/HurryUpHedgeHog2/src/images/standardEnabledCell.png"
       inkscape:export-xdpi="93.177147"
       inkscape:export-ydpi="93.177147" />
    <path
       style="fill:#008000;fill-opacity:0.73488375;stroke:none"
       id="path3726"
       d="m 241.63541,144.05657 c 0.85929,0.12653 1.72371,0.20492 2.5902,0.26221 2.11096,0.18554 4.2303,0.23381 6.34819,0.25977 0,0 -1.95971,1.4184 -1.95971,1.4184 l 0,0 c -2.14671,-0.0514 -4.29473,-0.0789 -6.43867,-0.20773 -0.89583,-0.0508 -1.7898,-0.12888 -2.68218,-0.22224 0,0 2.14217,-1.51041 2.14217,-1.51041 z"
       inkscape:export-filename="/home/joshua/workspace/HurryUpHedgeHog2/src/images/standardEnabledCell.png"
       inkscape:export-xdpi="93.177147"
       inkscape:export-ydpi="93.177147" />
    <path
       style="fill:#008000;fill-opacity:0.73488375;stroke:none"
       id="path3728"
       d="m 241.21543,144.69122 c 0.29021,-0.76281 0.64678,-1.49231 1.03697,-2.20803 0.63688,-1.03695 1.47801,-1.97224 2.43641,-2.72457 0.23869,-0.18738 0.49462,-0.3517 0.74192,-0.52754 3.25928,-1.88898 1.87403,-1.28345 4.00981,-2.11936 0,0 -1.89214,1.49137 -1.89214,1.49137 l 0,0 c -1.56219,0.67892 -1.45319,0.68486 0.17796,-0.27492 -0.24866,0.16764 -0.50596,0.32313 -0.74598,0.50292 -0.94837,0.71043 -1.76012,1.62406 -2.4075,2.61173 -0.37444,0.69171 -0.7326,1.38406 -0.98203,2.13281 0,0 -2.37542,1.11559 -2.37542,1.11559 z"
       inkscape:export-filename="/home/joshua/workspace/HurryUpHedgeHog2/src/images/standardEnabledCell.png"
       inkscape:export-xdpi="93.177147"
       inkscape:export-ydpi="93.177147" />
    <path
       style="fill:#008000;fill-opacity:0.73488375;stroke:none"
       id="path3730"
       d="m 238.32402,147.85914 c -0.92901,0.0591 -1.84646,0.21719 -2.77204,0.31245 -0.24089,0.0254 -0.48179,0.0508 -0.72269,0.0762 0,0 2.00749,-1.49287 2.00749,-1.49287 l 0,0 c 0.24538,-0.0288 0.49077,-0.0577 0.73615,-0.0865 0.95735,-0.1168 1.90844,-0.28902 2.87186,-0.3501 0,0 -2.12077,1.54083 -2.12077,1.54083 z"
       inkscape:export-filename="/home/joshua/workspace/HurryUpHedgeHog2/src/images/standardEnabledCell.png"
       inkscape:export-xdpi="93.177147"
       inkscape:export-ydpi="93.177147" />
    <path
       style="fill:#008000;fill-opacity:0.73488375;stroke:none"
       id="path3732"
       d="m 243.26103,146.42214 c 1.46846,0.61069 3.04108,0.93912 4.58332,1.30744 2.53542,0.63593 5.13189,0.94014 7.72003,1.2648 0,0 -1.89187,1.33938 -1.89187,1.33938 l 0,0 c -2.61448,-0.31675 -5.22688,-0.67054 -7.80113,-1.23744 -1.60493,-0.35132 -3.22118,-0.68596 -4.77949,-1.21414 0,0 2.16914,-1.46004 2.16914,-1.46004 z"
       inkscape:export-filename="/home/joshua/workspace/HurryUpHedgeHog2/src/images/standardEnabledCell.png"
       inkscape:export-xdpi="93.177147"
       inkscape:export-ydpi="93.177147" />
    <path
       style="fill:#008000;fill-opacity:0.73488375;stroke:none"
       id="path3734"
       d="m 216.25504,200.93876 c -0.12097,-0.89117 -0.55089,-1.74957 -1.05994,-2.4822 -0.23275,-0.33499 -0.49921,-0.64525 -0.74882,-0.96787 -1.62827,-1.94034 -3.53255,-3.61791 -5.42229,-5.29446 -1.99497,-1.76991 -1.23236,-1.10998 -3.21283,-2.75408 0,0 1.89715,-1.18467 1.89715,-1.18467 l 0,0 c 2.26166,1.94201 0.85064,0.72097 3.19285,2.77232 1.92155,1.68292 3.87175,3.34422 5.60241,5.22903 0.27298,0.31992 0.56216,0.6267 0.81894,0.95976 0.56686,0.73523 1.03839,1.59156 1.25083,2.49919 0,0 -2.3183,1.22298 -2.3183,1.22298 z"
       inkscape:export-filename="/home/joshua/workspace/HurryUpHedgeHog2/src/images/standardEnabledCell.png"
       inkscape:export-xdpi="93.177147"
       inkscape:export-ydpi="93.177147" />
    <path
       style="fill:#008000;fill-opacity:0.73488375;stroke:none"
       id="path3736"
       d="m 213.75419,196.69842 c -0.53291,-1.66453 -0.92467,-3.37172 -1.34355,-5.06807 -0.3275,-1.52522 -0.79544,-3.06872 -0.65784,-4.64345 0.11823,-0.49397 0.0372,-0.26135 0.23597,-0.70028 0,0 2.35622,-1.05739 2.35622,-1.05739 l 0,0 c -0.24235,0.37939 -0.13967,0.17227 -0.29851,0.62599 -0.0258,0.14837 -0.0648,0.29504 -0.0775,0.4451 -0.11892,1.41215 0.31149,2.81307 0.56108,4.18495 0.40927,1.672 0.82511,3.35886 1.50978,4.94327 0,0 -2.28567,1.26988 -2.28567,1.26988 z"
       inkscape:export-filename="/home/joshua/workspace/HurryUpHedgeHog2/src/images/standardEnabledCell.png"
       inkscape:export-xdpi="93.177147"
       inkscape:export-ydpi="93.177147" />
    <path
       style="fill:#008000;fill-opacity:0.73488375;stroke:none"
       id="path3738"
       d="m 214.67457,195.81792 c -0.017,-1.33986 0.33183,-2.62599 0.70675,-3.89986 0.45451,-1.31458 1.08136,-2.5594 1.94291,-3.65791 0.39781,-0.50724 0.85141,-0.96813 1.27711,-1.4522 0,0 2.08643,-0.8803 2.08643,-0.8803 l 0,0 c -0.40728,0.46598 -0.83991,0.91096 -1.22185,1.39793 -0.83723,1.06746 -1.45216,2.26499 -1.88285,3.54777 -0.34872,1.22274 -0.68612,2.46796 -0.56895,3.75251 0,0 -2.33955,1.19206 -2.33955,1.19206 z"
       inkscape:export-filename="/home/joshua/workspace/HurryUpHedgeHog2/src/images/standardEnabledCell.png"
       inkscape:export-xdpi="93.177147"
       inkscape:export-ydpi="93.177147" />
    <path
       style="fill:#008000;fill-opacity:0.73488375;stroke:none"
       id="path3740"
       d="m 214.92782,196.27193 c 0.94431,-0.66063 1.94558,-1.18264 2.95964,-1.76157 0.10273,-0.0587 0.20835,-0.11301 0.31764,-0.15826 0.41167,-0.17043 0.83563,-0.30952 1.25218,-0.46764 0.99594,-0.30614 1.9385,-0.76848 2.92566,-1.09694 0.7153,-0.238 3.17126,-0.91728 3.75838,-1.08228 0,0 -1.74085,1.34156 -1.74085,1.34156 l 0,0 c -1.3901,0.41615 -2.55425,0.74241 -3.90661,1.22354 -1.00899,0.35898 -1.9851,0.8117 -3.00033,1.15522 -0.24005,0.0954 -0.48163,0.18712 -0.72017,0.28626 -0.19486,0.081 -0.3891,0.1638 -0.57985,0.25405 -0.10773,0.051 -0.41746,0.23005 -0.31491,0.16932 3.79991,-2.25041 2.29798,-1.39138 1.67638,-0.95571 -0.0633,0.0444 -0.12454,0.0917 -0.18681,0.13761 0,0 -2.44035,0.95484 -2.44035,0.95484 z"
       inkscape:export-filename="/home/joshua/workspace/HurryUpHedgeHog2/src/images/standardEnabledCell.png"
       inkscape:export-xdpi="93.177147"
       inkscape:export-ydpi="93.177147" />
    <path
       style="fill:#008000;fill-opacity:0.73488375;stroke:none"
       id="path3742"
       d="m 218.88484,193.37873 c 1.58786,-0.602 3.1755,-1.2108 4.72707,-1.90256 0.69576,-0.3102 1.3806,-0.64433 2.0709,-0.9665 0,0 -1.70424,1.3562 -1.70424,1.3562 l 0,0 c -0.7094,0.33414 -1.4142,0.67823 -2.1282,1.00243 -1.64954,0.74901 -3.33538,1.4125 -5.00349,2.11772 0,0 2.03796,-1.60729 2.03796,-1.60729 z"
       inkscape:export-filename="/home/joshua/workspace/HurryUpHedgeHog2/src/images/standardEnabledCell.png"
       inkscape:export-xdpi="93.177147"
       inkscape:export-ydpi="93.177147" />
    <path
       style="fill:#008000;fill-opacity:0.73488375;stroke:none"
       id="path3744"
       d="m 218.61064,193.23601 c 0.63675,-0.30457 3.95074,-2.18533 0.95625,-0.49825 0,0 2.27889,-0.8795 2.27889,-0.8795 l 0,0 c -1.74782,1.02406 -3.48033,2.08629 -5.28971,3.00151 0,0 2.05457,-1.62376 2.05457,-1.62376 z"
       inkscape:export-filename="/home/joshua/workspace/HurryUpHedgeHog2/src/images/standardEnabledCell.png"
       inkscape:export-xdpi="93.177147"
       inkscape:export-ydpi="93.177147" />
    <path
       style="fill:#008000;fill-opacity:0.73488375;stroke:none"
       id="path3746"
       d="m 217.56771,192.56258 c 1.37083,-1.35907 2.60007,-2.8513 3.79416,-4.36515 1.45072,-1.92391 0.72856,-0.95328 2.16616,-2.91214 0,0 2.09136,-0.90423 2.09136,-0.90423 l 0,0 c -1.42329,1.95265 -0.71326,0.985 -2.12986,2.90312 -1.11174,1.46925 -2.26076,2.91166 -3.50024,4.27535 0,0 -2.42158,1.00305 -2.42158,1.00305 z"
       inkscape:export-filename="/home/joshua/workspace/HurryUpHedgeHog2/src/images/standardEnabledCell.png"
       inkscape:export-xdpi="93.177147"
       inkscape:export-ydpi="93.177147" />
    <path
       style="fill:#008000;fill-opacity:0.73488375;stroke:none"
       id="path3748"
       d="m 237.54701,203.83332 c 1.08294,-2.58751 1.37771,-5.42747 1.70328,-8.18726 0.15884,-2.44095 0.24626,-3.19399 0.24232,-5.7069 -0.002,-1.02853 -0.0512,-2.05642 -0.0769,-3.08462 0,0 1.79849,-0.9227 1.79849,-0.9227 l 0,0 c 0.0898,2.9158 0.1928,5.83603 -0.023,8.75009 -0.23479,2.70875 -0.45667,5.45561 -1.27198,8.06511 0,0 -2.37223,1.08628 -2.37223,1.08628 z"
       inkscape:export-filename="/home/joshua/workspace/HurryUpHedgeHog2/src/images/standardEnabledCell.png"
       inkscape:export-xdpi="93.177147"
       inkscape:export-ydpi="93.177147" />
    <path
       style="fill:#008000;fill-opacity:0.73488375;stroke:none"
       id="path3750"
       d="m 239.06976,202.0051 c 0.10465,-1.44268 0.43063,-2.86319 0.73625,-4.27425 0.40313,-1.62169 0.88054,-3.25109 1.6065,-4.76274 0.63722,-1.3269 1.22647,-2.22176 1.99795,-3.4934 0,0 2.02803,-0.89892 2.02803,-0.89892 l 0,0 c -0.82967,1.40056 -1.21686,1.96718 -1.88375,3.40414 -0.69282,1.4928 -1.16744,3.08513 -1.5396,4.68397 -0.29419,1.36132 -0.62647,2.74883 -0.60584,4.14914 0,0 -2.33954,1.19206 -2.33954,1.19206 z"
       inkscape:export-filename="/home/joshua/workspace/HurryUpHedgeHog2/src/images/standardEnabledCell.png"
       inkscape:export-xdpi="93.177147"
       inkscape:export-ydpi="93.177147" />
    <path
       style="fill:#008000;fill-opacity:0.73488375;stroke:none"
       id="path3752"
       d="m 239.46222,200.65592 c 0.21959,-1.07383 0.49422,-2.1248 0.99899,-3.10604 0.17747,-0.34499 0.38383,-0.67434 0.57575,-1.01152 0.83516,-1.26995 1.75146,-2.50195 2.81251,-3.59479 1.27835,-1.31665 2.71482,-2.4638 4.14364,-3.60881 1.39384,-1.06877 0.7282,-0.57354 1.9924,-1.49174 0,0 2.25227,-0.88925 2.25227,-0.88925 l 0,0 c -1.34103,0.93686 -0.638,0.43149 -2.104,1.52321 -1.4382,1.12468 -2.87046,2.25445 -4.14729,3.56602 -1.03778,1.06603 -1.93542,2.262 -2.74088,3.50979 -0.18291,0.32482 -0.37958,0.64226 -0.54874,0.97445 -0.47935,0.94132 -0.74884,1.94855 -0.88834,2.99095 0,0 -2.34631,1.13773 -2.34631,1.13773 z"
       inkscape:export-filename="/home/joshua/workspace/HurryUpHedgeHog2/src/images/standardEnabledCell.png"
       inkscape:export-xdpi="93.177147"
       inkscape:export-ydpi="93.177147" />
    <path
       style="fill:#008000;fill-opacity:0.73488375;stroke:none"
       id="path3754"
       d="m 238.36457,201.8062 c 0.14693,-1.17297 0.003,-2.34773 -0.17666,-3.50754 -0.41966,-2.23677 -1.03416,-4.45833 -2.01277,-6.52075 -0.27371,-0.57683 -0.59418,-1.13027 -0.89126,-1.69541 -0.92584,-1.60064 -1.93401,-3.15346 -3.08013,-4.60596 -0.30705,-0.38912 -0.63648,-0.76006 -0.95471,-1.14009 0,0 2.01438,-1.20553 2.01438,-1.20553 l 0,0 c 1.45206,1.85586 2.81691,3.7739 3.97982,5.82797 0.75761,1.37179 1.07585,1.85069 1.66133,3.27082 0.65105,1.57919 1.08142,3.25247 1.45787,4.91395 0.21611,1.14297 0.41181,2.30453 0.33783,3.47244 0,0 -2.3357,1.1901 -2.3357,1.1901 z"
       inkscape:export-filename="/home/joshua/workspace/HurryUpHedgeHog2/src/images/standardEnabledCell.png"
       inkscape:export-xdpi="93.177147"
       inkscape:export-ydpi="93.177147" />
    <path
       style="fill:#008000;fill-opacity:0.73488375;stroke:none"
       id="path3756"
       d="m 237.74993,201.2696 c -1.15964,-1.7983 -2.71222,-3.30659 -4.20343,-4.82657 -0.67556,-0.69314 -1.59662,-1.61199 -2.21888,-2.35525 -0.38622,-0.46133 -0.73747,-0.95084 -1.10621,-1.42627 0,0 1.96106,-1.17101 1.96106,-1.17101 l 0,0 c 1.05681,1.30223 2.1175,2.60173 3.37115,3.72508 1.51906,1.54568 3.10562,3.04271 4.44689,4.74959 0,0 -2.25058,1.30443 -2.25058,1.30443 z"
       inkscape:export-filename="/home/joshua/workspace/HurryUpHedgeHog2/src/images/standardEnabledCell.png"
       inkscape:export-xdpi="93.177147"
       inkscape:export-ydpi="93.177147" />
    <path
       style="fill:#008000;fill-opacity:0.73488375;stroke:none"
       id="path3758"
       d="m 186.24218,201.41966 c 0.48851,-1.30168 0.25592,-2.33437 -0.0416,-3.6593 -0.67125,-1.98221 -0.28392,-0.95729 -1.18349,-3.06655 0,0 1.98977,-1.12158 1.98977,-1.12158 l 0,0 c 0.97784,2.0898 0.53981,1.0766 1.32884,3.03318 0.34458,1.23981 0.67572,2.42175 0.27328,3.69013 0,0 -2.36682,1.12412 -2.36682,1.12412 z"
       inkscape:export-filename="/home/joshua/workspace/HurryUpHedgeHog2/src/images/standardEnabledCell.png"
       inkscape:export-xdpi="93.177147"
       inkscape:export-ydpi="93.177147" />
    <path
       style="fill:#008000;fill-opacity:0.73488375;stroke:none"
       id="path3760"
       d="m 187.09741,199.53023 c 0.0199,-0.13709 0.0283,-0.27637 0.0598,-0.41126 0.18033,-0.77087 0.41448,-1.41622 0.69277,-2.1715 0.65205,-1.76963 1.42518,-3.46652 2.23303,-5.16936 1.09876,-2.26059 2.32967,-4.45172 3.61599,-6.60962 0,0 2.13476,-0.94383 2.13476,-0.94383 l 0,0 c -1.34908,2.14598 -2.63431,4.33305 -3.71803,6.62782 -0.77782,1.67144 -1.5263,3.3305 -2.11049,5.0815 -0.25359,0.76009 -0.41873,1.28372 -0.54358,2.04227 -0.0196,0.11932 -0.0165,0.24128 -0.0248,0.36192 0,0 -2.33954,1.19206 -2.33954,1.19206 z"
       inkscape:export-filename="/home/joshua/workspace/HurryUpHedgeHog2/src/images/standardEnabledCell.png"
       inkscape:export-xdpi="93.177147"
       inkscape:export-ydpi="93.177147" />
    <path
       style="fill:#008000;fill-opacity:0.73488375;stroke:none"
       id="path3762"
       d="m 188.20593,199.47081 c 0.87419,-1.09042 1.9932,-1.93839 3.06923,-2.81632 1.37595,-1.14539 2.80708,-2.22118 4.25836,-3.26839 0,0 2.20129,-0.87029 2.20129,-0.87029 l 0,0 c -1.44072,1.03222 -2.86208,2.09359 -4.21839,3.23573 -1.01306,0.83999 -2.08676,1.64047 -2.8975,2.68834 0,0 -2.41299,1.03093 -2.41299,1.03093 z"
       inkscape:export-filename="/home/joshua/workspace/HurryUpHedgeHog2/src/images/standardEnabledCell.png"
       inkscape:export-xdpi="93.177147"
       inkscape:export-ydpi="93.177147" />
    <path
       style="fill:#008000;fill-opacity:0.73488375;stroke:none"
       id="path3764"
       d="m 187.16565,198.35324 c 1.04918,-2.08257 2.92732,-3.59936 4.68999,-5.05734 1.2764,-1.01962 2.62023,-1.94898 3.9392,-2.91162 0,0 2.17562,-0.86152 2.17562,-0.86152 l 0,0 c -1.33035,0.96421 -2.68868,1.89023 -3.97681,2.91141 -1.20552,0.99182 -2.25774,1.87468 -3.2829,3.05824 -0.36265,0.41867 -0.72527,0.86788 -0.99549,1.35619 -0.0733,0.13253 -0.11825,0.27891 -0.17738,0.41836 0,0 -2.37223,1.08628 -2.37223,1.08628 z"
       inkscape:export-filename="/home/joshua/workspace/HurryUpHedgeHog2/src/images/standardEnabledCell.png"
       inkscape:export-xdpi="93.177147"
       inkscape:export-ydpi="93.177147" />
    <path
       style="fill:#008000;fill-opacity:0.73488375;stroke:none"
       id="path3766"
       d="m 187.292,194.87518 c 0.55232,-2.04284 0.8106,-4.14739 1.08555,-6.24079 0.36949,-3.3828 0.70028,-6.76906 0.97081,-10.16112 0,0 1.865,-0.93139 1.865,-0.93139 l 0,0 c -0.27563,3.36245 -0.51202,6.72775 -0.80893,10.08851 -0.10759,1.12348 -0.18883,2.24958 -0.31195,3.37148 -0.11522,1.05 -0.1232,0.78739 -0.28437,1.72852 -0.19688,1.14964 0.005,0.18903 -0.1699,0.98586 0,0 -2.34621,1.15893 -2.34621,1.15893 z"
       inkscape:export-filename="/home/joshua/workspace/HurryUpHedgeHog2/src/images/standardEnabledCell.png"
       inkscape:export-xdpi="93.177147"
       inkscape:export-ydpi="93.177147" />
    <path
       style="fill:#008000;fill-opacity:0.73488375;stroke:none"
       id="path3768"
       d="m 189.25633,194.39353 c -0.0573,0.7609 -0.009,1.51694 0.11081,2.26873 0,0 -2.2504,1.19111 -2.2504,1.19111 l 0,0 c -0.11677,-0.75303 -0.18936,-1.50893 -0.19226,-2.2717 0,0 2.33185,-1.18814 2.33185,-1.18814 z"
       inkscape:export-filename="/home/joshua/workspace/HurryUpHedgeHog2/src/images/standardEnabledCell.png"
       inkscape:export-xdpi="93.177147"
       inkscape:export-ydpi="93.177147" />
    <path
       style="fill:#502d16;fill-opacity:0.73488375;stroke:none"
       id="path3770"
       d="m 187.36496,200.44834 c 0.71423,0.13921 1.43641,0.26595 2.1457,0.43337 0.43664,0.0831 0.90308,0.29266 1.33958,0.12708 0.80016,-0.37693 1.94152,-1.04343 -1.80946,1.04928 -0.0591,0.033 0.11362,-0.0744 0.16473,-0.11873 0.1534,-0.13317 0.19441,-0.20458 0.31686,-0.36572 0.21176,-0.39015 0.32723,-0.6676 -0.10994,-0.91965 -0.63,-0.27387 -1.31346,-0.21602 -1.97234,-0.1002 -0.72417,0.17585 -1.46069,0.36406 -2.09368,0.76915 0.67416,-0.38221 1.34832,-0.76442 2.02248,-1.14663 -0.0649,0.0722 -0.30436,0.22461 -0.24056,0.36589 0.0542,0.12002 0.22191,0.1833 0.31818,0.23745 0.8358,0.3891 1.7761,0.43924 2.68264,0.49909 0,0 -2.07496,1.48391 -2.07496,1.48391 l 0,0 c -0.94548,-0.0796 -1.92583,-0.14818 -2.78778,-0.57936 -0.20429,-0.14001 -0.33359,-0.18824 -0.44957,-0.41509 -0.50298,-0.98379 3.27226,-2.69584 2.54521,-2.07581 0.67006,-0.33783 1.40133,-0.53548 2.13534,-0.6804 0.71772,-0.0888 1.45253,-0.112 2.10935,0.24047 0.0746,0.0568 0.15838,0.1033 0.22392,0.17038 0.30145,0.30852 0.22948,0.75749 0.0751,1.11116 -0.67103,1.09145 -1.8955,1.75667 -3.14157,2.05457 -0.47174,0.0241 -0.92321,-0.1272 -1.37737,-0.23698 -0.71363,-0.16463 -1.43432,-0.32352 -2.16402,-0.39283 0,0 2.14217,-1.5104 2.14217,-1.5104 z"
       inkscape:export-filename="/home/joshua/workspace/HurryUpHedgeHog2/src/images/standardEnabledCell.png"
       inkscape:export-xdpi="93.177147"
       inkscape:export-ydpi="93.177147" />
    <path
       style="fill:#502d16;fill-opacity:0.73488375;stroke:none"
       id="path3772"
       d="m 183.34647,200.5386 c -0.53841,-0.004 -1.07445,0.0847 -1.61086,0.13132 -0.21382,0.0351 -0.43555,0.007 -0.64949,0.0353 -0.056,0.007 -0.21339,0.0685 -0.16448,0.0403 2.17482,-1.25382 2.69753,-0.55115 2.12879,-1.26781 0.006,-0.0186 -0.002,-0.0561 0.0178,-0.0557 0.0227,5.1e-4 0.49457,0.18881 0.51935,0.19748 0,0 -2.15386,1.45891 -2.15386,1.45891 l 0,0 c -0.27622,-0.0925 -0.55524,-0.16084 -0.73667,-0.40602 -0.35398,-1.32634 2.10143,-1.49458 3.1294,-1.54971 0.54631,-0.0484 1.09152,-0.12144 1.64074,-0.12488 0,0 -2.12077,1.54083 -2.12077,1.54083 z"
       inkscape:export-filename="/home/joshua/workspace/HurryUpHedgeHog2/src/images/standardEnabledCell.png"
       inkscape:export-xdpi="93.177147"
       inkscape:export-ydpi="93.177147" />
    <path
       style="fill:#502d16;fill-opacity:0.73488375;stroke:none"
       id="path3774"
       d="m 186.64021,199.91927 c 0.82111,0.2508 1.64451,0.4959 2.47919,0.69962 0.14327,0.0823 0.76119,0.0904 0.86878,0.27366 0.52525,0.89483 -1.62011,1.56479 -2.58722,1.5783 -0.41255,-0.0263 -0.88962,0.10497 -1.28087,-0.0828 -0.0704,-0.0338 -0.12771,-0.0898 -0.19156,-0.13469 -0.3583,-0.41845 -0.73512,-0.78379 -1.22608,-1.04167 -0.59359,-0.23052 -1.217,-0.36633 -1.84768,-0.44235 -0.66269,-0.10098 -1.14736,0.0586 -1.72875,0.34587 0.68255,-0.38809 1.36509,-0.77619 2.04764,-1.16429 0.0123,0.03 -0.16178,0.0765 -0.14773,0.14372 0.026,0.12426 0.19897,0.15883 0.30753,0.22462 0,0 -2.17337,1.3971 -2.17337,1.3971 l 0,0 c -0.10597,-0.0708 -0.22404,-0.1261 -0.31791,-0.21226 -0.95806,-0.87945 2.19781,-2.14126 2.32008,-2.00568 0.57819,-0.24172 1.17862,-0.33004 1.80198,-0.21953 0.6531,0.0946 1.30256,0.24438 1.90521,0.52027 0.47856,0.27851 0.86943,0.64191 1.25285,1.03713 0.42181,0.20485 0.92047,0.0964 1.37239,0.0863 1.08648,-0.16969 -0.19944,0.002 -1.87913,1.22727 -0.0607,0.0443 0.11082,0.10205 0.15921,0.1595 0.016,0.019 -0.0381,-0.0334 -0.0611,-0.043 -0.21529,-0.0901 -0.46349,-0.14534 -0.68439,-0.20467 -0.8462,-0.20996 -1.68227,-0.47031 -2.53825,-0.63455 0,0 2.14917,-1.50788 2.14917,-1.50788 z"
       inkscape:export-filename="/home/joshua/workspace/HurryUpHedgeHog2/src/images/standardEnabledCell.png"
       inkscape:export-xdpi="93.177147"
       inkscape:export-ydpi="93.177147" />
    <path
       style="fill:#502d16;fill-opacity:0.73488375;stroke:none"
       id="path3776"
       d="m 182.60321,200.38368 c 0.67735,0.53093 1.38917,1.01449 2.16312,1.39236 1.41193,0.60637 2.94172,0.85864 4.4588,1.03535 0,0 -2.05925,1.45562 -2.05925,1.45562 l 0,0 c -1.53498,-0.22283 -3.07257,-0.52449 -4.52037,-1.09473 -0.78778,-0.39769 -1.51368,-0.88974 -2.24919,-1.37556 0,0 2.20689,-1.41304 2.20689,-1.41304 z"
       inkscape:export-filename="/home/joshua/workspace/HurryUpHedgeHog2/src/images/standardEnabledCell.png"
       inkscape:export-xdpi="93.177147"
       inkscape:export-ydpi="93.177147" />
    <path
       style="fill:#502d16;fill-opacity:0.73488375;stroke:none"
       id="path3778"
       d="m 190.69362,201.11782 c 0.73039,0.0352 1.45787,0.014 2.18652,-0.0386 0.52601,-0.0617 1.07507,-0.14014 1.55251,-0.38745 0.0978,-0.0507 0.37496,-0.23145 0.27853,-0.1781 -0.65454,0.36208 -1.30224,0.7364 -1.95336,1.1046 1.00927,-0.66602 2.05261,-1.86951 3.31061,-1.66016 0.25597,0.0426 0.32591,0.0894 0.55886,0.19028 0.32051,0.22813 0.16761,0.10654 0.45913,0.36425 0,0 -2.20224,1.37366 -2.20224,1.37366 l 0,0 c -0.26414,-0.21634 -0.12626,-0.12024 -0.41254,-0.2899 -0.20946,-0.0696 -0.27341,-0.1084 -0.50189,-0.11019 -0.0845,-6.6e-4 -0.32185,0.075 -0.25184,0.0277 0.63277,-0.4269 1.31159,-0.78133 1.96171,-1.18131 0.0854,-0.0525 -0.1829,0.084 -0.26697,0.13864 -0.0884,0.0575 -0.16548,0.13088 -0.24821,0.19633 -1.86401,1.11168 -2.4371,1.77241 -4.34709,1.93145 -0.74893,0.0461 -1.49794,0.0499 -2.24799,0.0621 0,0 2.12426,-1.54336 2.12426,-1.54336 z"
       inkscape:export-filename="/home/joshua/workspace/HurryUpHedgeHog2/src/images/standardEnabledCell.png"
       inkscape:export-xdpi="93.177147"
       inkscape:export-ydpi="93.177147" />
    <path
       style="fill:#502d16;fill-opacity:0.73488375;stroke:none"
       id="path3780"
       d="m 192.24651,199.41595 c -4.36513,2.62732 -0.93276,0.35509 0.62054,-0.35266 0.093,-0.0424 0.19438,-0.0648 0.28677,-0.1085 0.2108,-0.0997 0.40745,-0.22691 0.61262,-0.33773 0.56331,-0.22158 1.14394,-0.39764 1.71738,-0.59281 0,0 -2.03985,1.58654 -2.03985,1.58654 l 0,0 c -0.56761,0.19213 -1.15053,0.35266 -1.68719,0.62339 -0.30058,0.16034 -0.60781,0.30389 -0.91119,0.45825 -0.0813,0.0414 -0.31908,0.17686 -0.24041,0.13071 0.85757,-0.50309 5.02901,-2.91754 -0.40673,0.23106 0,0 2.04806,-1.63825 2.04806,-1.63825 z"
       inkscape:export-filename="/home/joshua/workspace/HurryUpHedgeHog2/src/images/standardEnabledCell.png"
       inkscape:export-xdpi="93.177147"
       inkscape:export-ydpi="93.177147" />
    <path
       style="fill:#502d16;fill-opacity:0.73488375;stroke:none"
       id="path3782"
       d="m 190.02067,200.07303 c 0.74361,0.87173 1.63528,1.58468 2.53188,2.2901 1.19363,0.92147 2.52947,1.59629 3.91177,2.17858 0,0 -2.03964,1.35568 -2.03964,1.35568 l 0,0 c -1.36823,-0.63664 -2.71113,-1.32893 -3.92632,-2.2335 -0.96209,-0.67371 -1.89087,-1.37818 -2.71255,-2.22134 0,0 2.23486,-1.36952 2.23486,-1.36952 z"
       inkscape:export-filename="/home/joshua/workspace/HurryUpHedgeHog2/src/images/standardEnabledCell.png"
       inkscape:export-xdpi="93.177147"
       inkscape:export-ydpi="93.177147" />
    <path
       style="fill:#502d16;fill-opacity:0.73488375;stroke:none"
       id="path3784"
       d="m 215.7541,200.29719 c -0.63865,0.24296 -1.27472,0.49457 -1.92525,0.70432 -0.75194,0.21603 -1.52639,0.32069 -2.30464,0.37666 -0.48319,0.0227 -0.2422,0.0136 -0.72295,0.0273 0,0 2.08094,-1.52269 2.08094,-1.52269 l 0,0 c 0.47551,-0.0187 0.23738,-0.007 0.71436,-0.0359 0.76997,-0.0689 1.5381,-0.18299 2.27328,-0.43145 0.65332,-0.22703 1.30889,-0.45474 1.93232,-0.7565 0,0 -2.04806,1.63825 -2.04806,1.63825 z"
       inkscape:export-filename="/home/joshua/workspace/HurryUpHedgeHog2/src/images/standardEnabledCell.png"
       inkscape:export-xdpi="93.177147"
       inkscape:export-ydpi="93.177147" />
    <path
       style="fill:#502d16;fill-opacity:0.73488375;stroke:none"
       id="path3786"
       d="m 211.37916,199.26204 c 0.16872,0.55383 0.45881,1.03471 0.84784,1.45812 0.42906,0.42759 0.98193,0.6279 1.5558,0.77364 0,0 -2.11957,1.45496 -2.11957,1.45496 l 0,0 c -0.61108,-0.17919 -1.1924,-0.41797 -1.64072,-0.88968 -0.41658,-0.44886 -0.71433,-0.96202 -0.94211,-1.53101 0,0 2.29876,-1.26603 2.29876,-1.26603 z"
       inkscape:export-filename="/home/joshua/workspace/HurryUpHedgeHog2/src/images/standardEnabledCell.png"
       inkscape:export-xdpi="93.177147"
       inkscape:export-ydpi="93.177147" />
    <path
       style="fill:#502d16;fill-opacity:0.73488375;stroke:none"
       id="path3788"
       d="m 216.20766,199.70741 c 1.5278,0.17064 2.99949,0.64229 4.49527,0.97859 0.99323,0.21909 1.97436,0.48674 2.96148,0.73109 0,0 -2.0214,1.39339 -2.0214,1.39339 l 0,0 c -0.9782,-0.2532 -1.95226,-0.524 -2.94034,-0.73708 -1.5215,-0.33504 -3.03979,-0.80996 -4.60879,-0.83024 0,0 2.11378,-1.53575 2.11378,-1.53575 z"
       inkscape:export-filename="/home/joshua/workspace/HurryUpHedgeHog2/src/images/standardEnabledCell.png"
       inkscape:export-xdpi="93.177147"
       inkscape:export-ydpi="93.177147" />
    <path
       style="fill:#502d16;fill-opacity:0.73488375;stroke:none"
       id="path3790"
       d="m 210.1681,199.84875 c 0.90802,0.0286 1.81668,0.0356 2.72508,0.0456 0.50518,0.004 1.01037,0.005 1.51555,0.003 0.16146,-6.4e-4 0.58132,-0.0138 0.75302,0.0229 0.10922,0.0234 0.20933,0.078 0.31399,0.11701 0.62425,0.34499 0.98705,1.00468 1.39225,1.56936 0.34107,0.51764 0.82323,0.86667 1.39308,1.09054 0.29605,0.10675 0.59711,0.13068 0.90787,0.13796 0,0 -2.10125,1.50595 -2.10125,1.50595 l 0,0 c -0.32927,-0.0342 -0.65285,-0.077 -0.96116,-0.20785 -0.59434,-0.27363 -1.10423,-0.65592 -1.45995,-1.21597 -0.36854,-0.52343 -0.70967,-1.1442 -1.3111,-1.42353 -0.80925,-0.20648 -1.67265,-0.0429 -2.49818,-0.10816 -0.9218,-0.005 -1.84714,-0.0382 -2.76697,0.0276 0,0 2.09777,-1.56434 2.09777,-1.56434 z"
       inkscape:export-filename="/home/joshua/workspace/HurryUpHedgeHog2/src/images/standardEnabledCell.png"
       inkscape:export-xdpi="93.177147"
       inkscape:export-ydpi="93.177147" />
    <path
       style="fill:#502d16;fill-opacity:0.73488375;stroke:none"
       id="path3792"
       d="m 217.04909,200.61152 c 1.13556,-0.62086 -1.00697,0.61416 -1.53449,0.87616 -0.15039,0.0747 0.26477,-0.207 0.38971,-0.31919 0.3964,-0.35595 0.73271,-0.76072 1.06573,-1.17423 0.35092,-0.3638 0.74747,-1.27531 1.17795,-1.52622 0.80742,-0.47062 1.63428,-0.90711 2.45142,-1.36066 0.56261,0.0267 1.07221,0.26908 1.55548,0.539 0,0 -2.16889,1.41736 -2.16889,1.41736 l 0,0 c -0.43751,-0.22754 -0.93446,-0.47428 -1.43825,-0.35285 0.67093,-0.40005 1.34231,-0.79933 2.01278,-1.20014 0.0785,-0.0469 -0.16634,0.0803 -0.23693,0.13853 -0.43378,0.35755 -0.65651,0.92238 -1.01344,1.34336 -0.32925,0.4256 -0.66473,0.83303 -1.04524,1.21465 -0.11865,0.119 -0.2222,0.25859 -0.36394,0.34885 -1.10109,0.70112 -1.88848,1.13802 -2.88076,1.69278 0,0 2.02887,-1.6374 2.02887,-1.6374 z"
       inkscape:export-filename="/home/joshua/workspace/HurryUpHedgeHog2/src/images/standardEnabledCell.png"
       inkscape:export-xdpi="93.177147"
       inkscape:export-ydpi="93.177147" />
    <path
       style="fill:#502d16;fill-opacity:0.73488375;stroke:none"
       id="path3794"
       d="m 215.71333,199.92077 c -0.20478,-0.6453 -0.5971,-1.21717 -1.0321,-1.72845 -0.56133,-0.65613 -1.23834,-1.1322 -2.05361,-1.42445 -0.30281,-0.10855 -0.61564,-0.18683 -0.92345,-0.28024 -2.0123,-0.46995 -4.05702,-0.77708 -6.11115,-0.98905 -0.19682,-0.0164 -0.39363,-0.0327 -0.59045,-0.0491 0,0 2.06355,-1.46777 2.06355,-1.46777 l 0,0 c 0.19074,0.0228 0.38148,0.0455 0.57222,0.0683 2.0399,0.28576 4.07328,0.62627 6.08822,1.05511 0.68275,0.19569 1.10413,0.28174 1.73129,0.58031 0.56536,0.26915 1.00038,0.73698 1.42238,1.1845 0.45426,0.54032 0.86049,1.12971 1.13186,1.78485 0,0 -2.29876,1.26603 -2.29876,1.26603 z"
       inkscape:export-filename="/home/joshua/workspace/HurryUpHedgeHog2/src/images/standardEnabledCell.png"
       inkscape:export-xdpi="93.177147"
       inkscape:export-ydpi="93.177147" />
    <path
       style="fill:#502d16;fill-opacity:0.73488375;stroke:none"
       id="path3796"
       d="m 213.18321,196.92317 c 0.43135,0.53435 0.87111,1.06965 1.406,1.5028 0.43993,0.31844 0.97838,0.67 1.54989,0.65375 0.0866,-0.002 0.1699,-0.0344 0.25485,-0.0515 1.11908,-0.83982 -2.4687,2.05852 -1.77065,0.83225 0,0 2.35582,-1.10771 2.35582,-1.10771 l 0,0 c -0.0166,0.0928 0.0265,0.22322 -0.0499,0.27844 -1.91854,1.38608 -1.52433,1.25966 -2.62295,1.54056 -0.71604,-0.0164 -1.34989,-0.32895 -1.89665,-0.78236 -0.5379,-0.45805 -0.9947,-0.99791 -1.47081,-1.51862 0,0 2.24445,-1.34757 2.24445,-1.34757 z"
       inkscape:export-filename="/home/joshua/workspace/HurryUpHedgeHog2/src/images/standardEnabledCell.png"
       inkscape:export-xdpi="93.177147"
       inkscape:export-ydpi="93.177147" />
    <path
       style="fill:#502d16;fill-opacity:0.73488375;stroke:none"
       id="path3798"
       d="m 207.50916,196.19561 c 0.0433,0.0566 0.0865,0.11309 0.12976,0.16964 0,0 -2.23607,1.34109 -2.23607,1.34109 l 0,0 c -0.0487,-0.0549 -0.0974,-0.10969 -0.14604,-0.16454 0,0 2.25235,-1.34619 2.25235,-1.34619 z"
       inkscape:export-filename="/home/joshua/workspace/HurryUpHedgeHog2/src/images/standardEnabledCell.png"
       inkscape:export-xdpi="93.177147"
       inkscape:export-ydpi="93.177147" />
    <path
       style="fill:#502d16;fill-opacity:0.73488375;stroke:none"
       id="path3800"
       d="m 205.24619,159.64659 c 0.96496,0.29446 1.95382,0.49506 2.95105,0.64066 0.79757,0.0402 1.6466,0.2827 2.44372,0.0933 0.10687,-0.0254 0.20623,-0.0757 0.30935,-0.11361 0.39951,-0.19651 0.7813,-0.40988 1.20523,-0.55257 0,0 -2.05104,1.60458 -2.05104,1.60458 l 0,0 c -0.40537,0.16546 -0.78123,0.39553 -1.20124,0.52422 -0.91678,0.19278 -1.85093,0.006 -2.76871,-0.10317 -1.02411,-0.15366 -2.03309,-0.37522 -3.0418,-0.6081 0,0 2.15344,-1.48536 2.15344,-1.48536 z"
       inkscape:export-filename="/home/joshua/workspace/HurryUpHedgeHog2/src/images/standardEnabledCell.png"
       inkscape:export-xdpi="93.177147"
       inkscape:export-ydpi="93.177147" />
    <path
       style="fill:#502d16;fill-opacity:0.73488375;stroke:none"
       id="path3802"
       d="m 219.83956,161.99808 c 0.18586,-0.32684 0.26311,-0.69968 0.43221,-1.03425 0.13729,-0.27165 0.18973,-0.32074 0.36796,-0.5587 1.97669,-1.78609 3.09525,-1.82248 5.33347,-1.7822 1.09731,0.009 2.19265,0.0494 3.28785,0.11499 0,0 -2.04196,1.46276 -2.04196,1.46276 l 0,0 c -1.08233,-0.0807 -2.16563,-0.13475 -3.2516,-0.12067 -0.52135,0.009 -1.01068,0.003 -1.52765,0.0577 -0.1788,0.0189 -0.35706,0.0461 -0.53283,0.0839 -0.16065,0.0346 -0.60864,0.22837 -0.47469,0.13316 0.36515,-0.25952 2.74278,-1.62847 1.58783,-0.96236 -0.46256,0.50773 -0.58577,0.88671 -0.7911,1.52457 0,0 -2.38949,1.08108 -2.38949,1.08108 z"
       inkscape:export-filename="/home/joshua/workspace/HurryUpHedgeHog2/src/images/standardEnabledCell.png"
       inkscape:export-xdpi="93.177147"
       inkscape:export-ydpi="93.177147" />
    <path
       style="fill:#502d16;fill-opacity:0.73488375;stroke:none"
       id="path3804"
       d="m 235.6186,164.60229 c 0.76646,0.26527 1.57144,0.39013 2.36426,0.54896 0.73596,0.20236 1.48865,0.33402 2.22735,0.52378 0.54486,0.13699 1.08759,0.28791 1.61306,0.48752 0.25163,0.0784 0.49358,0.1826 0.7404,0.2744 0,0 -2.15767,1.45096 -2.15767,1.45096 l 0,0 c -0.24379,-0.0946 -0.48697,-0.19136 -0.73571,-0.27252 -0.52167,-0.17924 -1.04968,-0.34271 -1.58513,-0.47563 -0.73193,-0.18303 -1.47325,-0.32826 -2.20198,-0.52528 -0.81573,-0.16201 -1.6344,-0.31531 -2.43624,-0.53874 0,0 2.17166,-1.47345 2.17166,-1.47345 z"
       inkscape:export-filename="/home/joshua/workspace/HurryUpHedgeHog2/src/images/standardEnabledCell.png"
       inkscape:export-xdpi="93.177147"
       inkscape:export-ydpi="93.177147" />
    <path
       style="fill:#502d16;fill-opacity:0.73488375;stroke:none"
       id="path3806"
       d="m 208.83474,161.33391 c -0.0683,0.017 -0.13823,0.0283 -0.2048,0.051 -0.28283,0.0966 -0.693,0.333 -0.55219,0.25088 3.53876,-2.06381 2.17967,-1.36596 1.51642,-0.77226 -0.0513,0.068 -0.37089,0.41653 -0.20981,0.52984 0.0394,0.0277 0.241,0.0713 0.26325,0.0768 0.45785,0.0737 0.95277,0.0547 1.39273,-0.10163 -2.20594,1.81873 -1.53366,1.43786 -2.98486,1.5915 -0.25155,0.0266 -0.49488,0.0655 -0.72135,0.17851 0.75838,-0.49414 1.493,-1.02683 2.27515,-1.48243 0.0674,-0.0393 0.15529,0.0155 0.23309,0.0214 0.10225,0.008 0.20458,0.0147 0.30701,0.0198 0.23793,0.0117 0.47583,0.0114 0.71395,0.012 2.07615,0.0248 4.15547,-0.0595 6.22837,-0.17776 1.24899,-0.10515 2.51471,-0.14178 3.74635,-0.39838 0.20653,-0.043 0.41385,-0.0913 0.60983,-0.16935 0.11004,-0.0438 0.40222,-0.25006 0.29862,-0.19262 -0.71455,0.3962 -1.4214,0.80614 -2.1321,1.20921 -0.40735,-0.16418 -0.85948,-0.24559 -1.28387,-0.38128 -1.17794,-0.34434 -2.40439,-0.48755 -3.61437,-0.6756 -1.08415,-0.15979 -2.17844,-0.26594 -3.27384,-0.30679 -0.22962,-0.009 -0.95528,-0.0397 -1.26587,0.0458 -0.0452,0.0125 -0.0671,0.0655 -0.10067,0.0983 0.76795,-0.50256 1.48482,-1.09357 2.30386,-1.50768 0.1467,-0.0742 0.32134,0.07 0.48322,0.0985 0.89904,0.15863 1.7986,0.26361 2.6862,0.483 0.11076,0.0442 0.24437,0.0519 0.33228,0.13246 0.0652,0.0597 0.15905,0.20078 0.0862,0.25097 -0.82409,0.56788 -1.70303,1.06032 -2.60831,1.48701 -0.22267,0.10495 -0.48851,0.0613 -0.73322,0.088 -0.72796,0.0793 -1.09843,0.10717 -1.83105,0.17052 -0.49525,0.0442 -0.88198,0.0748 -1.36483,0.12991 -0.16556,0.0189 -0.34819,2.5e-4 -0.49301,0.0827 -0.0242,0.0138 -0.068,0.0848 -0.0436,0.0713 0.72952,-0.40367 1.44551,-0.83133 2.16826,-1.24699 -0.79242,0.45326 -1.58484,0.90652 -2.37727,1.35978 -0.0374,0.02 -0.14851,0.0819 -0.1121,0.0602 0.7333,-0.43825 1.49391,-0.83315 2.20292,-1.30969 0.0429,-0.0288 -0.049,-0.10584 -0.0272,-0.15268 0.0278,-0.0596 0.26657,-0.0174 0.27649,-0.0164 0.41802,0.0875 0.5451,0.46112 0.62792,0.83429 0.0184,0.0638 0.0267,0.1313 0.0551,0.19131 0.33062,0.70027 1.61527,1.28452 2.24363,1.612 0.47422,0.26546 0.98746,0.45716 1.46209,0.72208 0.14257,0.0796 0.29268,0.15494 0.40907,0.26945 0.10449,0.1028 0.23144,0.41986 0.0333,0.5411 -0.83837,0.5129 -1.7391,0.91612 -2.60865,1.37418 -1.33341,0.0816 -1.98122,0.54319 1.00247,-0.96815 0.0201,-0.0102 -0.006,0.0527 0.0118,0.0664 0.11239,0.0863 0.23452,0.16155 0.36296,0.22148 0.254,0.11851 0.5205,0.2081 0.78076,0.31215 2.33168,0.75155 4.76306,1.1777 7.1971,1.42568 0.19021,0.004 0.6131,0.0495 0.83487,-0.0405 0.0534,-0.0217 0.17566,-0.14727 0.12524,-0.11931 -3.82828,2.12338 -2.06337,1.98766 -2.14866,1.03381 -0.0725,-0.51773 -0.15272,-0.60651 -0.62459,-0.82043 0,0 2.1663,-1.429 2.1663,-1.429 l 0,0 c 0.48665,0.24987 0.69408,0.47619 0.77381,1.02362 0.004,0.0166 0.0778,0.34692 0.0609,0.35936 -1.7104,1.25896 -1.73356,1.63202 -3.2187,1.42814 -2.42424,-0.38852 -4.85191,-0.81454 -7.21664,-1.48236 -0.38347,-0.13838 -1.05608,-0.2994 -1.37011,-0.65274 -0.0928,-0.10437 -0.26198,-0.30616 -0.1509,-0.39079 1.82819,-1.39279 1.92929,-1.28569 3.45434,-1.53117 -0.61538,0.39187 -1.25371,0.74983 -1.84612,1.17561 -0.0609,0.0437 0.16316,0.0327 0.22458,-0.0102 0.0397,-0.0277 0.0287,-0.10802 -0.002,-0.14523 -0.0929,-0.11159 -0.21954,-0.192 -0.34266,-0.26899 -0.29277,-0.18311 -1.16284,-0.60578 -1.4322,-0.73996 -0.84432,-0.42183 -2.19709,-0.94863 -2.54269,-1.92399 -0.0525,-0.29141 -0.10955,-0.53562 -0.45132,-0.54407 -0.17368,-0.009 -0.77079,-0.0929 -0.53228,-0.28123 0.44564,-0.35184 5.45733,-3.26993 0.24904,-0.22468 0.7796,-0.45372 1.55157,-0.92083 2.33881,-1.36116 0.061,-0.0341 0.13985,0.005 0.20968,0.002 0.53813,-0.0229 1.07556,-0.0621 1.61264,-0.10163 0.63392,-0.0593 1.21949,-0.10303 1.84854,-0.20585 0.25687,-0.042 0.94409,-0.34542 0.765,-0.15655 -0.49705,0.52421 -1.20943,0.79265 -1.78369,1.2309 -0.0456,0.0348 0.7827,0.10423 -0.14469,-0.0934 -0.65852,-0.17903 -1.31221,-0.28083 -1.98868,-0.37149 -0.2301,-0.0308 -0.46056,-0.059 -0.69064,-0.0899 -0.18248,-0.0245 -0.66289,0.0668 -0.54705,-0.0763 0.52267,-0.64577 1.27156,-1.06954 1.90734,-1.6043 0.41836,0.0489 0.8737,0.0346 1.28894,0.0624 1.09734,0.0737 2.19337,0.17726 3.28369,0.32175 1.25639,0.16416 2.53671,0.26692 3.75662,0.62502 0.39922,0.11828 1.11672,0.20187 1.40058,0.52387 0.0597,0.0677 0.0884,0.15735 0.13256,0.23602 -0.75719,0.49532 -1.5034,1.00783 -2.27156,1.48595 -0.19132,0.11908 -0.71863,0.19995 -0.8645,0.2213 -1.2034,0.17618 -2.42363,0.20241 -3.63454,0.29124 -2.15992,0.12511 -4.32115,0.25952 -6.48261,0.34058 -0.34182,-0.0109 -0.69157,-0.0206 -1.03061,-0.0656 -1.17354,-0.15586 0.25178,-0.48261 1.68608,-1.64597 0.35764,-0.0656 0.71602,-0.10105 1.07918,-0.11893 1.15744,-0.057 0.30348,0.0107 -1.53379,1.55005 -0.49148,0.0429 -0.98453,0.13757 -1.46707,-0.0272 -0.55648,-0.24865 -0.59293,-0.57005 -0.28442,-1.07456 0.94621,-1.07906 2.36071,-1.73616 3.73498,-2.10208 0,0 -2.0982,1.57802 -2.0982,1.57802 z"
       inkscape:export-filename="/home/joshua/workspace/HurryUpHedgeHog2/src/images/standardEnabledCell.png"
       inkscape:export-xdpi="93.177147"
       inkscape:export-ydpi="93.177147" />
    <path
       style="fill:#502d16;fill-opacity:0.73488375;stroke:none"
       id="path3808"
       d="m 217.97279,165.56511 c -0.2077,-0.12323 -0.41225,-0.24559 -0.56045,-0.44171 -0.11864,-0.15701 -0.15944,-0.30871 -0.31004,-0.43805 -1.37976,-0.25947 -2.80064,-0.23841 -4.20002,-0.25056 -1.73013,-0.0121 -2.67263,0.40365 1.03132,-1.49871 0.16804,-0.0863 0.37749,0.0157 0.56633,0.0206 0.27121,0.007 0.54252,0.0104 0.81378,0.0156 1.41793,0.0513 2.87902,-0.12861 4.26111,0.2645 0.62529,0.30973 0.4089,0.63569 0.0428,1.03364 -0.0438,0.0563 -0.1374,0.15418 -0.15347,0.23782 -0.028,0.14556 0.43272,0.28412 0.49684,0.3097 0.21241,0.0283 0.34815,0.20611 0.52453,0.29607 0.2321,0.11838 0.54181,0.15788 0.7905,0.22609 0.1931,0.015 0.37233,0.11481 0.56492,0.13355 0.0481,0.005 0.18545,-0.0451 0.14344,-0.0212 -0.73477,0.41784 -1.49497,0.78987 -2.22978,1.20763 -0.0267,0.0152 -0.0113,0.0932 -0.0403,0.083 -0.12421,-0.0441 -0.2212,-0.14342 -0.33181,-0.21513 -2.4964,-1.09926 -5.20181,-1.62234 -7.86611,-2.13801 -0.8709,-0.2337 -1.79142,-0.2388 -2.66621,-0.45758 -0.11532,-0.0288 -0.41556,-0.0862 -0.32013,-0.15712 0.82479,-0.61267 1.70059,-1.18172 2.6503,-1.57375 0.37008,-0.15277 0.80063,-0.0154 1.201,-0.016 0.5757,-8.8e-4 1.15137,0.008 1.72705,0.0116 0.66218,0.006 1.32434,0.0139 1.98653,0.019 0.63814,0.005 1.27631,0.008 1.91447,0.0111 1.53857,0.007 3.0787,-0.0309 4.59686,0.24904 0.11476,0.0418 0.23664,0.0677 0.34428,0.12546 0.86471,0.46389 -1.11551,1.2147 -2.15678,1.82402 -0.0736,0.0431 -0.16746,0.0325 -0.25077,0.0508 -0.10581,0.0232 -0.21101,0.0491 -0.31651,0.0736 -0.47635,0.0873 -0.95008,0.14729 -1.40878,0.30635 0,0 2.04938,-1.58133 2.04938,-1.58133 l 0,0 c 0.46707,-0.11584 0.94358,-0.17999 1.41036,-0.29745 0.10685,-0.0314 0.21576,-0.0566 0.32056,-0.0943 0.0788,-0.0284 0.29898,-0.1495 0.22895,-0.10355 -0.67751,0.44454 -1.38417,0.8443 -2.05366,1.3008 -0.0283,0.0193 0.0764,0.0605 0.0971,0.0333 0.0791,-0.10379 -0.67437,-0.19436 -0.33981,-0.1945 -1.42563,-0.34196 -2.89338,-0.34013 -4.35261,-0.36408 -0.63234,-0.0104 -1.26471,-0.0203 -1.89713,-0.0218 -0.67464,-0.002 -1.34926,0.008 -2.02389,0.0124 -0.60205,0.0197 -1.20488,0.0228 -1.80615,0.0592 -0.43258,0.0262 -1.38594,0.5521 -1.29375,0.12865 0.14651,-0.67295 1.04037,-0.90274 1.56055,-1.35411 0.0461,0.0533 0.0724,0.1351 0.13834,0.15984 0.30698,0.11511 0.63114,0.17945 0.95157,0.24884 0.52273,0.1132 1.051,0.19908 1.5765,0.29862 1.80237,0.35205 1.80613,0.33997 3.59908,0.74149 1.31682,0.2949 2.64311,0.6017 3.91952,1.0475 0.21569,0.0753 0.42317,0.17237 0.63475,0.25855 0.32814,0.1857 0.82336,0.43231 0.66853,0.55454 -1.85936,1.4678 -1.72877,1.4653 -3.06125,1.11525 -0.14138,-0.0375 -0.46383,-0.11927 -0.60529,-0.17156 -0.2645,-0.0978 -0.47545,-0.27742 -0.7398,-0.3755 -0.40309,-0.18628 -0.89711,-0.47678 -0.58763,-0.97542 0.10962,-0.12479 0.23803,-0.29227 0.3845,-0.37832 0.0284,-0.0167 0.0807,0.005 0.0957,-0.0248 0.0464,-0.0907 -0.33269,-0.20153 -0.24044,-0.18868 -1.34083,-0.392 -2.7683,-0.22491 -4.14566,-0.2596 -0.28452,0.004 -0.56907,0.007 -0.85355,0.0132 -0.20681,0.004 -0.75044,0.17941 -0.6203,0.0186 1.50431,-1.85858 1.46584,-1.51076 3.07272,-1.47804 0.9166,0.0191 1.83466,0.027 2.75067,0.0666 0.31578,0.0136 0.98076,0.0414 1.32378,0.12452 0.1225,0.0297 0.23386,0.0941 0.35079,0.1412 0.18518,0.19693 0.17094,0.26701 0.31039,0.45151 0.13726,0.1816 0.3495,0.27055 0.53913,0.38395 0,0 -2.20688,1.41304 -2.20688,1.41304 z"
       inkscape:export-filename="/home/joshua/workspace/HurryUpHedgeHog2/src/images/standardEnabledCell.png"
       inkscape:export-xdpi="93.177147"
       inkscape:export-ydpi="93.177147" />
    <path
       style="fill:#502d16;fill-opacity:0.73488375;stroke:none"
       id="path3810"
       d="m 229.38819,163.23237 c -0.22328,-0.001 -0.44669,-0.0109 -0.66984,-0.003 -0.25723,0.009 -1.91086,0.12498 -2.0857,0.1377 -1.00146,0.0728 -1.98837,0.16534 -2.98065,0.31758 0.62194,-0.67285 -1.00158,0.45384 -0.7634,0.31564 0.76907,-0.44624 1.47787,-1.00693 2.29167,-1.36518 0.17328,-0.0763 0.37064,0.0778 0.557,0.11114 1.35115,0.24178 1.089,0.1833 2.65837,0.36026 3.9059,0.38264 7.8319,0.34066 11.75081,0.32732 0.69086,0.015 1.01799,-4e-4 1.65758,0.0804 0.0438,0.006 0.47531,0.0614 0.56756,0.15502 0.0493,0.0501 0.14172,0.15087 0.0853,0.19285 -0.73757,0.54915 -1.55292,0.98528 -2.32938,1.47791 -1.54262,-7.8e-4 -3.06186,0.2807 -4.58473,0.4904 -0.94329,0.13009 -1.88873,0.24511 -2.83575,0.34463 -0.47244,0.0496 -0.95008,0.0596 -1.41819,0.1405 -0.12418,0.0215 -0.24143,0.0724 -0.36215,0.10859 0.70375,-0.38997 1.42797,-0.74511 2.11126,-1.16992 0.0356,-0.0221 -0.0602,-0.0871 -0.0352,-0.12076 0.007,-0.009 0.56562,0.0387 0.61275,0.0624 0.053,0.0267 0.0709,0.0951 0.10641,0.14266 -0.80005,0.49538 -1.56916,1.04464 -2.40017,1.48615 -0.12504,0.0664 -0.28298,0.0108 -0.42452,0.0146 -0.21489,0.006 -0.43001,0.004 -0.64475,0.0144 -1.02477,0.0478 -2.04821,0.15563 -3.07048,0.23834 -0.97872,0.0701 -1.95802,0.18017 -2.94092,0.1683 -0.48698,-0.006 -0.73011,0.01 -1.09953,-0.29107 -0.0177,-0.0776 -0.11747,-0.1858 -0.0532,-0.23281 0.76782,-0.56175 1.60304,-1.02618 2.42614,-1.50328 0.11729,-0.068 0.25755,-0.0847 0.38638,-0.12697 0.48293,-0.15823 0.96851,-0.30634 1.45023,-0.46827 0.67635,-0.24723 1.32214,-0.56206 1.98084,-0.85103 0.85535,-0.43935 1.00464,-0.52057 -1.76672,1.02026 -0.0608,0.0338 0.11652,-0.0768 0.16967,-0.1218 0.16797,-0.14205 0.1606,-0.24027 0.12793,-0.44546 -0.28634,-0.87714 -0.56154,-1.68351 -0.71402,-2.59935 -0.14558,-1.41047 0.20399,-1.01372 2.37587,-1.879 0.0253,-0.0101 0.13244,0.2232 0.23184,0.42858 0.29655,0.67505 0.65459,1.32018 1.02772,1.95521 0.26914,0.38614 0.49028,0.83973 0.84806,1.15744 0.27992,0.24857 0.45601,0.31099 0.79244,0.48514 0.82416,0.30861 1.74072,0.53492 2.6298,0.4291 0.13064,-0.0155 0.25636,-0.0593 0.38454,-0.0889 0.66709,-0.34797 2.66912,-1.39543 -1.78688,1.00548 -0.0428,0.023 0.10368,-0.0905 0.0716,-0.12693 -0.0512,-0.0581 -0.14371,-0.0581 -0.21718,-0.0826 -0.17477,-0.0472 -0.37803,-0.0716 -0.54917,0.0115 -0.0587,0.0285 -0.21254,0.15053 -0.15533,0.11914 2.06106,-1.13085 2.64888,-1.75169 1.95977,-1.05108 -0.0266,0.0508 -0.0617,0.098 -0.0797,0.15242 -0.006,0.0196 -0.0409,0.20145 -0.007,0.24569 0.015,0.0197 0.0217,-0.0851 -6.7e-4,-0.0743 -0.76315,0.36692 -1.49047,0.80658 -2.2595,1.16102 -0.0595,0.0274 0.0689,-0.1115 0.10331,-0.16724 0.17196,-0.70036 0.0852,-1.42848 0.0885,-2.14186 0.12009,-1.34989 1.08456,-1.29729 2.61194,-2.07982 0.0125,-0.006 0.64265,0.004 0.66769,0.004 1.73308,0.11456 3.42796,0.54621 5.09423,1.01438 1.83637,0.46082 3.6106,1.14003 5.43576,1.63612 0.10624,0.0185 0.21102,0.0608 0.31873,0.0555 0.0418,-0.002 0.13586,-0.0971 0.0997,-0.0761 -0.74797,0.43395 -1.47022,0.91369 -2.23595,1.31545 -0.0405,0.0213 -0.0676,-0.0626 -0.10668,-0.0863 -0.19255,-0.1165 -0.30738,-0.14445 -0.52539,-0.22365 0,0 2.14402,-1.44048 2.14402,-1.44048 l 0,0 c 0.0436,0.0176 0.92222,0.37119 0.79178,0.48484 -1.81809,1.58413 -1.42663,1.78994 -2.58551,1.40036 -1.75971,-0.63414 -3.53279,-1.22883 -5.34903,-1.68433 -1.68446,-0.45172 -3.40577,-0.89521 -5.16214,-0.87544 -0.12185,0.008 -0.24476,0.007 -0.36554,0.0249 -0.092,0.0138 -0.34805,0.1212 -0.27016,0.0703 0.66696,-0.43582 1.36651,-0.8196 2.04813,-1.23211 0.0542,-0.0328 -0.12274,0.0465 -0.1658,0.0929 -0.0918,0.0991 -0.11598,0.31923 -0.13953,0.43286 -0.0393,0.72867 0.0623,1.46291 -0.0444,2.18788 -0.006,0.0949 0.0612,0.23289 -0.0185,0.28486 -1.15826,0.75516 -2.80507,2.2181 -2.48649,0.55409 0.55406,-0.97823 0.0994,-0.24444 2.48088,-1.61157 0.25078,-0.14395 0.5976,-0.0326 0.84277,0.0529 1.47912,0.83788 -1.35217,1.95134 -2.3017,2.19332 -1.05499,0.11828 -2.11583,-0.0758 -3.09048,-0.49159 -0.3585,-0.19326 -0.56501,-0.276 -0.86814,-0.54656 -0.36914,-0.32949 -0.59403,-0.80111 -0.86753,-1.20321 -0.37702,-0.63775 -0.73414,-1.28678 -1.0585,-1.95311 -0.0399,-0.0708 -0.0758,-0.14407 -0.11983,-0.21237 -0.0245,-0.038 -0.12321,-0.0809 -0.0853,-0.10546 0.72465,-0.46939 1.49746,-0.85991 2.24434,-1.29308 0.0259,-0.015 -0.0667,0.0123 -0.0813,0.0386 -0.0798,0.14425 -0.0471,0.40019 -0.0452,0.53643 0.0464,0.34437 0.0657,0.55825 0.15244,0.8999 0.14537,0.5725 0.39642,1.10681 0.59108,1.66204 0.0871,0.31332 0.17283,0.65633 -0.16655,0.86148 -2.06897,1.25067 -1.62894,1.03882 -2.69088,1.52698 -0.65187,0.27676 -1.28515,0.59792 -1.96366,0.8085 -0.48608,0.15716 -0.97877,0.30075 -1.45507,0.48638 -0.13332,0.052 -0.51172,0.25134 -0.39446,0.16934 1.85858,-1.29968 2.74934,-1.19406 1.86934,-1.2783 0.25459,0.20248 0.5866,0.20218 0.901,0.21303 0.95643,0.033 1.91244,-0.061 2.86435,-0.13542 1.0535,-0.0968 2.10582,-0.2073 3.16028,-0.29317 0.22502,-0.0183 0.45086,-0.0273 0.67542,-0.0506 0.14801,-0.0154 0.55396,-0.16306 0.4416,-0.0655 -0.60812,0.52804 -1.31516,0.93 -1.97274,1.395 0.12,0.0996 0.0964,0.0627 -0.17308,0.0111 -0.0952,-0.0182 -0.19341,-0.0266 -0.28463,-0.0593 -1.04067,-0.3732 -0.29477,-3.09061 2.0106,-1.73219 0.56746,-0.0826 1.14052,-0.10596 1.71136,-0.16115 0.94288,-0.0912 1.88324,-0.20698 2.82071,-0.34286 0.9308,-0.13009 1.86002,-0.29148 2.79347,-0.40096 0.26568,-0.0312 1.14993,-0.0933 1.44552,-0.14499 0.14369,-0.0251 0.28127,-0.0775 0.4219,-0.1162 -0.69213,0.44782 -1.4061,0.86356 -2.07639,1.34346 -0.0329,0.0235 0.13028,0.0543 0.0954,0.0748 -0.0391,0.023 -0.0795,-0.045 -0.12282,-0.0587 -0.59184,-0.18734 -1.2288,-0.18221 -1.83927,-0.23312 -3.90742,-0.12727 -7.82111,-0.0848 -11.72285,-0.37072 -0.77203,-0.0606 -2.02398,-0.13732 -2.83921,-0.26921 -0.23454,-0.0379 -0.82819,0.0314 -0.69355,-0.16436 0.92655,-1.34712 1.48632,-1.60343 2.66945,-1.82179 1.94311,-0.22902 3.89936,-0.33992 5.84939,-0.4928 0,0 -2.1033,1.52814 -2.1033,1.52814 z"
       inkscape:export-filename="/home/joshua/workspace/HurryUpHedgeHog2/src/images/standardEnabledCell.png"
       inkscape:export-xdpi="93.177147"
       inkscape:export-ydpi="93.177147" />
    <path
       style="fill:#502d16;fill-opacity:0.73488375;stroke:none"
       id="path3812"
       d="m 248.91535,205.18297 c 0.79322,0.60392 1.73972,0.94278 2.68193,1.23405 0.72363,0.16437 1.46449,0.43052 2.2195,0.37665 0.0931,-0.007 0.35425,-0.10379 0.2742,-0.0559 -0.69706,0.41682 -1.42483,0.77998 -2.13724,1.16996 0.0136,0.006 0.0476,0.0308 0.0409,0.0175 -0.21199,-0.4155 -1.14722,-0.81009 -1.54699,-0.99265 -0.30674,-0.16185 -1.7653,-0.40234 -1.80976,-0.75286 -0.0118,-0.093 0.0383,-0.18343 0.0574,-0.27515 0.8405,-0.47724 1.66443,-0.98491 2.5215,-1.43171 0.11646,-0.0607 0.99941,-0.24681 1.06865,-0.26133 0.52853,-0.11082 1.0116,-0.17792 1.55017,-0.16621 0.0925,0.0133 0.20697,-0.0215 0.27753,0.0398 0.2424,0.21048 0.0491,0.47859 -0.15438,0.59548 -0.90006,0.51707 -1.8218,0.99908 -2.76498,1.43252 -0.31029,0.1426 -1.56452,0.32391 -1.8029,0.36367 -1.89752,0.18085 -3.82045,0.34242 -5.72621,0.16768 -1.28015,-0.11737 -1.54854,-0.23364 -2.77331,-0.54097 -1.41539,-0.50029 -2.96688,-1.05586 -4.01879,-2.19183 -0.0926,-0.1 -0.15927,-0.22117 -0.23891,-0.33176 -0.0258,-0.086 -0.0686,-0.16857 -0.0774,-0.25788 -0.007,-0.0725 -0.0311,-0.17735 0.0304,-0.21631 0.79706,-0.5048 1.6153,-0.98498 2.47612,-1.37113 0.13372,-0.06 0.29058,0.0392 0.43479,0.0653 0.21047,0.0381 0.41927,0.0849 0.62891,0.12741 0.26703,0.0468 0.53406,0.0936 0.80109,0.1404 2.20758,0.44895 4.45284,0.67299 6.66489,1.09385 1.01825,0.31596 1.53112,0.59709 1.68386,1.68071 0.0336,0.19926 -0.008,0.40245 0.004,0.60191 0.002,0.0269 0.039,0.0669 0.0152,0.0795 -2.37694,1.25249 -1.90878,1.90988 -2.4495,1.05999 -0.23548,-0.24817 -0.59772,-0.54532 -0.95678,-0.56442 0.77528,-0.4421 1.51693,-0.94925 2.32585,-1.32632 0.0844,-0.0393 0.16484,0.0866 0.24917,0.12602 0.12219,0.0571 0.24439,0.11471 0.37018,0.16338 0.42518,0.16453 0.87157,0.27127 1.30681,0.4051 0.84683,0.32374 1.70763,0.59163 2.58453,0.82044 1.40966,0.36203 2.82748,0.70327 4.26104,0.95777 0.86545,0.0703 1.69712,-0.20829 2.50005,-0.49809 0.62348,-0.1793 0.94059,0.0714 1.1957,0.61703 0.11219,0.23939 0.30562,0.40289 0.57339,0.24993 0.0615,-0.0352 0.22303,-0.17252 0.16026,-0.13965 -0.69294,0.36286 -1.37029,0.75471 -2.05544,1.13207 0.0355,-0.0774 0.0875,-0.14921 0.10657,-0.23222 0.11829,-0.51614 -0.27574,-1.03763 -0.5966,-1.38885 -0.0469,-0.0273 -0.20656,-0.15967 -0.29622,-0.0975 -0.0383,0.0265 -0.10043,0.14813 -0.0592,0.12647 0.73058,-0.38395 1.42394,-0.83571 2.15121,-1.2259 0.0348,-0.0187 -0.0514,0.0642 -0.0583,0.10305 -0.007,0.0368 0.0137,0.0736 0.0206,0.11035 0.84916,0.51515 1.909,0.52312 2.87204,0.59958 0.52404,0.0538 0.931,0.0908 1.19731,0.57833 0,0 -2.27506,1.30012 -2.27506,1.30012 l 0,0 c -0.1702,-0.35805 -0.65783,-0.34337 -0.99334,-0.40252 -0.83024,-0.0869 -2.0752,-0.14362 -2.79924,-0.57061 -0.10988,-0.0648 -0.19553,-0.16389 -0.2933,-0.24583 -0.0301,-0.078 -0.0754,-0.15174 -0.0904,-0.23401 -0.0118,-0.0646 -0.0416,-0.15873 0.012,-0.19667 1.12562,-0.79661 1.86427,-2.03213 2.82889,-1.18117 0.45444,0.5541 0.84408,1.19739 0.66659,1.93988 -0.79115,0.50509 -1.57016,1.02971 -2.37345,1.51528 -0.38416,0.23222 -0.81588,-0.12834 -0.97139,-0.45614 -0.21424,-0.48119 -0.47224,-0.47239 -0.95217,-0.32172 -0.83033,0.26807 -1.67663,0.52428 -2.55843,0.37532 -1.41901,-0.30125 -2.82086,-0.67926 -4.23827,-0.98828 -0.89917,-0.20636 -1.78209,-0.45908 -2.63964,-0.80242 -0.57712,-0.18523 -1.16866,-0.33665 -1.72022,-0.59284 -0.10477,-0.0487 -0.39013,-0.0806 -0.30698,-0.16084 0.62005,-0.59802 1.38222,-1.0285 2.07333,-1.54275 0.3662,0.2083 0.76799,0.3784 1.04288,0.71193 0.62122,0.7451 0.0534,0.016 -2.24476,1.32133 -0.0177,0.01 0.0369,0.0431 0.0528,0.0304 0.0366,-0.0293 0.0528,-0.26361 0.0549,-0.2986 0.005,-0.085 0.004,-0.17018 0.005,-0.25527 -0.0725,-0.98624 -0.53263,-1.15298 -1.42863,-1.46148 -2.19513,-0.48603 -4.4323,-0.75259 -6.65366,-1.08826 -0.15295,-0.0221 -1.25227,-0.18641 -1.48223,-0.20178 -0.14152,-0.009 -0.53546,0.0991 -0.42539,0.01 0.61033,-0.4959 1.32299,-0.85051 1.98421,-1.27619 0.0381,-0.0245 -0.0958,0.0316 -0.11478,0.0727 -0.0252,0.0548 -0.001,0.1206 -0.002,0.18091 0.0584,0.10055 0.10189,0.21147 0.17534,0.30164 0.89609,1.10012 2.52843,1.72226 3.81385,2.1737 0.4357,0.10794 0.866,0.24061 1.30708,0.32384 2.36781,0.44679 4.81143,0.23678 7.1806,-0.0692 0.35514,-0.0734 0.71296,-0.13477 1.06543,-0.22007 0.26769,-0.0648 0.99065,-0.42222 0.79363,-0.22978 -0.465,0.45419 -1.11978,0.66541 -1.63942,1.05592 -0.0864,0.0649 0.2103,-0.0551 0.31811,-0.063 0.0412,-0.003 0.16144,0.0304 0.12011,0.0309 -0.0798,0.001 -0.15842,-0.0196 -0.23763,-0.0294 -0.50999,4.8e-4 -0.97719,0.071 -1.47523,0.18943 -1.0915,0.25954 -2.74699,1.12585 0.82965,-0.84976 -0.062,-0.004 -0.12471,-0.0228 -0.18595,-0.0124 -0.015,0.003 -0.0191,0.0365 -0.007,0.0452 0.46532,0.3237 1.16544,0.31017 1.6531,0.60051 0.52838,0.24625 1.4532,0.61457 1.74236,1.16202 0.0454,0.086 0.0602,0.18488 0.0903,0.27733 -0.7975,0.43957 -1.57667,0.91416 -2.3925,1.31871 -0.0735,0.0365 -0.64008,-0.0282 -0.6931,-0.0359 -0.60771,-0.0874 -1.19791,-0.26212 -1.78963,-0.41992 -0.98591,-0.29887 -1.95794,-0.66258 -2.8165,-1.24454 0,0 2.20636,-1.40269 2.20636,-1.40269 z"
       inkscape:export-filename="/home/joshua/workspace/HurryUpHedgeHog2/src/images/standardEnabledCell.png"
       inkscape:export-xdpi="93.177147"
       inkscape:export-ydpi="93.177147" />
    <path
       style="fill:#502d16;fill-opacity:0.73488375;stroke:none"
       id="path3814"
       d="m 193.10228,148.3176 c -0.66683,0.25771 -1.29854,0.59546 -1.92858,0.93217 -1.18091,0.68674 0.89398,-0.52127 1.6124,-0.91262 0.0467,-0.0255 -0.0792,0.0712 -0.11625,0.1094 -0.0442,0.0456 0.12529,0.0212 0.18816,0.0304 0.14098,0.0206 0.2823,0.0389 0.42344,0.0584 1.68135,0.15054 3.36719,-0.069 5.05113,-0.0667 0.13722,0.006 0.28996,-0.0459 0.41166,0.0178 0.0855,0.0447 0.20282,0.20762 0.12309,0.26193 -0.8386,0.57118 -1.73963,1.05488 -2.66557,1.46979 -0.26149,0.11717 -0.56864,0.0712 -0.85295,0.10682 -1.75029,0.21923 -0.80264,0.11653 -2.84227,0.29137 -1.59911,0.1333 -3.20005,0.24252 -4.79955,0.37082 -0.62809,0.0504 -1.33362,0.0446 -1.9428,0.23914 0.74296,-0.48704 1.45223,-1.02984 2.22888,-1.46113 0.10759,-0.0598 0.24587,0.0114 0.36872,0.0186 0.23268,0.0137 0.46545,0.0263 0.69785,0.0442 1.08183,0.0831 2.16138,0.17213 3.24462,0.23781 0.83751,0.0583 1.67434,0.12526 2.5108,0.19696 0,0 -2.05969,1.46307 -2.05969,1.46307 l 0,0 c -0.80351,-0.10468 -1.60852,-0.1977 -2.41751,-0.25001 -1.10247,-0.0708 -2.2055,-0.14346 -3.30957,-0.18531 -0.25177,-0.01 -0.50418,-0.002 -0.75561,-0.0186 -0.15982,-0.0103 -0.58802,0.0543 -0.47662,-0.0607 0.59487,-0.6144 1.36053,-1.03654 2.0408,-1.55481 2.17418,-0.138 4.35771,-0.15652 6.52405,-0.41634 1.37933,-0.16224 1.69162,-0.17634 2.96236,-0.39913 0.30212,-0.053 1.09662,-0.41772 0.90234,-0.18037 -0.448,0.54731 -1.20295,0.75304 -1.74398,1.20859 -0.169,0.14229 1.02867,0.19494 -0.19484,0.081 -1.70059,-0.0519 -3.39811,0.18149 -5.09704,0.0555 -0.28236,-0.0493 -0.89086,-0.0772 -0.91421,-0.51534 -0.004,-0.0783 0.0379,-0.16849 0.10365,-0.21115 1.00056,-0.64896 1.84105,-1.11053 2.79964,-1.64137 0.64663,-0.34093 1.30263,-0.66333 1.97803,-0.94401 0,0 -2.05458,1.62377 -2.05458,1.62377 z"
       inkscape:export-filename="/home/joshua/workspace/HurryUpHedgeHog2/src/images/standardEnabledCell.png"
       inkscape:export-xdpi="93.177147"
       inkscape:export-ydpi="93.177147" />
    <path
       style="fill:#502d16;fill-opacity:0.73488375;stroke:none"
       id="path3816"
       d="m 236.53698,146.49763 c 0.82641,0.0406 1.65831,0.0649 2.4707,0.23094 0.32535,0.12945 1.47116,0.14708 1.67442,0.3601 0.056,0.0587 0.0572,0.15168 0.0859,0.22752 -1.12254,1.4371 -2.16679,1.18791 -3.39413,1.83323 -0.15447,0.0812 -0.60261,0.35218 -0.44965,0.26818 1.83388,-1.0071 2.38827,-1.47852 1.60188,-0.84051 -0.39236,0.40259 -0.37587,0.50724 0.13718,0.72057 0.53518,0.15096 1.0921,0.18391 1.63896,0.27544 0.27592,0.0434 0.55525,0.0534 0.83302,0.0776 0.0395,0.003 0.14923,-0.01 0.11809,0.0146 -2.10208,1.65794 -1.28679,1.61748 -2.41666,1.60682 -0.66481,0.0221 -1.33561,0.13184 -2.00057,0.0811 -0.36655,-0.18354 -0.22713,-0.42362 -0.006,-0.65478 0,0 2.41885,-0.97645 2.41885,-0.97645 l 0,0 c -0.056,0.0358 -0.10717,0.0808 -0.16817,0.10726 -0.0816,0.0354 -0.29193,-0.0156 -0.12641,0.004 0.65555,0.0258 1.31532,-0.042 1.96467,-0.12459 1.00842,-0.34381 0.49261,-0.19375 -1.81808,1.46952 -0.007,0.005 -0.8493,-0.10642 -0.92919,-0.11033 -0.56173,-0.0933 -1.13869,-0.13746 -1.67503,-0.33949 -0.5516,-0.29394 -0.81481,-0.62878 -0.36844,-1.17773 0.95521,-0.88157 0.22504,-0.23844 2.77548,-1.73255 0.35777,-0.20959 0.59383,-0.31169 0.98419,-0.46342 0.15614,-0.0607 0.60735,-0.26916 0.47346,-0.16848 -0.62482,0.46984 -1.30715,0.85789 -1.96072,1.28684 0.0378,0.0215 0.15675,0.0672 0.11336,0.0644 -0.0627,-0.004 -0.11494,-0.0522 -0.17567,-0.0683 -0.47167,-0.12523 -0.96975,-0.13956 -1.44147,-0.26746 -0.81449,-0.14673 -1.64697,-0.18859 -2.47374,-0.16822 0,0 2.11378,-1.53575 2.11378,-1.53575 z"
       inkscape:export-filename="/home/joshua/workspace/HurryUpHedgeHog2/src/images/standardEnabledCell.png"
       inkscape:export-xdpi="93.177147"
       inkscape:export-ydpi="93.177147" />
    <path
       style="fill:#502d16;fill-opacity:0.73488375;stroke:none"
       id="path3818"
       d="m 241.93294,148.36273 c 0.88872,-0.47506 0.029,-0.0173 -1.94479,1.11264 -0.0228,0.0131 0.0454,-0.0386 0.0712,-0.0339 0.0192,0.004 0.0182,0.0346 0.0273,0.052 0,0 2.29764,-1.29228 2.29764,-1.29228 l 0,0 c 0.0293,0.0638 0.0786,0.12176 0.088,0.19134 0.006,0.0458 -0.005,0.10687 -0.0446,0.13128 -1.9901,1.23817 -1.55663,1.06007 -2.5671,1.44895 0,0 2.07241,-1.61005 2.07241,-1.61005 z"
       inkscape:export-filename="/home/joshua/workspace/HurryUpHedgeHog2/src/images/standardEnabledCell.png"
       inkscape:export-xdpi="93.177147"
       inkscape:export-ydpi="93.177147" />
    <path
       style="fill:#502d16;fill-opacity:0.73488375;stroke:none"
       id="path3820"
       d="m 238.87375,148.74429 c -0.8565,0.16902 -2.36186,1.48189 1.88326,-1.13835 0.0273,-0.0168 -0.0594,-0.0735 -0.0323,-0.0906 0.0435,-0.0274 0.10267,0.007 0.15365,0.0141 0.13353,0.0177 0.26648,0.0396 0.39972,0.0593 1.45998,0.18149 2.93377,0.11392 4.39918,0.18341 0.0794,0.0104 0.16815,-0.008 0.23822,0.0312 0.0561,0.0311 0.15868,0.12165 0.10717,0.15991 -0.74607,0.55398 -1.54478,1.03548 -2.34751,1.50361 -0.024,0.014 -1.02325,0.13691 -1.0561,0.14083 -0.80089,0.0775 -1.60262,0.1433 -2.4042,0.21339 0,0 2.04863,-1.51714 2.04863,-1.51714 l 0,0 c 0.80203,-0.0765 1.60658,-0.1267 2.40574,-0.23024 0.24051,-0.0392 0.55249,-0.0855 0.79567,-0.14082 0.0923,-0.021 0.34998,-0.13094 0.27433,-0.074 -0.65339,0.49212 -1.36378,0.90481 -2.02208,1.39034 -0.0225,0.0166 0.0434,0.0354 0.065,0.0531 -0.0635,-0.0124 -0.12709,-0.0248 -0.19063,-0.0371 -1.46479,-0.14094 -2.94361,-0.0696 -4.40961,-0.20291 -0.15495,-0.0255 -0.31433,-0.0318 -0.46485,-0.0766 -0.17723,-0.0527 -0.54792,-0.27626 -0.3988,-0.38562 1.0523,-0.77177 1.62218,-1.34355 2.67976,-1.39913 0,0 -2.12426,1.54337 -2.12426,1.54337 z"
       inkscape:export-filename="/home/joshua/workspace/HurryUpHedgeHog2/src/images/standardEnabledCell.png"
       inkscape:export-xdpi="93.177147"
       inkscape:export-ydpi="93.177147" />
    <path
       sodipodi:type="arc"
       style="fill:#e6e6e6;fill-opacity:1;fill-rule:nonzero;stroke:url(#radialGradient3710);stroke-width:5;stroke-linecap:round;stroke-linejoin:miter;stroke-miterlimit:4;stroke-opacity:1;stroke-dasharray:none"
       id="path2930"
       sodipodi:cx="177.83736"
       sodipodi:cy="149.74037"
       sodipodi:rx="36.416"
       sodipodi:ry="12.904698"
       d="m 214.25336,149.74037 a 36.416,12.904698 0 1 1 -72.832,0 36.416,12.904698 0 1 1 72.832,0 z"
       transform="matrix(1.2566524,0,0,1.2566524,-0.2991554,-10.565067)" />
    <rect
       style="fill:#552200;fill-opacity:1;fill-rule:nonzero;stroke:#000000;stroke-width:1.06588221;stroke-linecap:round;stroke-linejoin:miter;stroke-miterlimit:4;stroke-opacity:1;stroke-dasharray:none"
       id="rect3712"
       width="45.06443"
       height="17.073931"
       x="175.57016"
       y="190.79521"
       transform="matrix(0.99297764,-0.11830219,0.11830219,0.99297764,0,0)" />
    <path
       style="fill:#ff00ff;stroke:#000000;stroke-width:1.25665236px;stroke-linecap:butt;stroke-linejoin:miter;stroke-opacity:1"
       d="m 196.30083,168.27636 c 0,0 35.54349,-15.55028 35.98778,-15.55028 0.4443,0 11.99593,-4.22079 13.10667,-0.66644 1.11073,3.55435 -3.99864,11.77378 -3.99864,11.77378 l -45.09581,4.44294 z"
       id="path3719" />
    <path
       style="fill:#ff00ff;stroke:#000000;stroke-width:1.25665236px;stroke-linecap:butt;stroke-linejoin:miter;stroke-opacity:1"
       d="m 244.95097,151.39319 3.3322,25.32475 -3.99864,3.55434 -2.44361,-16.43886 3.11005,-12.44023 z"
       id="path3723" />
    <rect
       transform="matrix(0.99500216,-0.09985341,0.11786608,0.9930295,0,0)"
       y="194.08675"
       x="175.11185"
       height="5.0786481"
       width="45.544189"
       id="rect3725"
       style="fill:#c87137;fill-opacity:1;fill-rule:nonzero;stroke:#000000;stroke-width:0.58440787;stroke-linecap:round;stroke-linejoin:miter;stroke-miterlimit:4;stroke-opacity:1;stroke-dasharray:none" />
    <path
       sodipodi:type="arc"
       style="fill:#ffffff;fill-opacity:1;fill-rule:nonzero;stroke:#000000;stroke-width:1;stroke-linecap:round;stroke-linejoin:miter;stroke-miterlimit:4;stroke-opacity:1;stroke-dasharray:none"
       id="path3727"
       sodipodi:cx="242.97957"
       sodipodi:cy="151.33136"
       sodipodi:rx="2.032932"
       sodipodi:ry="1.9445436"
       d="m 245.0125,151.33136 a 2.032932,1.9445436 0 1 1 -4.06586,0 2.032932,1.9445436 0 1 1 4.06586,0 z"
       transform="matrix(1.2566524,0,0,1.2566524,-62.05598,-40.332745)" />
    <path
       d="m 245.0125,151.33136 a 2.032932,1.9445436 0 1 1 -4.06586,0 2.032932,1.9445436 0 1 1 4.06586,0 z"
       sodipodi:ry="1.9445436"
       sodipodi:rx="2.032932"
       sodipodi:cy="151.33136"
       sodipodi:cx="242.97957"
       id="path3729"
       style="fill:#ffffff;fill-opacity:1;fill-rule:nonzero;stroke:#000000;stroke-width:1;stroke-linecap:round;stroke-linejoin:miter;stroke-miterlimit:4;stroke-opacity:1;stroke-dasharray:none"
       sodipodi:type="arc"
       transform="matrix(1.2566524,0,0,1.2566524,-61.611686,-37.222689)" />
    <path
       transform="matrix(1.2566524,0,0,1.2566524,-61.833833,-34.33478)"
       sodipodi:type="arc"
       style="fill:#ffffff;fill-opacity:1;fill-rule:nonzero;stroke:#000000;stroke-width:1;stroke-linecap:round;stroke-linejoin:miter;stroke-miterlimit:4;stroke-opacity:1;stroke-dasharray:none"
       id="path3731"
       sodipodi:cx="242.97957"
       sodipodi:cy="151.33136"
       sodipodi:rx="2.032932"
       sodipodi:ry="1.9445436"
       d="m 245.0125,151.33136 a 2.032932,1.9445436 0 1 1 -4.06586,0 2.032932,1.9445436 0 1 1 4.06586,0 z" />
    <path
       d="m 245.0125,151.33136 a 2.032932,1.9445436 0 1 1 -4.06586,0 2.032932,1.9445436 0 1 1 4.06586,0 z"
       sodipodi:ry="1.9445436"
       sodipodi:rx="2.032932"
       sodipodi:cy="151.33136"
       sodipodi:cx="242.97957"
       id="path3733"
       style="fill:#ffffff;fill-opacity:1;fill-rule:nonzero;stroke:#000000;stroke-width:1;stroke-linecap:round;stroke-linejoin:miter;stroke-miterlimit:4;stroke-opacity:1;stroke-dasharray:none"
       sodipodi:type="arc"
       transform="matrix(1.2566524,0,0,1.2566524,-62.05598,-30.780431)" />
    <path
       transform="matrix(1.2566524,0,0,1.2566524,-63.611008,-27.670375)"
       sodipodi:type="arc"
       style="fill:#ffffff;fill-opacity:1;fill-rule:nonzero;stroke:#000000;stroke-width:1;stroke-linecap:round;stroke-linejoin:miter;stroke-miterlimit:4;stroke-opacity:1;stroke-dasharray:none"
       id="path3735"
       sodipodi:cx="242.97957"
       sodipodi:cy="151.33136"
       sodipodi:rx="2.032932"
       sodipodi:ry="1.9445436"
       d="m 245.0125,151.33136 a 2.032932,1.9445436 0 1 1 -4.06586,0 2.032932,1.9445436 0 1 1 4.06586,0 z" />
  </g>
</svg>
